<svg width="24" height="24" viewBox="0 0 24 24" fill="none" xmlns="http://www.w3.org/2000/svg">
<path fill-rule="evenodd" clip-rule="evenodd" d="M13.5 3.75C13.5 3.12868 14.0037 2.625 14.625 2.625H20.25C20.8713 2.625 21.375 3.12868 21.375 3.75V9.375C21.375 9.99632 20.8713 10.5 20.25 10.5C19.6287 10.5 19.125 9.99632 19.125 9.375V4.875H14.625C14.0037 4.875 13.5 4.37132 13.5 3.75Z" fill="black"/>
<path fill-rule="evenodd" clip-rule="evenodd" d="M21.0455 2.9545C21.4848 3.39384 21.4848 4.10616 21.0455 4.5455L14.2955 11.2955C13.8562 11.7348 13.1438 11.7348 12.7045 11.2955C12.2652 10.8562 12.2652 10.1438 12.7045 9.7045L19.4545 2.9545C19.8938 2.51517 20.6062 2.51517 21.0455 2.9545Z" fill="black"/>
<path fill-rule="evenodd" clip-rule="evenodd" d="M4.875 7.875H10.5C11.1213 7.875 11.625 7.37132 11.625 6.75C11.625 6.12868 11.1213 5.625 10.5 5.625H4.5C4.00272 5.625 3.52581 5.82254 3.17417 6.17417C2.82254 6.52581 2.625 7.00272 2.625 7.5V19.5C2.625 19.9973 2.82254 20.4742 3.17417 20.8258C3.52581 21.1775 4.00272 21.375 4.5 21.375H16.5C16.9973 21.375 17.4742 21.1775 17.8258 20.8258C18.1775 20.4742 18.375 19.9973 18.375 19.5V13.5C18.375 12.8787 17.8713 12.375 17.25 12.375C16.6287 12.375 16.125 12.8787 16.125 13.5V19.125H4.875V7.875Z" fill="black"/>
</svg>
