<svg width="16" height="17" viewBox="0 0 16 17" fill="none" xmlns="http://www.w3.org/2000/svg">
<path fill-rule="evenodd" clip-rule="evenodd" d="M14.0117 2.98438C14.4259 2.98438 14.7617 3.32016 14.7617 3.73438V6.73437C14.7617 7.14859 14.4259 7.48438 14.0117 7.48438H11.0117C10.5975 7.48438 10.2617 7.14859 10.2617 6.73437C10.2617 6.32016 10.5975 5.98437 11.0117 5.98437H13.2617V3.73438C13.2617 3.32016 13.5975 2.98438 14.0117 2.98438Z" fill="#358888"/>
<path fill-rule="evenodd" clip-rule="evenodd" d="M8.00078 3.75C7.37724 3.75 6.75982 3.87293 6.18383 4.11176C5.60784 4.35059 5.08459 4.70063 4.644 5.14186C4.35132 5.43497 3.87644 5.43531 3.58334 5.14263C3.29023 4.84995 3.28988 4.37508 3.58256 4.08197C4.16247 3.50122 4.85118 3.0405 5.6093 2.72615C6.36742 2.4118 7.18007 2.25 8.00078 2.25C8.82149 2.25 9.63414 2.4118 10.3923 2.72615C11.1501 3.04038 11.8386 3.50088 12.4184 4.08133C12.4186 4.08155 12.4188 4.08176 12.419 4.08197L14.5428 6.19956C14.8362 6.49202 14.8369 6.96689 14.5444 7.26021C14.2519 7.55354 13.7771 7.55424 13.4837 7.26178L11.3587 5.14303L11.3576 5.14186C10.917 4.70063 10.3937 4.35059 9.81773 4.11176C9.24174 3.87293 8.62432 3.75 8.00078 3.75Z" fill="#358888"/>
<path fill-rule="evenodd" clip-rule="evenodd" d="M1.23828 10.2656C1.23828 9.85141 1.57407 9.51562 1.98828 9.51562H4.98828C5.4025 9.51562 5.73828 9.85141 5.73828 10.2656C5.73828 10.6798 5.4025 11.0156 4.98828 11.0156H2.73828V13.2656C2.73828 13.6798 2.40249 14.0156 1.98828 14.0156C1.57407 14.0156 1.23828 13.6798 1.23828 13.2656V10.2656Z" fill="#358888"/>
<path fill-rule="evenodd" clip-rule="evenodd" d="M1.45717 9.73608C1.74963 9.44275 2.22451 9.44205 2.51783 9.73451L4.64283 11.8533L4.644 11.8544C5.08459 12.2957 5.60784 12.6457 6.18383 12.8845C6.75982 13.1234 7.37724 13.2463 8.00078 13.2463C8.62432 13.2463 9.24174 13.1234 9.81773 12.8845C10.3937 12.6457 10.917 12.2957 11.3576 11.8544C11.6502 11.5613 12.1251 11.561 12.4182 11.8537C12.7113 12.1463 12.7117 12.6212 12.419 12.9143C11.8391 13.4951 11.1504 13.9558 10.3923 14.2701C9.63414 14.5845 8.82149 14.7463 8.00078 14.7463C7.18007 14.7463 6.36742 14.5845 5.6093 14.2701C4.85142 13.9559 4.16291 13.4954 3.58312 12.9149C3.58293 12.9147 3.58275 12.9145 3.58256 12.9143L1.45873 10.7967C1.16541 10.5043 1.16471 10.0294 1.45717 9.73608Z" fill="#358888"/>
</svg>
