<svg width="20" height="20" viewBox="0 0 20 20" fill="none" xmlns="http://www.w3.org/2000/svg">
<g id="circle" clip-path="url(#clip0_6398_31369)">
<path id="Icon" d="M9.9974 18.3327C14.5998 18.3327 18.3307 14.6017 18.3307 9.99935C18.3307 5.39698 14.5998 1.66602 9.9974 1.66602C5.39502 1.66602 1.66406 5.39698 1.66406 9.99935C1.66406 14.6017 5.39502 18.3327 9.9974 18.3327Z" fill="#358888" stroke="#358888" stroke-width="1.67" stroke-linecap="round" stroke-linejoin="round"/>
<path id="check_mark" d="M15.655 7.99487L9.22886 14.3331C8.99887 14.5599 8.70124 14.6667 8.39008 14.6667C8.09245 14.6667 7.79481 14.5599 7.56483 14.3331L4.34498 11.1706C3.88501 10.7036 3.88501 9.96972 4.34498 9.51604C4.80496 9.06236 5.56257 9.06236 6.02255 9.51604L8.39008 11.8512L13.9775 6.34026C14.4374 5.88658 15.195 5.88658 15.655 6.34026C16.115 6.80729 16.115 7.54119 15.655 7.99487Z" fill="white"/>
</g>
<defs>
<clipPath id="clip0_6398_31369">
<rect width="20" height="20" fill="white"/>
</clipPath>
</defs>
</svg>
