<svg width="14" height="14" viewBox="0 0 14 14" fill="none" xmlns="http://www.w3.org/2000/svg">
<path d="M12.8493 11.9649C13.0254 12.141 13.1243 12.3799 13.1243 12.629C13.1243 12.878 13.0254 13.1169 12.8493 13.293C12.6732 13.4692 12.4343 13.5681 12.1852 13.5681C11.9361 13.5681 11.6973 13.4692 11.5212 13.293L6.561 8.33131L1.59928 13.2915C1.42316 13.4676 1.18429 13.5665 0.93522 13.5665C0.686148 13.5665 0.447278 13.4676 0.271158 13.2915C0.0950372 13.1153 -0.00390625 12.8765 -0.00390625 12.6274C-0.00390625 12.3783 0.0950373 12.1395 0.271158 11.9633L5.23288 7.00319L0.27272 2.04147C0.0965995 1.86535 -0.00234372 1.62648 -0.00234371 1.37741C-0.00234371 1.12834 0.0965995 0.889465 0.27272 0.713345C0.44884 0.537225 0.687711 0.438281 0.936782 0.438281C1.18585 0.438281 1.42472 0.537225 1.60085 0.713345L6.561 5.67506L11.5227 0.712564C11.6988 0.536443 11.9377 0.4375 12.1868 0.4375C12.4359 0.4375 12.6747 0.536443 12.8508 0.712564C13.027 0.888684 13.1259 1.12755 13.1259 1.37663C13.1259 1.6257 13.027 1.86457 12.8508 2.04069L7.88913 7.00319L12.8493 11.9649Z" fill="#6A6D81"/>
</svg>
