<svg width="24" height="24" viewBox="0 0 24 24" fill="none" xmlns="http://www.w3.org/2000/svg">
<path d="M19.5579 12.4631C19.7473 12.9263 20.1895 13.2632 20.7368 13.2632C21.4315 13.2632 22 12.6947 22 11.9999C22 11.3052 21.4316 10.7367 20.7368 10.7367C20.2105 10.7367 19.7473 11.0736 19.5579 11.5367H18.2737C18.2106 10.7367 18 9.95781 17.6632 9.26307L18.779 8.61048C19.1791 8.92621 19.7264 8.98935 20.1896 8.71577C20.8 8.3789 20.9896 7.59999 20.6527 6.98939C20.2948 6.37894 19.5369 6.16833 18.9263 6.52623C18.4632 6.79996 18.2316 7.30514 18.3159 7.78946L17.2001 8.44205C16.7579 7.78946 16.1896 7.221 15.537 6.77897L16.1896 5.66319C16.6738 5.72633 17.2001 5.51575 17.4528 5.05274C17.8107 4.44229 17.6003 3.68439 16.9897 3.32635C16.3792 2.98947 15.6213 3.17891 15.2633 3.78951C14.9896 4.25266 15.0527 4.79999 15.3686 5.20003L14.737 6.33679C14.0422 5.99992 13.2843 5.78946 12.4633 5.72634V4.44214C12.9264 4.2527 13.2633 3.81052 13.2633 3.26323C13.2633 2.56849 12.6949 2 12.0001 2C11.3053 2 10.7369 2.56846 10.7369 3.26323C10.7369 3.78954 11.0737 4.2527 11.5369 4.44214V5.72634C10.7369 5.78949 9.95796 6.00007 9.26322 6.33679L8.61063 5.22101C8.92636 4.82097 8.9895 4.27368 8.71592 3.81048C8.35805 3.20003 7.60014 3.01045 6.98954 3.34733C6.37909 3.7052 6.1895 4.46311 6.52638 5.07371C6.80011 5.53687 7.30529 5.76845 7.81059 5.68416L8.4422 6.79995C7.78961 7.24213 7.22115 7.81044 6.77912 8.46303L5.66334 7.83141C5.74748 7.32611 5.5159 6.82093 5.05289 6.56818C4.44244 6.21031 3.68454 6.42074 3.3265 7.03134C2.96863 7.64179 3.17906 8.39968 3.78966 8.75773C4.25281 9.03146 4.80014 8.96831 5.20018 8.65243L6.31597 9.26303C5.97909 9.95777 5.76864 10.7157 5.70552 11.5367H4.42116C4.23172 11.0736 3.78954 10.7367 3.26323 10.7367C2.5685 10.7367 2 11.3051 2 11.9999C2 12.6947 2.56846 13.2631 3.26323 13.2631C3.78954 13.2631 4.2527 12.9263 4.42116 12.4631H5.70537C5.76851 13.2631 5.9791 14.042 6.31582 14.7368L5.20003 15.3894C4.79999 15.0736 4.2527 15.0105 3.78951 15.2841C3.17906 15.642 2.96846 16.3999 3.32635 17.0105C3.66323 17.6209 4.44214 17.8105 5.05274 17.4736C5.51589 17.1999 5.74747 16.6947 5.66319 16.1894L6.77897 15.5578C7.22115 16.2104 7.78946 16.7788 8.44205 17.2209L7.81044 18.3367C7.30514 18.2735 6.79995 18.5051 6.52623 18.9471C6.18935 19.5576 6.37879 20.3155 6.98939 20.6735C7.59984 21.0314 8.35773 20.8209 8.71577 20.2103C8.9895 19.7472 8.92636 19.1999 8.61048 18.7998L9.26322 17.684C9.95796 18.0209 10.7159 18.2314 11.5369 18.2945V19.5788C11.0737 19.7683 10.7369 20.2105 10.7369 20.7368C10.7369 21.4315 11.3053 22 12.0001 22C12.6949 22 13.2633 21.4315 13.2633 20.7368C13.2633 20.2105 12.9265 19.7473 12.4633 19.5788V18.2946C13.2843 18.2315 14.0422 18.0209 14.737 17.6842L15.3896 18.8C15.0738 19.2 15.0107 19.7473 15.2843 20.2105C15.6211 20.8209 16.4001 21.0315 17.0107 20.6737C17.6211 20.3368 17.8317 19.5579 17.4738 18.9473C17.2001 18.4841 16.6949 18.2525 16.2106 18.3368L15.579 17.221C16.2316 16.7788 16.8 16.2105 17.242 15.558L18.3578 16.1896C18.2947 16.6949 18.5053 17.2001 18.9683 17.4738C19.5787 17.8106 20.3366 17.6212 20.6947 17.0106C21.0315 16.4002 20.8421 15.6423 20.2315 15.2842C19.7684 15.0105 19.221 15.0736 18.821 15.3895L17.6842 14.7368C18.0211 14.042 18.2316 13.2841 18.2947 12.4631L19.5579 12.4631ZM12 17.3684C9.03158 17.3684 6.63162 14.9474 6.63162 12C6.63162 9.0527 9.03161 6.63157 12 6.63157C14.9684 6.63157 17.3684 9.03157 17.3684 12C17.3684 14.9684 14.9684 17.3684 12 17.3684Z" fill="black"/>
<path d="M12.2948 7.70526C11.7263 7.70526 11.2632 8.16842 11.2632 8.73688C11.2632 9.30533 11.7263 9.76849 12.2948 9.76849C12.8633 9.76849 13.3264 9.30533 13.3264 8.73688C13.3264 8.16827 12.8633 7.70526 12.2948 7.70526Z" fill="black"/>
<path d="M14.9264 9.93683C14.3579 9.93683 13.8948 10.4 13.8948 10.9684C13.8948 11.5369 14.3579 12.0001 14.9264 12.0001C15.4948 12.0001 15.958 11.5369 15.958 10.9684C15.958 10.4 15.4948 9.93683 14.9264 9.93683Z" fill="black"/>
<path d="M9.01061 12.421C8.44215 12.421 8.00012 12.8842 8.00012 13.4315C8.00012 14 8.46328 14.442 9.01061 14.442C9.57907 14.442 10.0211 13.9788 10.0211 13.4315C10.0211 12.8632 9.57907 12.421 9.01061 12.421Z" fill="black"/>
<path d="M9.13689 9.24213C8.65272 9.24213 8.25269 9.64216 8.25269 10.1263C8.25269 10.6105 8.65272 11.0105 9.13689 11.0105C9.62107 11.0105 10.0211 10.6105 10.0211 10.1263C10.0211 9.64216 9.62107 9.24213 9.13689 9.24213Z" fill="black"/>
<path d="M12.5685 15.3263C12.5685 15.8146 12.1726 16.2105 11.6842 16.2105C11.1958 16.2105 10.7999 15.8146 10.7999 15.3263C10.7999 14.838 11.1958 14.4421 11.6842 14.4421C12.1725 14.4421 12.5685 14.838 12.5685 15.3263Z" fill="black"/>
<path d="M14.6526 13.179C14.1685 13.179 13.7894 13.5578 13.7894 14.0421C13.7894 14.5263 14.1683 14.9053 14.6526 14.9053C15.1368 14.9053 15.5158 14.5265 15.5158 14.0421C15.5158 13.579 15.1158 13.179 14.6526 13.179Z" fill="black"/>
<path d="M12.8632 11.9789C12.8632 12.5138 12.4296 12.9473 11.8947 12.9473C11.3599 12.9473 10.9264 12.5138 10.9264 11.9789C10.9264 11.4441 11.3599 11.0104 11.8947 11.0104C12.4296 11.0104 12.8632 11.4441 12.8632 11.9789Z" fill="black"/>
</svg>
