<svg width="24" height="24" viewBox="0 0 24 24" fill="none" xmlns="http://www.w3.org/2000/svg">
<path d="M12 2.00018L11.9995 2.00074C11.46 2.00074 11.0222 2.4392 11.0222 2.9787V6.02427C10.8897 6.04575 10.758 6.07282 10.6272 6.10309L9.91748 4.39386C9.7092 3.89093 9.12967 3.65154 8.62675 3.85983C8.12397 4.06811 7.88372 4.64582 8.09201 5.14874L8.8035 6.86036C8.68924 6.93109 8.57652 7.00475 8.46728 7.08288L6.31231 4.9279C5.93088 4.54648 5.30925 4.54648 4.92783 4.9279C4.5464 5.30933 4.5464 5.93096 4.92783 6.31239L7.08516 8.46972C7.00689 8.57867 6.93114 8.69028 6.86027 8.80412L5.14865 8.09445C4.64573 7.88617 4.06566 8.12626 3.85738 8.62919C3.64909 9.13213 3.891 9.70982 4.3938 9.91811L6.10542 10.6272C6.07501 10.7581 6.05032 10.8903 6.02842 11.023H2.97795C2.43849 11.023 2 11.4609 2 12.0002C2 12.5397 2.43846 12.98 2.97795 12.98H6.02592C6.04712 13.1121 6.07307 13.2423 6.10292 13.3727L4.39369 14.0829C3.89077 14.2912 3.64888 14.87 3.85727 15.373C4.06555 15.8759 4.64562 16.116 5.14854 15.9077L6.86016 15.198C6.93062 15.312 7.00483 15.4235 7.08268 15.5324L4.92785 17.6873C4.54642 18.0687 4.54642 18.6903 4.92785 19.0718C5.30927 19.4532 5.93091 19.4532 6.31233 19.0718L8.46966 16.915C8.57876 16.9935 8.68938 17.0687 8.8035 17.1398L8.09201 18.8509C7.88373 19.3538 8.12382 19.9339 8.62676 20.1422C9.12968 20.3505 9.70906 20.1109 9.91749 19.6081L10.6272 17.8965C10.758 17.9269 10.8897 17.9523 11.0222 17.9741V21.022C11.0222 21.5615 11.4602 22 11.9995 22C12.5389 22 12.9774 21.5615 12.9774 21.022V17.9788C13.1109 17.9572 13.2432 17.9292 13.375 17.8989L14.0823 19.6087C14.2906 20.1115 14.8701 20.351 15.3731 20.1427C15.876 19.9344 16.1161 19.3544 15.9078 18.8515L15.1981 17.1422C15.3131 17.0709 15.425 16.996 15.5349 16.9173L17.6874 19.0722C18.0688 19.4536 18.6904 19.4536 19.0719 19.0722C19.4533 18.6907 19.4533 18.0691 19.0719 17.6877L16.9187 15.5352C16.9977 15.4257 17.0729 15.313 17.1443 15.1984L18.8512 15.9081C19.3541 16.1164 19.9342 15.8762 20.1424 15.3734C20.3507 14.8704 20.109 14.2911 19.606 14.0826L17.8986 13.3724C17.929 13.2425 17.9544 13.1112 17.9761 12.9797H21.0217C21.5612 12.9797 21.9997 12.5394 21.9997 11.9999C21.9997 11.4605 21.5612 11.0227 21.0217 11.0227H17.9785C17.9569 10.889 17.929 10.7565 17.8986 10.6245L19.606 9.91779C20.1088 9.70951 20.3507 9.1318 20.1424 8.62888C19.9341 8.1261 19.3541 7.88585 18.8512 8.09413L17.1419 8.80145C17.0709 8.68677 16.9973 8.57447 16.9189 8.46468L19.072 6.3122C19.4534 5.93078 19.4534 5.30914 19.072 4.92772C18.6906 4.54629 18.069 4.54629 17.6875 4.92772L15.5327 7.08269C15.4237 7.00415 15.3123 6.92882 15.1983 6.85781L15.908 5.14858C16.1162 4.64565 15.876 4.06795 15.3732 3.85966C14.8703 3.65138 14.2908 3.89091 14.0825 4.39369L13.3728 6.10292C13.2422 6.07251 13.11 6.04768 12.9777 6.02592V2.97795C12.9777 2.43849 12.5398 2 12.0005 2L12 2.00018ZM10.8446 8.93403C11.417 8.93403 11.8839 9.40277 11.8839 9.97502C11.8839 10.5474 11.417 11.0136 10.8446 11.0136C10.2722 11.0136 9.80362 10.5473 9.80362 9.97502C9.80362 9.40263 10.2724 8.93403 10.8446 8.93403ZM14.0045 10.6594C14.5768 10.6594 15.0431 11.1258 15.0431 11.6981C15.0431 12.2705 14.5767 12.7367 14.0045 12.7367C13.4321 12.7367 12.9658 12.2703 12.9658 11.6981C12.9658 11.1257 13.4322 10.6594 14.0045 10.6594ZM10.5559 13.3869C11.1282 13.3869 11.5976 13.8533 11.5976 14.4256C11.5976 14.998 11.1282 15.4666 10.5559 15.4666C9.98347 15.4666 9.51723 14.9978 9.51723 14.4256C9.51723 13.8532 9.98361 13.3869 10.5559 13.3869Z" fill="black"/>
</svg>
