<svg width="24" height="24" viewBox="0 0 24 24" fill="none" xmlns="http://www.w3.org/2000/svg">
<path d="M7.50879 7.4203C7.17815 7.47734 7.02656 8.18482 7.17195 8.99891C7.30526 9.74668 7.64147 10.3253 7.95413 10.3692C8.34987 11.4347 8.97718 12.4705 9.75285 13.226C10.1909 13.6558 10.6773 13.9947 11.1951 14.2008C11.5518 14.3414 11.9238 14.4203 12.3067 14.4203C12.6886 14.4203 13.0606 14.342 13.4169 14.2008C13.9534 13.9872 14.4561 13.6318 14.906 13.1818C15.6624 12.427 16.2754 11.4074 16.662 10.3605C16.9614 10.2724 17.2744 9.71327 17.402 8.99839C17.5395 8.22288 17.4097 7.54657 17.1102 7.43419C17.1211 7.24461 17.1281 7.05302 17.1267 6.85725C17.1203 4.04662 15.4719 2.19059 12.8739 2.01678C10.6081 1.8641 8.90169 2.7644 8.12431 4.26007C7.86203 4.76324 7.71367 5.61546 7.6557 6.29923C7.56843 6.6556 7.51774 7.0259 7.51774 7.40895H7.52688C7.52688 7.41252 7.52642 7.41546 7.52549 7.4181C7.51929 7.41856 7.51479 7.41903 7.50875 7.42011L7.50879 7.4203Z" fill="black"/>
<path d="M20.3382 16.1064C19.5114 15.0382 18.6412 14.866 18.2704 14.7953C18.2248 14.7871 18.187 14.7798 18.1562 14.7722C18.1194 14.7635 18.0802 14.7583 18.0424 14.7507C18.0517 14.7691 18.0622 14.7862 18.0711 14.8051C18.17 15.0168 18.2388 15.2373 18.276 15.4616C18.34 15.4833 18.3994 15.5087 18.4553 15.5389C19.0545 15.8593 19.2814 16.6081 18.9608 17.2076C18.7457 17.6098 18.3288 17.8594 17.8726 17.8594C17.6713 17.8594 17.4702 17.809 17.2918 17.7134C16.6927 17.3935 16.4658 16.6444 16.7863 16.045C16.9406 15.7569 17.2039 15.5448 17.5188 15.4506C17.4487 15.1765 17.3021 14.8685 17.0713 14.6372C16.9969 14.6326 16.922 14.6276 16.8502 14.6235C16.5134 14.6035 16.1917 14.5861 15.9304 14.5337C15.6261 15.3388 12.2892 17.7021 12.2892 17.7021C12.289 17.7021 8.95293 15.3385 8.64865 14.5334C8.3856 14.5858 8.06397 14.6045 7.72758 14.6241C7.66728 14.6276 7.60404 14.6314 7.54188 14.6354C7.28193 14.8646 7.09252 15.1653 7.01811 15.4272C7.11685 15.5003 7.19699 15.5995 7.24985 15.7156C7.72449 15.9396 8.14362 16.4112 8.46465 17.0825C8.51844 17.1957 8.52525 17.3232 8.48604 17.4396C8.67841 17.9349 8.78846 18.4763 8.78846 18.931C8.78846 19.5681 8.78846 20.1706 8.09402 20.3252C8.01869 20.3878 7.92475 20.422 7.82585 20.422H7.36193C7.12926 20.422 6.94014 20.2325 6.94014 20.0001C6.94526 19.7632 7.13452 19.5781 7.36193 19.5781H7.82585C7.87359 19.5781 7.9201 19.5862 7.96474 19.6019C7.9928 19.5936 8.00163 19.5871 8.00163 19.5871C8.05325 19.4955 8.05325 19.1142 8.05325 18.9311C8.05325 18.5613 7.96087 18.1153 7.79888 17.7013C7.71471 17.6536 7.64682 17.5813 7.60512 17.4939C7.32362 16.9049 6.94107 16.5243 6.63044 16.5243C6.31252 16.5243 5.91088 16.9357 5.63092 17.5474C5.58519 17.6469 5.50489 17.7283 5.406 17.7766C5.25951 18.1738 5.17906 18.5819 5.17906 18.9307C5.17906 19.0844 5.17906 19.4927 5.23766 19.5884H5.23781C5.23843 19.5884 5.25161 19.5964 5.28819 19.6054C5.33671 19.5868 5.38709 19.5773 5.43948 19.5773H5.90436C6.12695 19.5773 6.3119 19.7517 6.32567 19.9745L6.32908 19.9878L6.32644 19.9996C6.32644 20.2323 6.13718 20.4215 5.90466 20.4215H5.43978C5.34755 20.4215 5.25842 20.3909 5.1851 20.3346C4.91956 20.2845 4.73264 20.1672 4.61418 19.9768C4.47064 19.7466 4.44414 19.4437 4.44414 18.9304C4.44414 18.4799 4.54815 17.9616 4.73695 17.4662C4.7092 17.3601 4.7185 17.2495 4.76454 17.1498C4.9614 16.7196 5.2116 16.3512 5.48811 16.0847C5.64017 15.9381 5.8034 15.8204 5.97438 15.7345C6.03654 15.5885 6.14287 15.4656 6.27386 15.3875C6.31122 15.1782 6.39275 14.9624 6.5087 14.755C6.48018 14.7607 6.4501 14.7648 6.4222 14.7713C6.39089 14.7781 6.3526 14.7856 6.3075 14.7944C5.9578 14.8621 5.16258 15.0143 4.3781 15.9297C3.905 16.4816 3.43628 17.3099 3.0712 18.5654C2.98005 18.8784 2.97959 19.2083 3.05337 19.516C3.08763 19.6558 3.13227 19.7942 3.19955 19.9218C4.00839 21.4545 8.41977 22 12.2777 22H12.2994C16.1579 22 20.5672 21.4545 21.3775 19.9227C21.4561 19.7756 21.5029 19.6145 21.5369 19.4487C21.5933 19.1613 21.5885 18.8589 21.5051 18.5681C21.1774 17.4345 20.7643 16.6553 20.3384 16.1064L20.3382 16.1064ZM17.3986 19.8389C17.3986 19.9158 17.329 19.9778 17.2433 19.9778H16.3987V20.8222C16.3987 20.9083 16.3365 20.9779 16.2599 20.9779H15.4264C15.3497 20.9779 15.2877 20.9083 15.2877 20.8222V19.9778H14.4431C14.3573 19.9778 14.2874 19.9158 14.2874 19.8389V19.0055C14.2874 18.9287 14.3572 18.8667 14.4431 18.8667H15.2877V18.0222C15.2877 17.9361 15.3497 17.8665 15.4264 17.8665H16.2599C16.3364 17.8665 16.3987 17.9361 16.3987 18.0222V18.8667H17.2433C17.3293 18.8667 17.3986 18.9287 17.3986 19.0055V19.8389Z" fill="black"/>
<path d="M18.5412 16.6259C18.5412 16.9942 18.2426 17.2926 17.8745 17.2926C17.5062 17.2926 17.2078 16.9942 17.2078 16.6259C17.2078 16.2578 17.5062 15.9592 17.8745 15.9592C18.2426 15.9592 18.5412 16.2578 18.5412 16.6259Z" fill="black"/>
</svg>
