<svg width="100" height="100" viewBox="0 0 100 100" fill="none" xmlns="http://www.w3.org/2000/svg">
<circle cx="50" cy="50" r="50" fill="#D4D2D8" />
<path d="M75.7324 72.999C75.5568 73.3031 75.3043 73.5556 75.0002 73.7312C74.696 73.9067 74.3511 73.9991 73.9999 73.999H25.9999C25.649 73.9986 25.3044 73.906 25.0006 73.7303C24.6969 73.5546 24.4447 73.3021 24.2694 72.9981C24.0941 72.6941 24.0019 72.3494 24.002 71.9985C24.002 71.6476 24.0945 71.3029 24.2699 70.999C28.0774 64.4165 33.9449 59.6965 40.7924 57.459C37.4053 55.4426 34.7738 52.3702 33.3019 48.7135C31.83 45.0568 31.5991 41.018 32.6448 37.2174C33.6904 33.4168 35.9547 30.0645 39.09 27.6753C42.2252 25.2861 46.0581 23.9922 49.9999 23.9922C53.9417 23.9922 57.7746 25.2861 60.9098 27.6753C64.0451 30.0645 66.3094 33.4168 67.3551 37.2174C68.4007 41.018 68.1698 45.0568 66.6979 48.7135C65.226 52.3702 62.5945 55.4426 59.2074 57.459C66.0549 59.6965 71.9224 64.4165 75.7299 70.999C75.9058 71.3028 75.9987 71.6476 75.9991 71.9987C75.9995 72.3497 75.9076 72.6947 75.7324 72.999Z" fill="#F2F2F2" />
</svg>