<svg width="24" height="24" viewBox="0 0 24 24" fill="none" xmlns="http://www.w3.org/2000/svg">
<path fill-rule="evenodd" clip-rule="evenodd" d="M3.142 7.8295C4.98006 5.99145 7.87585 4.125 12 4.125C16.1242 4.125 19.0199 5.99145 20.858 7.8295C21.7738 8.74528 22.4337 9.65911 22.8661 10.3459C23.0828 10.6902 23.244 10.9799 23.353 11.188C23.4075 11.292 23.4491 11.3759 23.4781 11.4362C23.4926 11.4663 23.504 11.4905 23.5123 11.5085L23.5225 11.5307L23.5258 11.5381L23.5271 11.5409L23.5276 11.5421C23.5278 11.5426 23.528 11.5431 22.5 12C23.528 12.4569 23.5278 12.4574 23.5276 12.4579L23.5271 12.4591L23.5258 12.4619L23.5225 12.4693L23.5123 12.4915C23.504 12.5095 23.4926 12.5337 23.4781 12.5638C23.4491 12.6241 23.4075 12.708 23.353 12.812C23.244 13.0201 23.0828 13.3098 22.8661 13.6541C22.4337 14.3409 21.7738 15.2547 20.858 16.1705C19.0199 18.0085 16.1242 19.875 12 19.875C7.87585 19.875 4.98006 18.0085 3.142 16.1705C2.22623 15.2547 1.56634 14.3409 1.13393 13.6541C0.917164 13.3098 0.755954 13.0201 0.646994 12.812C0.592473 12.708 0.550907 12.6241 0.521896 12.5638C0.507386 12.5337 0.496005 12.5095 0.487702 12.4915L0.477546 12.4693L0.474185 12.4619L0.472932 12.4591L0.472411 12.4579C0.472181 12.4574 0.471962 12.4569 1.5 12C0.471962 11.5431 0.472181 11.5426 0.472411 11.5421L0.472932 11.5409L0.474185 11.5381L0.477546 11.5307L0.487702 11.5085C0.496005 11.4905 0.507386 11.4663 0.521896 11.4362C0.550907 11.3759 0.592473 11.292 0.646994 11.188C0.755954 10.9799 0.917164 10.6902 1.13393 10.3459C1.56634 9.65911 2.22623 8.74528 3.142 7.8295ZM1.5 12L0.471962 11.5431C0.342679 11.834 0.342679 12.166 0.471962 12.4569L1.5 12ZM2.76629 12C2.83955 12.1302 2.92993 12.2837 3.03795 12.4553C3.40241 13.0341 3.96127 13.8078 4.733 14.5795C6.26994 16.1165 8.62415 17.625 12 17.625C15.3758 17.625 17.7301 16.1165 19.267 14.5795C20.0387 13.8078 20.5976 13.0341 20.962 12.4553C21.0701 12.2837 21.1604 12.1302 21.2337 12C21.1604 11.8698 21.0701 11.7163 20.962 11.5447C20.5976 10.9659 20.0387 10.1922 19.267 9.4205C17.7301 7.88355 15.3758 6.375 12 6.375C8.62415 6.375 6.26994 7.88355 4.733 9.4205C3.96127 10.1922 3.40241 10.9659 3.03795 11.5447C2.92993 11.7163 2.83955 11.8698 2.76629 12ZM22.5 12L23.528 12.4569C23.6573 12.166 23.6573 11.834 23.528 11.5431L22.5 12Z" fill="black"/>
<path fill-rule="evenodd" clip-rule="evenodd" d="M12 10.125C10.9645 10.125 10.125 10.9645 10.125 12C10.125 13.0355 10.9645 13.875 12 13.875C13.0355 13.875 13.875 13.0355 13.875 12C13.875 10.9645 13.0355 10.125 12 10.125ZM7.875 12C7.875 9.72183 9.72183 7.875 12 7.875C14.2782 7.875 16.125 9.72183 16.125 12C16.125 14.2782 14.2782 16.125 12 16.125C9.72183 16.125 7.875 14.2782 7.875 12Z" fill="black"/>
</svg>
