<svg width="24" height="24" viewBox="0 0 24 24" fill="none" xmlns="http://www.w3.org/2000/svg">
<path fill-rule="evenodd" clip-rule="evenodd" d="M18.289 10.9611C18.8265 10.6495 19.5149 10.8326 19.8265 11.3701L21.9734 15.0733C22.285 15.6108 22.1019 16.2992 21.5643 16.6108C21.0268 16.9224 20.3384 16.7393 20.0268 16.2018L17.8799 12.4986C17.5683 11.9611 17.7514 11.2727 18.289 10.9611Z" fill="black"/>
<path fill-rule="evenodd" clip-rule="evenodd" d="M14.261 12.889C14.8729 12.7812 15.4564 13.1898 15.5642 13.8017L16.2298 17.5798C16.3376 18.1917 15.929 18.7752 15.3171 18.883C14.7052 18.9908 14.1217 18.5821 14.0139 17.9702L13.3483 14.1921C13.2405 13.5802 13.6492 12.9968 14.261 12.889Z" fill="black"/>
<path fill-rule="evenodd" clip-rule="evenodd" d="M9.72919 12.8795C10.3411 12.987 10.75 13.5703 10.6425 14.1822L9.97686 17.9697C9.86931 18.5817 9.28606 18.9906 8.67411 18.883C8.06217 18.7755 7.65328 18.1922 7.76082 17.5803L8.42645 13.7928C8.53399 13.1808 9.11725 12.7719 9.72919 12.8795Z" fill="black"/>
<path fill-rule="evenodd" clip-rule="evenodd" d="M5.69966 10.9599C6.23786 11.2703 6.42249 11.9583 6.11204 12.4965L3.96517 16.2184C3.65472 16.7566 2.96675 16.9412 2.42855 16.6308C1.89035 16.3203 1.70572 15.6324 2.01617 15.0942L4.16304 11.3723C4.47349 10.8341 5.16146 10.6494 5.69966 10.9599Z" fill="black"/>
<path fill-rule="evenodd" clip-rule="evenodd" d="M2.29316 8.9592C2.77651 8.56881 3.48482 8.64416 3.87522 9.12751C5.32595 10.9236 7.92285 13.125 12 13.125C16.0772 13.125 18.6741 10.9236 20.1249 9.12751C20.5153 8.64416 21.2236 8.56881 21.7069 8.9592C22.1903 9.3496 22.2656 10.0579 21.8752 10.5413C20.1759 12.6451 16.9979 15.375 12 15.375C7.00223 15.375 3.82413 12.6451 2.12485 10.5413C1.73446 10.0579 1.80981 9.3496 2.29316 8.9592Z" fill="black"/>
</svg>
