<svg width="24" height="24" viewBox="0 0 24 24" fill="none" xmlns="http://www.w3.org/2000/svg">
<path d="M21.375 6.325H16.5V19.65H16.175V3.625C16.175 3.27501 15.9 3 15.55 3H8.47496C8.12497 3 7.82501 3.27501 7.82501 3.625V19.65H7.49996V6.325H2.64995C2.29996 6.325 2 6.60001 2 6.95V20.325H22V6.95C22 6.60001 21.725 6.325 21.375 6.325H21.375ZM4.20002 16.475C4.20002 16.55 4.14997 16.6001 4.07498 16.6001H3.24998C3.175 16.6001 3.12495 16.55 3.12495 16.475V15.6501C3.12495 15.5752 3.175 15.5251 3.24998 15.5251H4.07498C4.14997 15.5251 4.20002 15.5752 4.20002 15.6501V16.475ZM4.20002 13.0501C4.20002 13.125 4.14997 13.1751 4.07498 13.1751H3.24998C3.175 13.1751 3.12495 13.125 3.12495 13.0501V12.2251C3.12495 12.1501 3.175 12.1 3.24998 12.1H4.07498C4.14997 12.1 4.20002 12.1501 4.20002 12.2251V13.0501ZM4.20002 9.6251C4.20002 9.70008 4.14997 9.75013 4.07498 9.75013H3.24998C3.175 9.75013 3.12495 9.70008 3.12495 9.6251V8.8001C3.12495 8.72511 3.175 8.67506 3.24998 8.67506H4.07498C4.14997 8.67506 4.20002 8.72511 4.20002 8.8001V9.6251ZM6.39988 16.4751C6.39988 16.5501 6.34983 16.6001 6.27485 16.6001H5.44985C5.37486 16.6001 5.32481 16.5501 5.32481 16.4751L5.32499 15.6502C5.32499 15.5753 5.37504 15.5252 5.45002 15.5252H6.27502C6.35001 15.5252 6.40006 15.5753 6.40006 15.6502L6.39988 16.4751ZM6.39988 13.0501C6.39988 13.1251 6.34983 13.1752 6.27485 13.1752H5.44985C5.37486 13.1752 5.32481 13.1251 5.32481 13.0501V12.2251C5.32481 12.1502 5.37486 12.1001 5.44985 12.1001H6.27485C6.34983 12.1001 6.39988 12.1502 6.39988 12.2251V13.0501ZM6.39988 9.62519C6.39988 9.70017 6.34983 9.75022 6.27485 9.75022H5.44985C5.37486 9.75022 5.32481 9.70017 5.32481 9.62519V8.80019C5.32481 8.7252 5.37486 8.67515 5.44985 8.67515H6.27485C6.34983 8.67515 6.39988 8.7252 6.39988 8.80019V9.62519ZM9.99993 5.40014C9.99993 5.25016 10.125 5.15006 10.2749 5.15006H11.3498V4.07515C11.3498 3.92518 11.4749 3.82508 11.6249 3.82508H12.4499C12.5998 3.82508 12.6999 3.95012 12.6999 4.07515V5.15006H13.7499C13.8999 5.15006 14 5.2751 14 5.40014V6.22514C14 6.37511 13.9001 6.47521 13.7499 6.47521H12.675V7.55012C12.675 7.70009 12.5751 7.80019 12.4249 7.80019H11.5999C11.45 7.80019 11.3249 7.70027 11.3249 7.55012V6.47521H10.25C10.1001 6.47521 9.97502 6.37529 9.97502 6.22514V5.40014H9.99993ZM12.4249 9.75019H11.5999C11.5249 9.75019 11.4749 9.70014 11.4749 9.62515V8.80015C11.4749 8.72516 11.5249 8.67511 11.5999 8.67511H12.4249C12.4999 8.67511 12.55 8.72516 12.55 8.80015V9.62515C12.5749 9.70014 12.4999 9.75019 12.4249 9.75019ZM12.5749 12.2251V13.0501C12.5749 13.1251 12.5249 13.1751 12.4499 13.1751H11.6249C11.5499 13.1751 11.4998 13.1251 11.4998 13.0501V12.2251C11.4998 12.1501 11.5499 12.1001 11.6249 12.1001H12.4499C12.4999 12.0751 12.5749 12.1501 12.5749 12.2251ZM9.27499 8.77523C9.27499 8.70024 9.32504 8.65019 9.40003 8.65019H10.225C10.3 8.65019 10.3501 8.70024 10.3501 8.77523V9.60023C10.3501 9.67522 10.3 9.72527 10.225 9.72527H9.40003C9.32504 9.72527 9.27499 9.67522 9.27499 9.60023V8.77523ZM9.27499 13.0501V12.2251C9.27499 12.1502 9.32504 12.1001 9.40003 12.1001H10.225C10.3 12.1001 10.3501 12.1502 10.3501 12.2251V13.0501C10.3501 13.1251 10.3 13.1752 10.225 13.1752H9.40003C9.32487 13.1752 9.27499 13.1251 9.27499 13.0501ZM11.8249 19.6502H9.6499V15.8252C9.6499 15.6501 9.77494 15.5001 9.94985 15.5001H11.5C11.6751 15.5001 11.825 15.6501 11.825 15.8252L11.8249 19.6502ZM14.3749 19.6502H12.1999V15.8252C12.1999 15.6501 12.325 15.5001 12.4999 15.5001H14.0249C14.2 15.5001 14.3499 15.6501 14.3499 15.8252V19.6502H14.3749ZM14.7749 13.0501C14.7749 13.1251 14.7249 13.1752 14.6499 13.1752H13.8249C13.7499 13.1752 13.6999 13.1251 13.6999 13.0501V12.2251C13.6999 12.1502 13.7499 12.1001 13.8249 12.1001H14.6499C14.7249 12.1001 14.7749 12.1502 14.7749 12.2251V13.0501ZM14.7749 9.62519C14.7749 9.70017 14.7249 9.75022 14.6499 9.75022H13.8249C13.7499 9.75022 13.6999 9.70017 13.6999 9.62519V8.80019C13.6999 8.7252 13.7499 8.67515 13.8249 8.67515H14.6499C14.7249 8.67515 14.7749 8.7252 14.7749 8.80019V9.62519ZM18.6999 16.4752C18.6999 16.5502 18.6498 16.6002 18.5748 16.6002H17.7498C17.6748 16.6002 17.6248 16.5502 17.6248 16.4752L17.625 15.6503C17.625 15.5753 17.675 15.5253 17.75 15.5253H18.575C18.65 15.5253 18.7 15.5753 18.7 15.6503L18.6999 16.4752ZM18.6999 13.0502C18.6999 13.1252 18.6498 13.1753 18.5748 13.1753H17.7498C17.6748 13.1753 17.6248 13.1252 17.6248 13.0502V12.2252C17.6248 12.1502 17.6748 12.1002 17.7498 12.1002H18.5748C18.6498 12.1002 18.6999 12.1502 18.6999 12.2252V13.0502ZM18.6999 9.62528C18.6999 9.70026 18.6498 9.75031 18.5748 9.75031H17.7498C17.6748 9.75031 17.6248 9.70026 17.6248 9.62528V8.80027C17.6248 8.72529 17.6748 8.67524 17.7498 8.67524H18.5748C18.6498 8.67524 18.6999 8.72529 18.6999 8.80027V9.62528ZM20.8999 16.4753C20.8999 16.5503 20.8499 16.6003 20.7749 16.6003H19.9499C19.8749 16.6003 19.8248 16.5503 19.8248 16.4753L19.825 15.6504C19.825 15.5754 19.875 15.5254 19.95 15.5254H20.775C20.85 15.5254 20.9001 15.5754 20.9001 15.6504L20.8999 16.4753ZM20.8999 13.0503C20.8999 13.1253 20.8499 13.1754 20.7749 13.1754H19.9499C19.8749 13.1754 19.8248 13.1253 19.8248 13.0503V12.2253C19.8248 12.1503 19.8749 12.1003 19.9499 12.1003H20.7749C20.8499 12.1003 20.8999 12.1503 20.8999 12.2253V13.0503ZM20.8999 9.62536C20.8999 9.70035 20.8499 9.7504 20.7749 9.7504H19.9499C19.8749 9.7504 19.8248 9.70035 19.8248 9.62536V8.80036C19.8248 8.72538 19.8749 8.67533 19.9499 8.67533H20.7749C20.8499 8.67533 20.8999 8.72538 20.8999 8.80036V9.62536Z" fill="black"/>
</svg>
