<svg width="14" height="4" viewBox="0 0 14 4" fill="none" xmlns="http://www.w3.org/2000/svg">
<path d="M8.25 2C8.25 2.24723 8.17669 2.4889 8.03934 2.69446C7.90199 2.90002 7.70676 3.06024 7.47836 3.15485C7.24995 3.24946 6.99861 3.27421 6.75614 3.22598C6.51366 3.17775 6.29093 3.0587 6.11612 2.88388C5.9413 2.70907 5.82225 2.48634 5.77402 2.24386C5.72579 2.00139 5.75054 1.75005 5.84515 1.52165C5.93976 1.29324 6.09998 1.09801 6.30554 0.960663C6.5111 0.823311 6.75277 0.75 7 0.75C7.33152 0.75 7.64946 0.881696 7.88388 1.11612C8.1183 1.35054 8.25 1.66848 8.25 2ZM1.6875 0.75C1.44027 0.75 1.1986 0.823311 0.993038 0.960663C0.787477 1.09801 0.627261 1.29324 0.532651 1.52165C0.438042 1.75005 0.413287 2.00139 0.461519 2.24386C0.50975 2.48634 0.628801 2.70907 0.803617 2.88388C0.978433 3.0587 1.20116 3.17775 1.44364 3.22598C1.68611 3.27421 1.93745 3.24946 2.16585 3.15485C2.39426 3.06024 2.58949 2.90002 2.72684 2.69446C2.86419 2.4889 2.9375 2.24723 2.9375 2C2.9375 1.66848 2.8058 1.35054 2.57138 1.11612C2.33696 0.881696 2.01902 0.75 1.6875 0.75ZM12.3125 0.75C12.0653 0.75 11.8236 0.823311 11.618 0.960663C11.4125 1.09801 11.2523 1.29324 11.1577 1.52165C11.063 1.75005 11.0383 2.00139 11.0865 2.24386C11.1348 2.48634 11.2538 2.70907 11.4286 2.88388C11.6034 3.0587 11.8262 3.17775 12.0686 3.22598C12.3111 3.27421 12.5624 3.24946 12.7909 3.15485C13.0193 3.06024 13.2145 2.90002 13.3518 2.69446C13.4892 2.4889 13.5625 2.24723 13.5625 2C13.5625 1.66848 13.4308 1.35054 13.1964 1.11612C12.962 0.881696 12.644 0.75 12.3125 0.75Z" fill="#6A6D81"/>
</svg>
