<svg width="24" height="24" viewBox="0 0 24 24" fill="none" xmlns="http://www.w3.org/2000/svg">
<path d="M12 2.00009C9.3478 2.00009 6.80433 3.05361 4.92889 4.92897C3.05352 6.80433 2 9.34802 2 12C2 14.6521 3.05352 17.1957 4.92889 19.0711C6.80425 20.9465 9.34793 22 12 22C14.652 22 17.1956 20.9465 19.071 19.0711C20.9464 17.1958 21.9999 14.6521 21.9999 12C21.9969 9.34874 20.9422 6.80699 19.0675 4.9324C17.1928 3.05772 14.651 2.003 11.9999 2L12 2.00009ZM7.14634 11.1467L8.04283 10.2503L7.14634 9.35376C6.95532 9.15772 6.95733 8.84465 7.15086 8.65111C7.34439 8.45756 7.65743 8.45557 7.85351 8.64659L8.75 9.54308L9.6465 8.64659C9.84237 8.45557 10.1556 8.45758 10.349 8.65111C10.5425 8.84464 10.5445 9.15769 10.3535 9.35376L9.457 10.2503L10.3535 11.1467C10.4493 11.24 10.5037 11.3679 10.5045 11.5015C10.5053 11.6353 10.4526 11.7637 10.358 11.8582C10.2634 11.9528 10.135 12.0056 10.0013 12.0047C9.86766 12.0039 9.73976 11.9495 9.64651 11.8537L8.75002 10.9572L7.85352 11.8537C7.65748 12.0447 7.34442 12.0427 7.15087 11.8492C6.95735 11.6559 6.95534 11.3426 7.14635 11.1467L7.14634 11.1467ZM15.9999 17.0002C15.7186 17.0002 15.5984 17.1087 15.3533 17.3538L15.3535 17.3536C15.023 17.7626 14.5256 18.0002 13.9999 18.0002C13.4743 18.0002 12.9767 17.7626 12.6464 17.3536C12.4013 17.1086 12.2811 17.0002 11.9999 17.0002C11.7186 17.0002 11.5984 17.1087 11.3533 17.3538V17.3536C11.023 17.7626 10.5255 18.0002 9.99979 18.0002C9.4741 18.0002 8.97674 17.7626 8.64626 17.3536C8.40117 17.1086 8.28114 17.0002 7.99988 17.0002C7.72365 17.0002 7.49982 16.7762 7.49982 16.5002C7.49982 16.2241 7.72365 16.0001 7.99988 16.0001C8.52403 16.0061 9.01925 16.2427 9.35341 16.6467C9.59851 16.8918 9.71854 17.0002 9.99979 17.0002C10.281 17.0002 10.4012 16.8918 10.6463 16.6467C10.9766 16.2378 11.4742 16.0001 11.9999 16.0001C12.5256 16.0001 13.0231 16.2378 13.3534 16.6467C13.5985 16.8918 13.7187 17.0002 13.9999 17.0002C14.2812 17.0002 14.4014 16.8918 14.6465 16.6467H14.6463C14.9805 16.2427 15.4757 16.0062 15.9999 16.0001C16.2761 16.0001 16.4999 16.2241 16.4999 16.5002C16.4999 16.7762 16.2761 17.0002 15.9999 17.0002ZM16.8533 11.1467H16.8535C16.9492 11.24 17.0035 11.3679 17.0043 11.5015C17.0052 11.6353 16.9524 11.7637 16.858 11.8582C16.7634 11.9528 16.6348 12.0056 16.5013 12.0047C16.3675 12.0039 16.2397 11.9495 16.1463 11.8537L15.2498 10.9572L14.3533 11.8537C14.1575 12.0447 13.8442 12.0427 13.6509 11.8492C13.4573 11.6559 13.4553 11.3426 13.6463 11.1467L14.5428 10.2502L13.6463 9.35374C13.4553 9.1577 13.4573 8.84464 13.6509 8.65109C13.8442 8.45757 14.1574 8.45556 14.3533 8.64657L15.2498 9.54307L16.1463 8.64657C16.2398 8.55081 16.3675 8.49657 16.5013 8.49574C16.6348 8.4949 16.7634 8.54763 16.858 8.64206C16.9524 8.73664 17.0052 8.86522 17.0043 8.99881C17.0035 9.13257 16.9492 9.26031 16.8535 9.35372L15.957 10.2502L16.8533 11.1467Z" fill="black"/>
</svg>
