<svg width="30" height="30" viewBox="0 0 30 30" fill="none" xmlns="http://www.w3.org/2000/svg">
<rect width="30" height="30" rx="15" fill="white"/>
<path d="M18.7491 17.4973C18.3322 17.4966 17.9195 17.58 17.5356 17.7424C17.1517 17.9048 16.8045 18.143 16.5147 18.4426L12.9132 16.1301C13.1943 15.401 13.1943 14.5935 12.9132 13.8645L16.5147 11.552C17.0214 12.0701 17.6924 12.3961 18.4129 12.4741C19.1334 12.552 19.8586 12.3771 20.4644 11.9794C21.0702 11.5816 21.5188 10.9856 21.7337 10.2935C21.9485 9.60133 21.916 8.85604 21.6419 8.18518C21.3678 7.51431 20.869 6.95957 20.231 6.61591C19.593 6.27224 18.8553 6.16102 18.1443 6.30128C17.4333 6.44153 16.7931 6.82454 16.3334 7.38476C15.8737 7.94498 15.6229 8.64757 15.6241 9.37227C15.6253 9.75952 15.6968 10.1433 15.835 10.5051L12.2335 12.8176C11.7999 12.3721 11.2432 12.0661 10.6348 11.9386C10.0263 11.8112 9.39369 11.8681 8.81776 12.1021C8.24183 12.3362 7.74879 12.7366 7.40167 13.2524C7.05455 13.7681 6.86914 14.3756 6.86914 14.9973C6.86914 15.6189 7.05455 16.2265 7.40167 16.7422C7.74879 17.2579 8.24183 17.6584 8.81776 17.8924C9.39369 18.1264 10.0263 18.1833 10.6348 18.0559C11.2432 17.9285 11.7999 17.6224 12.2335 17.177L15.835 19.4895C15.6968 19.8512 15.6253 20.235 15.6241 20.6223C15.6241 21.2403 15.8074 21.8445 16.1508 22.3584C16.4941 22.8723 16.9822 23.2729 17.5532 23.5094C18.1242 23.7459 18.7526 23.8078 19.3588 23.6872C19.9649 23.5666 20.5218 23.269 20.9588 22.832C21.3958 22.3949 21.6935 21.8381 21.814 21.2319C21.9346 20.6257 21.8727 19.9974 21.6362 19.4264C21.3997 18.8554 20.9992 18.3673 20.4852 18.0239C19.9713 17.6805 19.3672 17.4973 18.7491 17.4973Z" fill="#358888"/>
</svg>
