<svg width="24" height="24" viewBox="0 0 24 24" fill="none" xmlns="http://www.w3.org/2000/svg">
<path d="M9.45736 12.9219C9.26059 12.5102 8.99322 12.2446 8.77619 12.2446C8.55367 12.2446 8.27333 12.5317 8.07778 12.9593C8.04572 13.0291 7.98945 13.086 7.92057 13.1196C7.85407 13.2999 7.80939 13.4821 7.78467 13.6554H9.74759C9.72048 13.4642 9.66865 13.2608 9.5926 13.0664C9.5336 13.0333 9.48654 12.983 9.45738 12.9218L9.45736 12.9219Z" fill="black"/>
<path d="M7.26615 13.6552C7.29446 13.4121 7.35789 13.1534 7.45337 12.9026C7.43411 12.8286 7.44058 12.7513 7.47298 12.6816C7.61041 12.3812 7.78535 12.1235 7.97854 11.9375C8.08494 11.835 8.19884 11.753 8.31837 11.6928C8.36219 11.5908 8.43602 11.5049 8.52759 11.4503C8.57568 11.1791 8.72777 10.8917 8.94926 10.6569C9.25414 10.3328 9.63746 10.1544 10.0279 10.1544H10.1053V10.1561C10.2407 10.1636 10.3481 10.2745 10.3481 10.4116C10.3481 10.5487 10.2409 10.6597 10.1053 10.6673V10.6684H10.0953C10.0937 10.6684 10.092 10.6689 10.0907 10.6689C10.0891 10.6689 10.0874 10.6684 10.0861 10.6684L10.0274 10.6682C9.54637 10.6682 9.14792 11.1238 9.04714 11.4778C9.11636 11.5289 9.17212 11.5983 9.20912 11.6791C9.54076 11.8357 9.83385 12.1653 10.0581 12.6345C10.0958 12.7133 10.1004 12.8025 10.0729 12.8842C10.171 13.1363 10.2375 13.4053 10.2668 13.6556H18.4639C18.5125 13.6556 18.5604 13.66 18.6077 13.6658C18.3366 12.7653 17.9846 12.1871 17.6351 11.8144C17.0436 11.184 16.4581 11.134 16.2793 11.0926C16.2451 11.0853 16.2117 11.0778 16.1774 11.0718C16.0681 10.9704 15.9813 10.829 15.9143 10.6599C15.7462 10.2363 15.6965 9.63373 15.7012 9.03523C15.7035 8.77043 15.7165 8.50649 15.7354 8.25891C15.7925 8.25379 15.8493 8.24595 15.9036 8.23282C16.3682 8.11772 16.7116 7.7211 16.7116 7.24898V6.44947C16.7116 5.97648 16.3684 5.58004 15.9036 5.46581V4.39707C15.9036 2.52314 14.2811 1 12.2879 1C10.2939 1 8.67239 2.52319 8.67239 4.39707V5.47026C8.21851 5.592 7.88533 5.98385 7.88533 6.44952V7.24902C7.88533 7.71469 8.21833 8.10636 8.67239 8.22758C8.73258 8.24378 8.79516 8.25333 8.85859 8.25964C8.87717 8.50773 8.8903 8.77153 8.89286 9.03649C8.89849 9.63515 8.8487 10.2372 8.67989 10.6616C8.61237 10.8306 8.52661 10.9723 8.4168 11.0725C8.38167 11.0792 8.34859 11.0865 8.31552 11.0944C8.13614 11.136 7.55093 11.1852 6.95964 11.8155C6.60958 12.1887 6.25817 12.7673 5.98706 13.6663C6.03498 13.66 6.08357 13.6556 6.13302 13.6556L7.26615 13.6552ZM12.2964 13.3988C12.2964 13.3988 10.3688 11.576 10.0534 11.1731C9.98688 11.0868 9.9451 10.9966 9.93384 10.9023V10.9022C9.94919 10.8965 9.98517 10.8841 10.0331 10.8621C10.0527 10.8537 10.0738 10.843 10.0958 10.8307C10.2865 10.731 10.5669 10.5223 10.5669 10.1551H10.5671C10.8676 10.4527 11.2026 10.6895 11.56 10.8307C11.8001 10.9264 12.0509 10.9789 12.3085 10.9789C12.5663 10.9789 12.8167 10.926 13.0572 10.8307C13.4112 10.6907 13.7423 10.4576 14.0419 10.1632C14.0441 10.1644 14.0464 10.1654 14.0481 10.1666C14.0498 10.2849 14.0811 10.3865 14.1282 10.4731C14.2709 10.7332 14.5622 10.8588 14.6586 10.8948C14.6588 10.8964 14.6586 10.8993 14.658 10.9023C14.6469 10.9959 14.6049 11.0868 14.5383 11.1731C14.2233 11.5753 12.2964 13.3988 12.2964 13.3988L12.2964 13.3988ZM15.6534 11.0426C15.7223 11.1905 15.7706 11.3448 15.7965 11.5015C15.8415 11.5167 15.8828 11.5342 15.9218 11.5555C16.3408 11.7794 16.499 12.3025 16.2751 12.7213C16.1251 13.0025 15.8333 13.1768 15.515 13.1768C15.3745 13.1768 15.2342 13.1416 15.109 13.0746C14.9061 12.9665 14.7578 12.7853 14.6911 12.565C14.6246 12.3447 14.6473 12.1117 14.7559 11.9088C14.8636 11.7075 15.0475 11.5593 15.2676 11.4935C15.191 11.1941 14.9859 10.8355 14.6251 10.7168L14.5404 10.689C14.5329 10.6866 14.525 10.6846 14.5173 10.6815L14.4899 10.6725L14.4914 10.6674C14.414 10.6227 14.3612 10.5398 14.3612 10.4437C14.3612 10.3011 14.4771 10.185 14.62 10.185C14.63 10.185 14.6393 10.1867 14.6486 10.1879L14.6503 10.184L14.6684 10.1898C14.6894 10.1939 14.7092 10.2005 14.7281 10.2094L14.7861 10.2281C15.1564 10.3507 15.4647 10.6401 15.6534 11.0426L15.6534 11.0426ZM12.2876 1.70925C13.4263 1.70925 14.4084 2.33895 14.8686 3.24553C14.8521 3.22541 14.8352 3.20478 14.818 3.18568C14.8004 3.1671 14.7832 3.14971 14.7661 3.13061C14.7353 3.09753 14.7037 3.06616 14.672 3.03547C14.6544 3.01807 14.637 3.00153 14.6195 2.98534C14.5861 2.95499 14.5532 2.92685 14.5196 2.89889C14.5032 2.88525 14.4868 2.87126 14.4706 2.85848C14.4283 2.82506 14.3854 2.793 14.3422 2.76282C14.3356 2.75736 14.3277 2.75157 14.3214 2.74713C14.2716 2.71218 14.2205 2.68012 14.1699 2.64977C14.1552 2.64125 14.1405 2.6334 14.126 2.62505C14.0901 2.60373 14.0537 2.58429 14.0188 2.56622C13.9997 2.55616 13.9816 2.54746 13.963 2.53843C13.9299 2.52274 13.8986 2.50756 13.8665 2.49324C13.8474 2.48522 13.8292 2.47738 13.8106 2.46937C13.7775 2.45538 13.7458 2.44328 13.7131 2.43117C13.6965 2.42486 13.6786 2.41804 13.6629 2.4119C13.6251 2.39826 13.5864 2.38599 13.5497 2.37473C13.5395 2.37183 13.5284 2.36791 13.5187 2.36501C13.472 2.35103 13.4263 2.33893 13.3812 2.32767C13.3659 2.32392 13.3524 2.32136 13.3378 2.31812C13.3072 2.3113 13.2767 2.30397 13.2471 2.298C13.23 2.29459 13.2126 2.29135 13.1962 2.28845C13.1703 2.28351 13.1442 2.27942 13.1197 2.2755C13.1023 2.27277 13.0854 2.27038 13.0702 2.26833C13.0459 2.26492 13.0213 2.26203 12.9976 2.25947C12.9819 2.25793 12.9671 2.25572 12.9524 2.25435C12.9272 2.25248 12.9035 2.24975 12.8798 2.24856C12.8673 2.24787 12.855 2.24634 12.8441 2.24583C12.8111 2.24361 12.7809 2.2431 12.751 2.24139C12.7374 2.24122 12.7256 2.24122 12.712 2.24122C12.6973 2.24122 12.6816 2.24105 12.6675 2.24105C12.5947 2.24105 12.5365 2.24378 12.4951 2.24736C12.4895 2.24736 12.4856 2.24753 12.4811 2.24838C12.4663 2.24941 12.4545 2.2506 12.446 2.25128C12.4428 2.25145 12.4388 2.25179 12.4368 2.25248C12.4284 2.25265 12.4237 2.25367 12.4237 2.25367C12.3814 2.25094 12.3391 2.24907 12.2975 2.24753C12.2559 2.24873 12.2141 2.25094 12.1713 2.25299C12.1713 2.25299 12.1662 2.25282 12.1583 2.2518C12.1556 2.25162 12.1517 2.25128 12.1493 2.25111C12.141 2.25009 12.1285 2.2489 12.1142 2.2477C12.1103 2.24753 12.1057 2.24753 12.1002 2.24719C12.0586 2.24344 12.0008 2.24088 11.9278 2.24088H11.8814C11.8687 2.24088 11.8577 2.24088 11.8448 2.24105C11.8149 2.24208 11.7832 2.24344 11.7505 2.24549C11.7408 2.246 11.73 2.24702 11.7196 2.24787C11.6949 2.24941 11.6695 2.25162 11.6426 2.25452C11.6286 2.25521 11.6144 2.25725 11.6008 2.25913C11.5755 2.26186 11.5505 2.26527 11.5241 2.26868C11.5089 2.27055 11.4937 2.27328 11.478 2.27533C11.4504 2.27942 11.4229 2.28419 11.3946 2.28948C11.3798 2.29221 11.3646 2.29459 11.3494 2.29732C11.3164 2.30397 11.284 2.31147 11.2492 2.31881C11.2378 2.32153 11.2267 2.32426 11.2142 2.32682C11.1679 2.33756 11.1208 2.35001 11.0734 2.36467C11.0659 2.36638 11.0582 2.36962 11.0504 2.37183C11.011 2.38428 10.9707 2.39724 10.9298 2.41139C10.9145 2.41685 10.8988 2.42282 10.8829 2.42895C10.849 2.44174 10.8154 2.45487 10.781 2.46937C10.7636 2.47619 10.746 2.48403 10.7291 2.49187C10.6952 2.50603 10.6616 2.52274 10.6272 2.5391C10.6103 2.54746 10.5929 2.55547 10.576 2.56451C10.5388 2.58378 10.5003 2.60509 10.4623 2.62709C10.4498 2.63459 10.4369 2.64107 10.4241 2.64891C10.3733 2.67943 10.322 2.712 10.2703 2.74747C10.2653 2.75088 10.2607 2.75463 10.2563 2.7577C10.2108 2.78941 10.1656 2.82317 10.1206 2.85898C10.1054 2.87074 10.0902 2.88387 10.0751 2.89581C10.0401 2.92463 10.0058 2.95464 9.97172 2.9855C9.95433 3.0017 9.93745 3.01807 9.92091 3.03358C9.88783 3.06496 9.85594 3.0977 9.82389 3.13163C9.80752 3.14902 9.79115 3.16641 9.77495 3.18363C9.74238 3.21927 9.71066 3.25746 9.67912 3.29583C10.1288 2.3621 11.1278 1.70922 12.2876 1.70922L12.2876 1.70925ZM9.42642 6.8347C9.4479 6.77111 9.47757 6.722 9.51491 6.6954C9.53077 6.68414 9.54799 6.67664 9.56624 6.67357C9.60733 6.66641 9.65081 6.6821 9.69309 6.71637C9.69309 6.71637 9.69309 6.71347 9.69412 6.70682C9.69872 6.66283 9.71987 6.47953 9.78244 6.25037C9.78346 6.24798 9.78398 6.24542 9.78466 6.24304C9.79352 6.21132 9.80324 6.17875 9.81347 6.1455C9.8798 5.93561 9.97938 5.70166 10.1301 5.50559C10.1436 5.48853 10.1571 5.47217 10.1709 5.45597C10.1755 5.45034 10.1797 5.44471 10.1845 5.43909C10.392 5.20174 10.6844 5.03771 11.0961 5.0759L14.7573 6.96038L15.0548 6.6741C15.0645 6.6758 15.0751 6.67921 15.0841 6.68365C15.1085 6.69507 15.1302 6.71502 15.1489 6.74213V7.62571C15.0952 7.78565 15.0222 7.91199 14.946 7.9773C14.9013 8.01413 14.856 8.03186 14.813 8.02453C14.7888 8.02044 14.7658 8.00867 14.7463 7.98957C14.6804 8.19419 14.5975 8.39778 14.5012 8.5961C14.0948 8.78843 13.6002 8.92092 13.0619 8.96713C12.9778 8.83737 12.8325 8.75109 12.6661 8.75109H12.0388C11.7777 8.75109 11.5665 8.96235 11.5665 9.22304C11.5665 9.48359 11.7774 9.69499 12.0388 9.69499H12.6661C12.848 9.69499 13.0042 9.59115 13.0832 9.44025C13.4476 9.41161 13.792 9.34852 14.1086 9.25593C13.9134 9.52807 13.691 9.77122 13.4463 9.96067C13.1024 10.2255 12.7173 10.3875 12.3097 10.3875C11.9 10.3875 11.5124 10.2234 11.167 9.95521C10.5811 9.50011 10.1163 8.74579 9.87328 7.98941C9.85316 8.00782 9.83168 8.01976 9.80695 8.02436C9.75717 8.03323 9.70363 8.00799 9.65299 7.95718C9.56057 7.86459 9.47549 7.68607 9.42689 7.46951V6.8347L9.42642 6.8347Z" fill="black"/>
<path d="M15.9814 12.3151C15.9814 12.5724 15.7729 12.781 15.5156 12.781C15.2583 12.781 15.0496 12.5724 15.0496 12.3151C15.0496 12.0578 15.2583 11.8491 15.5156 11.8491C15.7729 11.8491 15.9814 12.0578 15.9814 12.3151Z" fill="black"/>
<path d="M17.8876 22.5342H6.70826C6.57969 22.5342 6.47534 22.6385 6.47534 22.7671C6.47534 22.8957 6.57969 23 6.70826 23H17.8876C18.0162 23 18.1205 22.8957 18.1205 22.7671C18.1207 22.6385 18.0165 22.5342 17.8878 22.5342H17.8876Z" fill="black"/>
<path d="M18.6074 14.1319C18.5602 14.1257 18.5123 14.1216 18.4637 14.1216H6.13237C6.08276 14.1216 6.03433 14.1257 5.98642 14.1322C5.43105 14.204 5 14.6792 5 15.2545V15.2809L5.0046 15.307L6.02782 21.2426C6.04299 21.8538 6.54499 22.3465 7.16003 22.3465H17.4354C18.0506 22.3465 18.5522 21.8538 18.5679 21.2426L19.5913 15.307L19.5959 15.2809V15.2545C19.5959 14.6785 19.1638 14.2028 18.6071 14.1319L18.6074 14.1319ZM12.2982 18.7213C12.0287 18.7213 11.8105 18.5036 11.8105 18.2338C11.8105 17.9647 12.0291 17.7472 12.2982 17.7472C12.5672 17.7472 12.7856 17.9649 12.7856 18.2338C12.7856 18.5036 12.5676 18.7213 12.2982 18.7213Z" fill="black"/>
</svg>
