<svg width="16" height="17" viewBox="0 0 16 17" fill="none" xmlns="http://www.w3.org/2000/svg">
<path d="M14.645 13.6249C13.7881 12.121 12.45 10.9491 10.8462 10.298C11.6438 9.69988 12.2329 8.86594 12.5302 7.91434C12.8274 6.96275 12.8177 5.94175 12.5025 4.99597C12.1872 4.05018 11.5824 3.22757 10.7736 2.64465C9.96486 2.06172 8.99319 1.74805 7.99624 1.74805C6.9993 1.74805 6.02763 2.06172 5.21887 2.64465C4.41011 3.22757 3.80526 4.05018 3.49 4.99597C3.17474 5.94175 3.16505 6.96275 3.4623 7.91434C3.75956 8.86594 4.34869 9.69988 5.14624 10.298C3.54244 10.9491 2.2044 12.121 1.34749 13.6249C1.2944 13.7103 1.25901 13.8055 1.24343 13.9048C1.22785 14.0041 1.23241 14.1056 1.25682 14.2031C1.28123 14.3006 1.325 14.3923 1.38554 14.4725C1.44607 14.5528 1.52212 14.6201 1.60918 14.6704C1.69623 14.7207 1.79251 14.753 1.89229 14.7653C1.99207 14.7777 2.09332 14.7698 2.19001 14.7423C2.28669 14.7147 2.37685 14.668 2.45512 14.6049C2.53339 14.5418 2.59817 14.4636 2.64562 14.3749C3.77812 12.4174 5.77812 11.2499 7.99624 11.2499C10.2144 11.2499 12.2144 12.418 13.3469 14.3749C13.4497 14.5403 13.6128 14.6591 13.8016 14.7064C13.9905 14.7537 14.1904 14.7256 14.3589 14.6282C14.5275 14.5308 14.6516 14.3717 14.705 14.1845C14.7584 13.9972 14.7369 13.7966 14.645 13.6249ZM4.74624 6.49992C4.74624 5.85713 4.93685 5.22878 5.29397 4.69432C5.65108 4.15986 6.15866 3.7433 6.75252 3.49731C7.34638 3.25133 7.99985 3.18697 8.63029 3.31237C9.26073 3.43777 9.83982 3.7473 10.2943 4.20182C10.7489 4.65635 11.0584 5.23544 11.1838 5.86588C11.3092 6.49632 11.2448 7.14978 10.9989 7.74364C10.7529 8.3375 10.3363 8.84508 9.80185 9.2022C9.26739 9.55931 8.63903 9.74992 7.99624 9.74992C7.13459 9.74893 6.30852 9.4062 5.69924 8.79692C5.08996 8.18764 4.74724 7.36157 4.74624 6.49992Z" fill="#6A6D81"/>
</svg>
