<svg width="16" height="16" viewBox="0 0 16 16" fill="none" xmlns="http://www.w3.org/2000/svg">
<path d="M15.8406 4.80312C15.8406 4.80312 15.6844 3.7 15.2031 3.21562C14.5938 2.57813 13.9125 2.575 13.6 2.5375C11.3625 2.375 8.00313 2.375 8.00313 2.375H7.99687C7.99687 2.375 4.6375 2.375 2.4 2.5375C2.0875 2.575 1.40625 2.57813 0.796875 3.21562C0.315625 3.7 0.1625 4.80312 0.1625 4.80312C0.1625 4.80312 0 6.1 0 7.39375V8.60625C0 9.9 0.159375 11.1969 0.159375 11.1969C0.159375 11.1969 0.315625 12.3 0.79375 12.7844C1.40313 13.4219 2.20313 13.4 2.55938 13.4687C3.84063 13.5906 8 13.6281 8 13.6281C8 13.6281 11.3625 13.6219 13.6 13.4625C13.9125 13.425 14.5938 13.4219 15.2031 12.7844C15.6844 12.3 15.8406 11.1969 15.8406 11.1969C15.8406 11.1969 16 9.90312 16 8.60625V7.39375C16 6.1 15.8406 4.80312 15.8406 4.80312ZM6.34688 10.0781V5.58125L10.6687 7.8375L6.34688 10.0781Z" fill="#2A2536"/>
</svg>
