<svg width="63" height="63" viewBox="0 0 63 63" fill="none" xmlns="http://www.w3.org/2000/svg">
<ellipse cx="31.5" cy="31.5" rx="31" ry="31" fill="url(#paint0_linear_7769_39227)"/>
<path opacity="0.2" d="M42.5765 31.5C42.5765 33.6897 41.9271 35.8303 40.7106 37.651C39.494 39.4717 37.7649 40.8907 35.7419 41.7287C33.7188 42.5667 31.4927 42.7859 29.3451 42.3587C27.1975 41.9315 25.2247 40.8771 23.6763 39.3287C22.128 37.7803 21.0735 35.8076 20.6463 33.6599C20.2191 31.5123 20.4384 29.2862 21.2764 27.2632C22.1143 25.2401 23.5334 23.511 25.3541 22.2945C27.1748 21.0779 29.3153 20.4286 31.505 20.4286C34.4414 20.4286 37.2574 21.595 39.3337 23.6713C41.41 25.7476 42.5765 28.5637 42.5765 31.5Z" fill="#6A6D81"/>
<path d="M31.5019 19.506C29.1297 19.506 26.8107 20.2094 24.8383 21.5273C22.8659 22.8453 21.3286 24.7185 20.4208 26.9101C19.513 29.1017 19.2755 31.5133 19.7383 33.84C20.2011 36.1666 21.3434 38.3037 23.0208 39.9811C24.6982 41.6585 26.8353 42.8008 29.1619 43.2636C31.4886 43.7264 33.9002 43.4889 36.0918 42.5811C38.2834 41.6733 40.1566 40.136 41.4746 38.1636C42.7925 36.1912 43.4959 33.8722 43.4959 31.5C43.4926 28.32 42.2278 25.2713 39.9792 23.0227C37.7306 20.7741 34.6819 19.5093 31.5019 19.506ZM31.5019 41.6488C29.4946 41.6488 27.5325 41.0536 25.8635 39.9385C24.1945 38.8233 22.8937 37.2383 22.1256 35.3838C21.3574 33.5294 21.1565 31.4888 21.5481 29.5201C21.9397 27.5514 22.9062 25.7431 24.3256 24.3237C25.7449 22.9044 27.5533 21.9378 29.5219 21.5462C31.4906 21.1546 33.5312 21.3556 35.3856 22.1238C37.2401 22.8919 38.8251 24.1927 39.9403 25.8617C41.0555 27.5306 41.6507 29.4928 41.6507 31.5C41.6476 34.1907 40.5774 36.7703 38.6748 38.673C36.7722 40.5756 34.1926 41.6458 31.5019 41.6488ZM38.8828 31.5C38.8828 31.7447 38.7856 31.9794 38.6126 32.1524C38.4396 32.3254 38.2049 32.4226 37.9602 32.4226H31.5019C31.2572 32.4226 31.0225 32.3254 30.8495 32.1524C30.6765 31.9794 30.5792 31.7447 30.5792 31.5V25.0417C30.5792 24.797 30.6765 24.5623 30.8495 24.3893C31.0225 24.2163 31.2572 24.1191 31.5019 24.1191C31.7466 24.1191 31.9812 24.2163 32.1543 24.3893C32.3273 24.5623 32.4245 24.797 32.4245 25.0417V30.5774H37.9602C38.2049 30.5774 38.4396 30.6746 38.6126 30.8476C38.7856 31.0207 38.8828 31.2553 38.8828 31.5Z" fill="#6A6D81"/>
<defs>
<linearGradient id="paint0_linear_7769_39227" x1="31.5" y1="0.5" x2="31.5" y2="62.5" gradientUnits="userSpaceOnUse">
<stop stop-color="#F0F2F9" stop-opacity="0"/>
<stop offset="1" stop-color="#F0F2F9"/>
</linearGradient>
</defs>
</svg>
