<svg width="66" height="66" viewBox="0 0 66 66" fill="none" xmlns="http://www.w3.org/2000/svg">
<rect x="5" y="5" width="56" height="56" rx="28" fill="#D1FADF"/>
<path d="M44.6654 31.9267V33C44.6639 35.5158 43.8493 37.9638 42.3429 39.9788C40.8366 41.9938 38.7192 43.4679 36.3066 44.1812C33.894 44.8945 31.3155 44.8089 28.9556 43.937C26.5957 43.0652 24.5808 41.4538 23.2115 39.3433C21.8422 37.2327 21.1918 34.7361 21.3573 32.2257C21.5229 29.7153 22.4954 27.3257 24.13 25.4133C25.7646 23.5008 27.9736 22.168 30.4276 21.6135C32.8816 21.0591 35.449 21.3127 37.747 22.3367M44.6654 23.6667L32.9987 35.345L29.4987 31.845" stroke="#039855" stroke-width="2.33333" stroke-linecap="round" stroke-linejoin="round"/>
<rect x="5" y="5" width="56" height="56" rx="28" stroke="#ECFDF3" stroke-width="10"/>
</svg>
