<svg width="200" height="200" viewBox="0 0 200 200" fill="none" xmlns="http://www.w3.org/2000/svg">
<circle cx="100" cy="100" r="95.0256" transform="rotate(176.916 100 100)" fill="url(#paint0_linear_7082_55348)"/>
<path opacity="0.1" d="M138.285 162.724H59.9792C57.6026 162.724 55.6758 160.797 55.6758 158.42V54.7695C55.6758 52.3929 57.6026 50.4661 59.9792 50.4661H138.286C140.662 50.4661 142.589 52.3929 142.589 54.7695V158.42C142.589 160.797 140.662 162.724 138.285 162.724Z" fill="#358888"/>
<path d="M138.285 155.551H59.9792C57.6026 155.551 55.6758 153.624 55.6758 151.248V47.5969C55.6758 45.2203 57.6026 43.2935 59.9792 43.2935H138.286C140.662 43.2935 142.589 45.2203 142.589 47.5969V151.248C142.589 153.624 140.662 155.551 138.285 155.551Z" fill="#358888"/>
<path d="M138.286 156.985H59.9801C56.8162 156.985 54.2422 154.411 54.2422 151.248V47.5968C54.2422 44.4329 56.8162 41.8589 59.9801 41.8589H91.8428C92.6349 41.8589 93.2773 42.501 93.2773 43.2934C93.2773 44.0858 92.6349 44.7278 91.8428 44.7278H59.9801C58.3982 44.7278 57.1111 46.0149 57.1111 47.5968V151.248C57.1111 152.829 58.3982 154.117 59.9801 154.117H138.286C139.868 154.117 141.155 152.829 141.155 151.248V96.3253C141.155 95.5329 141.797 94.8908 142.59 94.8908C143.382 94.8908 144.024 95.5329 144.024 96.3253V151.248C144.024 154.411 141.45 156.985 138.286 156.985Z" fill="#358888"/>
<path d="M142.59 89.4105C141.798 89.4105 141.156 88.7684 141.156 87.976V47.5968C141.156 46.0149 139.869 44.7278 138.287 44.7278H100.192C99.4002 44.7278 98.7578 44.0858 98.7578 43.2934C98.7578 42.501 99.4002 41.8589 100.192 41.8589H138.287C141.451 41.8589 144.025 44.4329 144.025 47.5968V87.976C144.025 88.7684 143.382 89.4105 142.59 89.4105Z" fill="#358888"/>
<path d="M67.4808 147.84H65.6103C64.8179 147.84 64.1758 147.197 64.1758 146.405C64.1758 145.613 64.8179 144.971 65.6103 144.971H67.4808C68.2732 144.971 68.9153 145.613 68.9153 146.405C68.9153 147.197 68.2732 147.84 67.4808 147.84Z" fill="#D8EC9C"/>
<path d="M96.1705 142.668H65.6103C64.8179 142.668 64.1758 142.026 64.1758 141.234C64.1758 140.441 64.8179 139.799 65.6103 139.799H96.1705C96.9629 139.799 97.6049 140.441 97.6049 141.234C97.6049 142.026 96.9629 142.668 96.1705 142.668Z" fill="#F9EEB4"/>
<path d="M77.1214 147.84H75.2509C74.4585 147.84 73.8164 147.197 73.8164 146.405C73.8164 145.613 74.4585 144.971 75.2509 144.971H77.1214C77.9139 144.971 78.5559 145.613 78.5559 146.405C78.5559 147.197 77.9139 147.84 77.1214 147.84Z" fill="#D8EC9C"/>
<path d="M86.7621 147.84H84.8915C84.0991 147.84 83.457 147.197 83.457 146.405C83.457 145.613 84.0991 144.971 84.8915 144.971H86.7621C87.5545 144.971 88.1966 145.613 88.1966 146.405C88.1966 147.197 87.5542 147.84 86.7621 147.84Z" fill="#D8EC9C"/>
<path d="M104.532 142.668H102.661C101.869 142.668 101.227 142.026 101.227 141.234C101.227 140.441 101.869 139.799 102.661 139.799H104.532C105.324 139.799 105.966 140.441 105.966 141.234C105.966 142.026 105.324 142.668 104.532 142.668Z" fill="#B5E4DE"/>
<path d="M132.657 147.857C131.865 147.857 131.223 147.214 131.223 146.422V146.389C131.223 145.597 131.865 144.955 132.657 144.955C133.449 144.955 134.092 145.597 134.092 146.389V146.422C134.092 147.214 133.45 147.857 132.657 147.857Z" fill="#B5E4DE"/>
<path d="M132.657 142.684C131.865 142.684 131.223 142.042 131.223 141.25V141.217C131.223 140.425 131.865 139.782 132.657 139.782C133.449 139.782 134.092 140.425 134.092 141.217V141.25C134.092 142.042 133.45 142.684 132.657 142.684Z" fill="#B5E4DE"/>
<path d="M132.657 137.512C131.865 137.512 131.223 136.87 131.223 136.078V136.045C131.223 135.253 131.865 134.61 132.657 134.61C133.449 134.61 134.092 135.253 134.092 136.045V136.078C134.092 136.87 133.45 137.512 132.657 137.512Z" fill="#B5E4DE"/>
<path d="M132.657 132.34C131.865 132.34 131.223 131.697 131.223 130.905V130.872C131.223 130.08 131.865 129.438 132.657 129.438C133.449 129.438 134.092 130.08 134.092 130.872V130.905C134.092 131.697 133.45 132.34 132.657 132.34Z" fill="#B5E4DE"/>
<path d="M66.5439 69.4078C65.7517 69.4078 65.1094 68.7655 65.1094 67.9733V67.9403C65.1094 67.1482 65.7517 66.5059 66.5439 66.5059C67.336 66.5059 67.9783 67.1482 67.9783 67.9403V67.9733C67.9783 68.7655 67.336 69.4078 66.5439 69.4078Z" fill="#B5E4DE"/>
<path d="M66.5439 64.2355C65.7517 64.2355 65.1094 63.5931 65.1094 62.801V62.768C65.1094 61.9759 65.7517 61.3335 66.5439 61.3335C67.336 61.3335 67.9783 61.9759 67.9783 62.768V62.801C67.9783 63.5934 67.336 64.2355 66.5439 64.2355Z" fill="#B5E4DE"/>
<path d="M66.5439 59.0631C65.7517 59.0631 65.1094 58.4207 65.1094 57.6286V57.5956C65.1094 56.8035 65.7517 56.1611 66.5439 56.1611C67.336 56.1611 67.9783 56.8035 67.9783 57.5956V57.6286C67.9783 58.4207 67.336 59.0631 66.5439 59.0631Z" fill="#B5E4DE"/>
<path d="M66.5439 53.8912C65.7517 53.8912 65.1094 53.2489 65.1094 52.4567V52.4237C65.1094 51.6316 65.7517 50.9893 66.5439 50.9893C67.336 50.9893 67.9783 51.6316 67.9783 52.4237V52.4567C67.9783 53.2489 67.336 53.8912 66.5439 53.8912Z" fill="#B5E4DE"/>
<path d="M128.699 90.7719C127.685 90.2446 126.435 90.6397 125.908 91.6541C125.381 92.6686 125.776 93.9183 126.79 94.4454C127.057 94.5836 127.255 94.7059 127.4 94.8074C126.611 95.3508 124.547 96.2915 120.194 97.1078C115.42 98.0034 109.271 98.4966 102.882 98.4966V92.0062C110.202 92.0062 117.106 91.3994 122.32 90.2977C128.812 88.9258 131.836 87.0059 131.836 84.2554C131.836 83.3732 131.48 82.0741 129.78 80.8967C128.841 80.2457 127.551 80.4795 126.9 81.4191C126.262 82.3395 126.473 83.5952 127.365 84.2582C126.542 84.7985 124.464 85.7105 120.176 86.5012C115.403 87.3814 109.262 87.8663 102.882 87.8663V83.4463C108.875 83.4463 114.532 82.9104 118.811 81.9373C122.253 81.1543 126.829 79.7284 126.829 76.4002C126.829 74.8971 125.869 73.6244 123.974 72.6174C122.965 72.0815 121.711 72.4645 121.174 73.4741C120.638 74.4837 121.021 75.7369 122.031 76.2736C122.125 76.3238 122.209 76.3712 122.282 76.4151C120.348 77.5836 113.706 79.3061 102.882 79.3061V75.3828C109.97 75.3731 121.871 73.9007 121.871 68.4313C121.871 67.1919 121.22 65.4135 118.12 63.9807C117.082 63.5007 115.852 63.9535 115.372 64.9912C114.892 66.0289 115.345 67.2591 116.383 67.7388C117.013 68.0302 117.369 68.2761 117.564 68.4411C116.42 69.4269 111.484 71.2326 102.882 71.2426V70.3116C102.882 68.9366 101.767 67.8217 100.392 67.8217H97.8744C96.4993 67.8217 95.3844 68.9366 95.3844 70.3116V71.2426C86.7818 71.2326 81.8461 69.4266 80.7019 68.4411C80.8967 68.2764 81.2533 68.0302 81.8834 67.7388C82.9211 67.2591 83.3735 66.0289 82.8938 64.9912C82.4141 63.9532 81.1833 63.501 80.1462 63.9807C77.046 65.4138 76.3953 67.1919 76.3953 68.4313C76.3953 73.9007 88.2963 75.3731 95.3844 75.3828V79.3061C84.5601 79.3061 77.9182 77.5836 75.9836 76.4151C76.0574 76.3709 76.1406 76.3236 76.2349 76.2736C77.2445 75.7371 77.6281 74.4837 77.0916 73.4741C76.5548 72.4645 75.3017 72.0812 74.2921 72.6174C72.3971 73.6244 71.4366 74.8971 71.4366 76.4002C71.4366 79.7284 76.0132 81.1543 79.4554 81.9373C83.7338 82.9104 89.3909 83.4463 95.3844 83.4463V87.8663C89.0044 87.8663 82.8625 87.3814 78.0897 86.5012C73.8018 85.7105 71.7244 84.7985 70.9013 84.2582C71.7926 83.5952 72.0038 82.3395 71.366 81.4191C70.7148 80.4795 69.4255 80.2451 68.4856 80.8967C66.7863 82.0741 66.4297 83.3732 66.4297 84.2554C66.4297 87.0059 69.4536 88.9258 75.946 90.2977C81.1604 91.3997 88.0637 92.0062 95.3844 92.0062V98.4966C88.9946 98.4966 82.8465 98.0034 78.0717 97.1078C73.7197 96.2915 71.6552 95.3505 70.866 94.8074C71.0114 94.7059 71.2094 94.5836 71.4756 94.4454C72.4901 93.9183 72.8851 92.6683 72.3578 91.6541C71.8308 90.6397 70.5814 90.2443 69.5666 90.7719C67.4852 91.8535 66.4297 93.21 66.4297 94.8028C66.4297 97.5734 69.4519 99.5114 75.9403 100.903C81.1566 102.021 88.0619 102.637 95.3847 102.637V108.413C89.4032 108.413 83.6139 108.054 79.0827 107.402C76.0903 106.971 74.2488 106.505 73.1367 106.131C74.1176 105.702 74.618 104.583 74.2599 103.554C73.8838 102.475 72.7035 101.904 71.6242 102.28C70.6433 102.622 67.6582 103.661 67.6582 106.134C67.6582 108.622 70.4213 110.152 76.8968 111.25C81.8535 112.091 88.4191 112.553 95.3847 112.553V112.608C95.3847 113.983 96.4996 115.098 97.8747 115.098H100.392C101.767 115.098 102.882 113.983 102.882 112.608V112.553C109.847 112.553 116.413 112.091 121.37 111.25C127.845 110.153 130.608 108.623 130.608 106.134C130.608 103.661 127.623 102.622 126.642 102.28C125.563 101.905 124.383 102.475 124.007 103.554C123.649 104.583 124.149 105.702 125.13 106.131C124.018 106.505 122.176 106.971 119.184 107.402C114.653 108.054 108.863 108.413 102.882 108.413V102.637C110.205 102.637 117.11 102.021 122.326 100.903C128.815 99.5114 131.837 97.5731 131.837 94.8028C131.837 93.2097 130.781 91.8535 128.699 90.7719Z" fill="white"/>
<path d="M94.9991 65.4187H103.265C104.717 65.4187 105.893 64.2421 105.893 62.7907V61.6905C105.893 60.2391 104.717 59.0625 103.265 59.0625H94.9991C93.5477 59.0625 92.3711 60.2391 92.3711 61.6905V62.7907C92.3711 64.2421 93.5477 65.4187 94.9991 65.4187Z" fill="white"/>
<path d="M101.888 117.5H96.3819C94.9305 117.5 93.7539 118.677 93.7539 120.128V121.228C93.7539 122.68 94.9305 123.856 96.3819 123.856H101.888C103.339 123.856 104.516 122.68 104.516 121.228V120.128C104.516 118.677 103.339 117.5 101.888 117.5Z" fill="white"/>
<path d="M101.888 126.259H96.3819C94.9305 126.259 93.7539 127.435 93.7539 128.887V129.987C93.7539 131.438 94.9305 132.615 96.3819 132.615H101.888C103.339 132.615 104.516 131.438 104.516 129.987V128.887C104.516 127.435 103.339 126.259 101.888 126.259Z" fill="white"/>
<path d="M44.7936 61.2143C43.4682 61.2143 42.3934 60.14 42.3934 58.8141C42.3934 57.1379 41.0296 55.7736 39.3533 55.7736C38.0279 55.7736 36.9531 54.6993 36.9531 53.3734C36.9531 52.0475 38.0279 50.9732 39.3533 50.9732C41.0296 50.9732 42.3934 49.6094 42.3934 47.9331C42.3934 46.6073 43.4682 45.533 44.7936 45.533C46.1189 45.533 47.1938 46.6073 47.1938 47.9331C47.1938 49.6094 48.5575 50.9732 50.2338 50.9732C51.5592 50.9732 52.634 52.0475 52.634 53.3734C52.634 54.6993 51.5592 55.7736 50.2338 55.7736C48.5575 55.7736 47.1938 57.1379 47.1938 58.8141C47.1938 60.14 46.1194 61.2143 44.7936 61.2143Z" fill="#D8EC9C"/>
<path d="M154.669 148.321C153.343 148.321 152.268 147.247 152.268 145.921C152.268 144.245 150.905 142.881 149.228 142.881C147.903 142.881 146.828 141.806 146.828 140.48C146.828 139.154 147.903 138.08 149.228 138.08C150.905 138.08 152.268 136.716 152.268 135.04C152.268 133.714 153.343 132.64 154.669 132.64C155.994 132.64 157.069 133.714 157.069 135.04C157.069 136.716 158.433 138.08 160.109 138.08C161.435 138.08 162.51 139.154 162.51 140.48C162.51 141.806 161.435 142.881 160.109 142.881C158.433 142.881 157.069 144.245 157.069 145.921C157.069 147.246 155.994 148.321 154.669 148.321Z" fill="#D8EC9C"/>
<path d="M39.8846 70.5321C38.5592 70.5321 37.4844 69.4577 37.4844 68.1319V68.0603C37.4844 66.7345 38.5592 65.6602 39.8846 65.6602C41.2099 65.6602 42.2847 66.7345 42.2847 68.0603V68.1319C42.2847 69.4577 41.2104 70.5321 39.8846 70.5321Z" fill="#F9EEB4"/>
<path d="M39.8846 83.8695C38.5592 83.8695 37.4844 82.7951 37.4844 81.4693V81.3977C37.4844 80.0719 38.5592 78.9976 39.8846 78.9976C41.2099 78.9976 42.2847 80.0719 42.2847 81.3977V81.4693C42.2847 82.7951 41.2104 83.8695 39.8846 83.8695Z" fill="#F9EEB4"/>
<path d="M34.1364 73.849C33.7284 73.849 33.3151 73.7448 32.9363 73.5254L32.8739 73.4894C31.7266 72.8251 31.3349 71.3571 31.9993 70.2098C32.6632 69.0625 34.1316 68.6703 35.2794 69.3352L35.3418 69.3712C36.4891 70.0356 36.8808 71.5035 36.2164 72.6508C35.7709 73.4198 34.965 73.849 34.1364 73.849Z" fill="#F9EEB4"/>
<path d="M45.6872 80.5177C45.2792 80.5177 44.8654 80.4135 44.4871 80.1941L44.4247 80.1581C43.2774 79.4938 42.8857 78.0258 43.5501 76.8785C44.2144 75.7312 45.6819 75.339 46.8302 76.0039L46.8926 76.0399C48.0399 76.7043 48.4316 78.1722 47.7672 79.3195C47.3217 80.0885 46.5157 80.5177 45.6872 80.5177Z" fill="#F9EEB4"/>
<path d="M34.0788 80.5176C33.2503 80.5176 32.4443 80.0879 31.9993 79.3194C31.3349 78.1721 31.7266 76.7042 32.8739 76.0398L32.9363 76.0038C34.0841 75.3389 35.5525 75.7316 36.2164 76.8784C36.8808 78.0257 36.4891 79.4937 35.3418 80.158L35.2794 80.194C34.9006 80.4134 34.4868 80.5176 34.0788 80.5176Z" fill="#F9EEB4"/>
<path d="M45.6296 73.8489C44.801 73.8489 43.9951 73.4197 43.5501 72.6507C42.8857 71.5034 43.2774 70.0355 44.4247 69.3711L44.4871 69.3351C45.6349 68.6702 47.1028 69.0629 47.7667 70.2097C48.4311 71.357 48.0394 72.825 46.8921 73.4893L46.8297 73.5253C46.4514 73.7452 46.0376 73.8489 45.6296 73.8489Z" fill="#F9EEB4"/>
<circle cx="99.9983" cy="99.9995" r="95.0256" fill="url(#paint1_linear_7082_55348)"/>
<path opacity="0.1" d="M138.285 162.724H59.9792C57.6026 162.724 55.6758 160.797 55.6758 158.42V54.7695C55.6758 52.3929 57.6026 50.4661 59.9792 50.4661H138.286C140.662 50.4661 142.589 52.3929 142.589 54.7695V158.42C142.589 160.797 140.662 162.724 138.285 162.724Z" fill="#358888"/>
<path d="M138.285 155.551H59.9792C57.6026 155.551 55.6758 153.624 55.6758 151.248V47.5969C55.6758 45.2203 57.6026 43.2935 59.9792 43.2935H138.286C140.662 43.2935 142.589 45.2203 142.589 47.5969V151.248C142.589 153.624 140.662 155.551 138.285 155.551Z" fill="#358888"/>
<path d="M99 85.0591C99 80.332 95.1681 76.5 90.4409 76.5H82.0591C77.332 76.5 73.5 80.332 73.5 85.0591C73.5 89.7861 77.332 93.618 82.0591 93.618H83.7V97.75C83.7 97.75 99 95.6841 99 85.0591Z" fill="white"/>
<path d="M91.2083 107.667C91.2083 110.797 88.6725 113.333 85.5417 113.333C82.4108 113.333 79.875 110.797 79.875 107.667C79.875 104.536 82.4108 102 85.5417 102C88.6725 102 91.2083 104.536 91.2083 107.667Z" fill="white"/>
<path d="M85.5417 116.167C81.5227 116.167 73.5 118.192 73.5 122.211V127.5H97.5833V122.211C97.5833 118.192 89.5606 116.167 85.5417 116.167Z" fill="white"/>
<path d="M112.46 113.333C115.59 113.333 118.126 110.797 118.126 107.667C118.126 104.536 115.59 102 112.46 102C109.329 102 106.793 104.536 106.793 107.667C106.793 110.797 109.329 113.333 112.46 113.333Z" fill="white"/>
<path d="M112.46 116.167C108.441 116.167 100.418 118.192 100.418 122.211V127.5H124.501V122.211C124.501 118.192 116.479 116.167 112.46 116.167Z" fill="white"/>
<path d="M110.391 77.9167C105.664 77.9167 101.832 81.7488 101.832 86.4758C101.832 97.1008 115.432 99.1667 115.432 99.1667V95.0348H115.94C120.667 95.0348 124.499 91.2028 124.499 86.4758C124.499 81.7488 120.667 77.9167 115.94 77.9167H110.391Z" fill="white"/>
<path d="M138.286 156.985H59.9801C56.8162 156.985 54.2422 154.411 54.2422 151.248V47.5968C54.2422 44.4329 56.8162 41.8589 59.9801 41.8589H91.8428C92.6349 41.8589 93.2773 42.501 93.2773 43.2934C93.2773 44.0858 92.6349 44.7278 91.8428 44.7278H59.9801C58.3982 44.7278 57.1111 46.0149 57.1111 47.5968V151.248C57.1111 152.829 58.3982 154.117 59.9801 154.117H138.286C139.868 154.117 141.155 152.829 141.155 151.248V96.3253C141.155 95.5329 141.797 94.8908 142.59 94.8908C143.382 94.8908 144.024 95.5329 144.024 96.3253V151.248C144.024 154.411 141.45 156.985 138.286 156.985Z" fill="#358888"/>
<path d="M142.59 89.4105C141.798 89.4105 141.156 88.7684 141.156 87.976V47.5968C141.156 46.0149 139.869 44.7278 138.287 44.7278H100.192C99.4002 44.7278 98.7578 44.0858 98.7578 43.2934C98.7578 42.501 99.4002 41.8589 100.192 41.8589H138.287C141.451 41.8589 144.025 44.4329 144.025 47.5968V87.976C144.025 88.7684 143.382 89.4105 142.59 89.4105Z" fill="#358888"/>
<path d="M67.4808 147.84H65.6103C64.8179 147.84 64.1758 147.197 64.1758 146.405C64.1758 145.613 64.8179 144.971 65.6103 144.971H67.4808C68.2732 144.971 68.9153 145.613 68.9153 146.405C68.9153 147.197 68.2732 147.84 67.4808 147.84Z" fill="#DBEDFB"/>
<path d="M96.1705 142.668H65.6103C64.8179 142.668 64.1758 142.026 64.1758 141.234C64.1758 140.441 64.8179 139.799 65.6103 139.799H96.1705C96.9629 139.799 97.6049 140.441 97.6049 141.234C97.6049 142.026 96.9629 142.668 96.1705 142.668Z" fill="#DBEDFB"/>
<path d="M77.1214 147.84H75.2509C74.4585 147.84 73.8164 147.197 73.8164 146.405C73.8164 145.613 74.4585 144.971 75.2509 144.971H77.1214C77.9139 144.971 78.5559 145.613 78.5559 146.405C78.5559 147.197 77.9139 147.84 77.1214 147.84Z" fill="#DBEDFB"/>
<path d="M86.7621 147.84H84.8915C84.0991 147.84 83.457 147.197 83.457 146.405C83.457 145.613 84.0991 144.971 84.8915 144.971H86.7621C87.5545 144.971 88.1966 145.613 88.1966 146.405C88.1966 147.197 87.5542 147.84 86.7621 147.84Z" fill="#DBEDFB"/>
<path d="M104.532 142.668H102.661C101.869 142.668 101.227 142.026 101.227 141.234C101.227 140.441 101.869 139.799 102.661 139.799H104.532C105.324 139.799 105.966 140.441 105.966 141.234C105.966 142.026 105.324 142.668 104.532 142.668Z" fill="#B5E4DE"/>
<path d="M132.657 147.857C131.865 147.857 131.223 147.214 131.223 146.422V146.389C131.223 145.597 131.865 144.955 132.657 144.955C133.449 144.955 134.092 145.597 134.092 146.389V146.422C134.092 147.214 133.45 147.857 132.657 147.857Z" fill="#B5E4DE"/>
<path d="M132.657 142.684C131.865 142.684 131.223 142.042 131.223 141.25V141.217C131.223 140.425 131.865 139.782 132.657 139.782C133.449 139.782 134.092 140.425 134.092 141.217V141.25C134.092 142.042 133.45 142.684 132.657 142.684Z" fill="#B5E4DE"/>
<path d="M132.657 137.512C131.865 137.512 131.223 136.87 131.223 136.078V136.045C131.223 135.253 131.865 134.61 132.657 134.61C133.449 134.61 134.092 135.253 134.092 136.045V136.078C134.092 136.87 133.45 137.512 132.657 137.512Z" fill="#B5E4DE"/>
<path d="M132.657 132.34C131.865 132.34 131.223 131.697 131.223 130.905V130.872C131.223 130.08 131.865 129.438 132.657 129.438C133.449 129.438 134.092 130.08 134.092 130.872V130.905C134.092 131.697 133.45 132.34 132.657 132.34Z" fill="#B5E4DE"/>
<path d="M66.5439 69.4078C65.7517 69.4078 65.1094 68.7655 65.1094 67.9733V67.9403C65.1094 67.1482 65.7517 66.5059 66.5439 66.5059C67.336 66.5059 67.9783 67.1482 67.9783 67.9403V67.9733C67.9783 68.7655 67.336 69.4078 66.5439 69.4078Z" fill="#B5E4DE"/>
<path d="M66.5439 64.2355C65.7517 64.2355 65.1094 63.5931 65.1094 62.801V62.768C65.1094 61.9759 65.7517 61.3335 66.5439 61.3335C67.336 61.3335 67.9783 61.9759 67.9783 62.768V62.801C67.9783 63.5934 67.336 64.2355 66.5439 64.2355Z" fill="#B5E4DE"/>
<path d="M66.5439 59.0631C65.7517 59.0631 65.1094 58.4207 65.1094 57.6286V57.5956C65.1094 56.8035 65.7517 56.1611 66.5439 56.1611C67.336 56.1611 67.9783 56.8035 67.9783 57.5956V57.6286C67.9783 58.4207 67.336 59.0631 66.5439 59.0631Z" fill="#B5E4DE"/>
<path d="M66.5439 53.8912C65.7517 53.8912 65.1094 53.2489 65.1094 52.4567V52.4237C65.1094 51.6316 65.7517 50.9893 66.5439 50.9893C67.336 50.9893 67.9783 51.6316 67.9783 52.4237V52.4567C67.9783 53.2489 67.336 53.8912 66.5439 53.8912Z" fill="#B5E4DE"/>
<path d="M44.7936 61.2143C43.4682 61.2143 42.3934 60.14 42.3934 58.8141C42.3934 57.1379 41.0296 55.7736 39.3533 55.7736C38.0279 55.7736 36.9531 54.6993 36.9531 53.3734C36.9531 52.0475 38.0279 50.9732 39.3533 50.9732C41.0296 50.9732 42.3934 49.6094 42.3934 47.9331C42.3934 46.6073 43.4682 45.533 44.7936 45.533C46.1189 45.533 47.1938 46.6073 47.1938 47.9331C47.1938 49.6094 48.5575 50.9732 50.2338 50.9732C51.5592 50.9732 52.634 52.0475 52.634 53.3734C52.634 54.6993 51.5592 55.7736 50.2338 55.7736C48.5575 55.7736 47.1938 57.1379 47.1938 58.8141C47.1938 60.14 46.1194 61.2143 44.7936 61.2143Z" fill="#FF9F81"/>
<path d="M154.669 148.321C153.343 148.321 152.268 147.247 152.268 145.921C152.268 144.245 150.905 142.881 149.228 142.881C147.903 142.881 146.828 141.806 146.828 140.48C146.828 139.154 147.903 138.08 149.228 138.08C150.905 138.08 152.268 136.716 152.268 135.04C152.268 133.714 153.343 132.64 154.669 132.64C155.994 132.64 157.069 133.714 157.069 135.04C157.069 136.716 158.433 138.08 160.109 138.08C161.435 138.08 162.51 139.154 162.51 140.48C162.51 141.806 161.435 142.881 160.109 142.881C158.433 142.881 157.069 144.245 157.069 145.921C157.069 147.246 155.994 148.321 154.669 148.321Z" fill="#FF9F81"/>
<path d="M39.8846 70.5321C38.5592 70.5321 37.4844 69.4577 37.4844 68.1319V68.0603C37.4844 66.7345 38.5592 65.6602 39.8846 65.6602C41.2099 65.6602 42.2847 66.7345 42.2847 68.0603V68.1319C42.2847 69.4577 41.2104 70.5321 39.8846 70.5321Z" fill="#8FBCEB"/>
<path d="M39.8846 83.8695C38.5592 83.8695 37.4844 82.7951 37.4844 81.4693V81.3977C37.4844 80.0719 38.5592 78.9976 39.8846 78.9976C41.2099 78.9976 42.2847 80.0719 42.2847 81.3977V81.4693C42.2847 82.7951 41.2104 83.8695 39.8846 83.8695Z" fill="#8FBCEB"/>
<path d="M34.1364 73.849C33.7284 73.849 33.3151 73.7448 32.9363 73.5254L32.8739 73.4894C31.7266 72.8251 31.3349 71.3571 31.9993 70.2098C32.6632 69.0625 34.1316 68.6703 35.2794 69.3352L35.3418 69.3712C36.4891 70.0356 36.8808 71.5035 36.2164 72.6508C35.7709 73.4198 34.965 73.849 34.1364 73.849Z" fill="#8FBCEB"/>
<path d="M45.6872 80.5177C45.2792 80.5177 44.8654 80.4135 44.4871 80.1941L44.4247 80.1581C43.2774 79.4938 42.8857 78.0258 43.5501 76.8785C44.2144 75.7312 45.6819 75.339 46.8302 76.0039L46.8926 76.0399C48.0399 76.7043 48.4316 78.1722 47.7672 79.3195C47.3217 80.0885 46.5157 80.5177 45.6872 80.5177Z" fill="#8FBCEB"/>
<path d="M34.0788 80.5176C33.2503 80.5176 32.4443 80.0879 31.9993 79.3194C31.3349 78.1721 31.7266 76.7042 32.8739 76.0398L32.9363 76.0038C34.0841 75.3389 35.5525 75.7316 36.2164 76.8784C36.8808 78.0257 36.4891 79.4937 35.3418 80.158L35.2794 80.194C34.9006 80.4134 34.4868 80.5176 34.0788 80.5176Z" fill="#8FBCEB"/>
<path d="M45.6296 73.8489C44.801 73.8489 43.9951 73.4197 43.5501 72.6507C42.8857 71.5034 43.2774 70.0355 44.4247 69.3711L44.4871 69.3351C45.6349 68.6702 47.1028 69.0629 47.7667 70.2097C48.4311 71.357 48.0394 72.825 46.8921 73.4893L46.8297 73.5253C46.4514 73.7452 46.0376 73.8489 45.6296 73.8489Z" fill="#8FBCEB"/>
<defs>
<linearGradient id="paint0_linear_7082_55348" x1="100" y1="4.97445" x2="100" y2="195.026" gradientUnits="userSpaceOnUse">
<stop stop-color="#E6F6F4"/>
<stop offset="1" stop-color="#E6F6F4" stop-opacity="0"/>
</linearGradient>
<linearGradient id="paint1_linear_7082_55348" x1="99.9983" y1="4.97388" x2="99.9983" y2="195.025" gradientUnits="userSpaceOnUse">
<stop stop-color="#E6F6F4" stop-opacity="0"/>
<stop offset="1" stop-color="#E6F6F4"/>
</linearGradient>
</defs>
</svg>
