<svg width="16" height="16" viewBox="0 0 16 16" fill="none" xmlns="http://www.w3.org/2000/svg">
<g id="streamline:instagram-solid">
<path id="Vector" fill-rule="evenodd" clip-rule="evenodd" d="M3.87444 0.898438C3.08535 0.898437 2.32857 1.21182 1.77049 1.76968C1.21242 2.32754 0.898741 3.08421 0.898438 3.87329V11.8093C0.898438 12.5986 1.21198 13.3555 1.77009 13.9136C2.3282 14.4718 3.08515 14.7853 3.87444 14.7853H11.8104C12.5995 14.785 13.3562 14.4713 13.914 13.9132C14.4719 13.3552 14.7853 12.5984 14.7853 11.8093V3.87329C14.785 3.08441 14.4715 2.32792 13.9136 1.77009C13.3558 1.21226 12.5993 0.89874 11.8104 0.898438H3.87444ZM12.6664 3.87787C12.6664 4.10519 12.5761 4.32321 12.4154 4.48396C12.2546 4.6447 12.0366 4.73501 11.8093 4.73501C11.582 4.73501 11.3639 4.6447 11.2032 4.48396C11.0425 4.32321 10.9522 4.10519 10.9522 3.87787C10.9522 3.65054 11.0425 3.43252 11.2032 3.27177C11.3639 3.11103 11.582 3.02072 11.8093 3.02072C12.0366 3.02072 12.2546 3.11103 12.4154 3.27177C12.5761 3.43252 12.6664 3.65054 12.6664 3.87787ZM7.84358 5.46415C7.21312 5.46415 6.60849 5.7146 6.16269 6.1604C5.71689 6.6062 5.46644 7.21084 5.46644 7.84129C5.46644 8.47175 5.71689 9.07639 6.16269 9.52219C6.60849 9.96799 7.21312 10.2184 7.84358 10.2184C8.47404 10.2184 9.07867 9.96799 9.52447 9.52219C9.97027 9.07639 10.2207 8.47175 10.2207 7.84129C10.2207 7.21084 9.97027 6.6062 9.52447 6.1604C9.07867 5.7146 8.47404 5.46415 7.84358 5.46415ZM4.32244 7.84129C4.32244 6.90773 4.69329 6.01241 5.35342 5.35228C6.01355 4.69215 6.90888 4.32129 7.84244 4.32129C8.776 4.32129 9.67132 4.69215 10.3315 5.35228C10.9916 6.01241 11.3624 6.90773 11.3624 7.84129C11.3624 8.77486 10.9916 9.67018 10.3315 10.3303C9.67132 10.9904 8.776 11.3613 7.84244 11.3613C6.90888 11.3613 6.01355 10.9904 5.35342 10.3303C4.69329 9.67018 4.32244 8.77486 4.32244 7.84129Z" fill="#2A2536"/>
</g>
</svg>
