<svg width="12" height="12" viewBox="0 0 12 12" fill="none" xmlns="http://www.w3.org/2000/svg">
<path fill-rule="evenodd" clip-rule="evenodd" d="M2.90388 0.671875C2.31206 0.671875 1.74447 0.906914 1.32592 1.32531C0.907359 1.74371 0.672102 2.3112 0.671875 2.90302V8.85502C0.671875 9.44698 0.907031 10.0147 1.32561 10.4333C1.74419 10.8519 2.31191 11.087 2.90388 11.087H8.85588C9.44769 11.0868 10.0152 10.8515 10.4336 10.433C10.852 10.0144 11.087 9.44683 11.087 8.85502V2.90302C11.0868 2.31135 10.8517 1.74398 10.4333 1.32561C10.0149 0.907241 9.44754 0.672102 8.85588 0.671875H2.90388ZM9.49788 2.90645C9.49788 3.07694 9.43015 3.24046 9.30959 3.36102C9.18903 3.48157 9.02551 3.5493 8.85502 3.5493C8.68452 3.5493 8.52101 3.48157 8.40045 3.36102C8.27989 3.24046 8.21216 3.07694 8.21216 2.90645C8.21216 2.73595 8.27989 2.57244 8.40045 2.45188C8.52101 2.33132 8.68452 2.26359 8.85502 2.26359C9.02551 2.26359 9.18903 2.33132 9.30959 2.45188C9.43015 2.57244 9.49788 2.73595 9.49788 2.90645ZM5.88073 4.09616C5.40789 4.09616 4.95441 4.284 4.62006 4.61835C4.28571 4.9527 4.09788 5.40617 4.09788 5.87902C4.09788 6.35186 4.28571 6.80534 4.62006 7.13969C4.95441 7.47404 5.40789 7.66188 5.88073 7.66188C6.35358 7.66188 6.80705 7.47404 7.1414 7.13969C7.47575 6.80534 7.66359 6.35186 7.66359 5.87902C7.66359 5.40617 7.47575 4.9527 7.1414 4.61835C6.80705 4.284 6.35358 4.09616 5.88073 4.09616ZM3.23988 5.87902C3.23988 5.17885 3.51802 4.50735 4.01311 4.01226C4.50821 3.51716 5.1797 3.23902 5.87988 3.23902C6.58005 3.23902 7.25154 3.51716 7.74664 4.01226C8.24173 4.50735 8.51988 5.17885 8.51988 5.87902C8.51988 6.57919 8.24173 7.25068 7.74664 7.74578C7.25154 8.24088 6.58005 8.51902 5.87988 8.51902C5.1797 8.51902 4.50821 8.24088 4.01311 7.74578C3.51802 7.25068 3.23988 6.57919 3.23988 5.87902Z" fill="white"/>
</svg>
