<svg width="201" height="200" viewBox="0 0 201 200" fill="none" xmlns="http://www.w3.org/2000/svg">
<circle cx="100.5" cy="100" r="95.0256" transform="rotate(176.916 100.5 100)" fill="url(#paint0_linear_7082_55588)"/>
<path opacity="0.1" d="M138.785 162.724H60.4792C58.1026 162.724 56.1758 160.797 56.1758 158.42V54.7695C56.1758 52.3929 58.1026 50.4661 60.4792 50.4661H138.786C141.162 50.4661 143.089 52.3929 143.089 54.7695V158.42C143.089 160.797 141.162 162.724 138.785 162.724Z" fill="#358888"/>
<path d="M138.785 155.551H60.4792C58.1026 155.551 56.1758 153.624 56.1758 151.248V47.5969C56.1758 45.2203 58.1026 43.2935 60.4792 43.2935H138.786C141.162 43.2935 143.089 45.2203 143.089 47.5969V151.248C143.089 153.624 141.162 155.551 138.785 155.551Z" fill="#358888"/>
<path d="M138.786 156.985H60.4801C57.3162 156.985 54.7422 154.411 54.7422 151.248V47.5968C54.7422 44.4329 57.3162 41.8589 60.4801 41.8589H92.3428C93.1349 41.8589 93.7773 42.501 93.7773 43.2934C93.7773 44.0858 93.1349 44.7278 92.3428 44.7278H60.4801C58.8982 44.7278 57.6111 46.0149 57.6111 47.5968V151.248C57.6111 152.829 58.8982 154.117 60.4801 154.117H138.786C140.368 154.117 141.655 152.829 141.655 151.248V96.3253C141.655 95.5329 142.297 94.8908 143.09 94.8908C143.882 94.8908 144.524 95.5329 144.524 96.3253V151.248C144.524 154.411 141.95 156.985 138.786 156.985Z" fill="#358888"/>
<path d="M143.09 89.4105C142.298 89.4105 141.656 88.7684 141.656 87.976V47.5968C141.656 46.0149 140.369 44.7278 138.787 44.7278H100.692C99.9002 44.7278 99.2578 44.0858 99.2578 43.2934C99.2578 42.501 99.9002 41.8589 100.692 41.8589H138.787C141.951 41.8589 144.525 44.4329 144.525 47.5968V87.976C144.525 88.7684 143.882 89.4105 143.09 89.4105Z" fill="#358888"/>
<path d="M67.9808 147.84H66.1103C65.3179 147.84 64.6758 147.197 64.6758 146.405C64.6758 145.613 65.3179 144.971 66.1103 144.971H67.9808C68.7732 144.971 69.4153 145.613 69.4153 146.405C69.4153 147.197 68.7732 147.84 67.9808 147.84Z" fill="#D8EC9C"/>
<path d="M96.6705 142.668H66.1103C65.3179 142.668 64.6758 142.026 64.6758 141.234C64.6758 140.441 65.3179 139.799 66.1103 139.799H96.6705C97.4629 139.799 98.1049 140.441 98.1049 141.234C98.1049 142.026 97.4629 142.668 96.6705 142.668Z" fill="#F9EEB4"/>
<path d="M77.6214 147.84H75.7509C74.9585 147.84 74.3164 147.197 74.3164 146.405C74.3164 145.613 74.9585 144.971 75.7509 144.971H77.6214C78.4139 144.971 79.0559 145.613 79.0559 146.405C79.0559 147.197 78.4139 147.84 77.6214 147.84Z" fill="#D8EC9C"/>
<path d="M87.2621 147.84H85.3915C84.5991 147.84 83.957 147.197 83.957 146.405C83.957 145.613 84.5991 144.971 85.3915 144.971H87.2621C88.0545 144.971 88.6966 145.613 88.6966 146.405C88.6966 147.197 88.0542 147.84 87.2621 147.84Z" fill="#D8EC9C"/>
<path d="M105.032 142.668H103.161C102.369 142.668 101.727 142.026 101.727 141.234C101.727 140.441 102.369 139.799 103.161 139.799H105.032C105.824 139.799 106.466 140.441 106.466 141.234C106.466 142.026 105.824 142.668 105.032 142.668Z" fill="#B5E4DE"/>
<path d="M133.157 147.857C132.365 147.857 131.723 147.214 131.723 146.422V146.389C131.723 145.597 132.365 144.955 133.157 144.955C133.949 144.955 134.592 145.597 134.592 146.389V146.422C134.592 147.214 133.95 147.857 133.157 147.857Z" fill="#B5E4DE"/>
<path d="M133.157 142.684C132.365 142.684 131.723 142.042 131.723 141.25V141.217C131.723 140.425 132.365 139.782 133.157 139.782C133.949 139.782 134.592 140.425 134.592 141.217V141.25C134.592 142.042 133.95 142.684 133.157 142.684Z" fill="#B5E4DE"/>
<path d="M133.157 137.512C132.365 137.512 131.723 136.87 131.723 136.078V136.045C131.723 135.253 132.365 134.61 133.157 134.61C133.949 134.61 134.592 135.253 134.592 136.045V136.078C134.592 136.87 133.95 137.512 133.157 137.512Z" fill="#B5E4DE"/>
<path d="M133.157 132.34C132.365 132.34 131.723 131.697 131.723 130.905V130.872C131.723 130.08 132.365 129.438 133.157 129.438C133.949 129.438 134.592 130.08 134.592 130.872V130.905C134.592 131.697 133.95 132.34 133.157 132.34Z" fill="#B5E4DE"/>
<path d="M67.0439 69.4078C66.2517 69.4078 65.6094 68.7655 65.6094 67.9733V67.9403C65.6094 67.1482 66.2517 66.5059 67.0439 66.5059C67.836 66.5059 68.4783 67.1482 68.4783 67.9403V67.9733C68.4783 68.7655 67.836 69.4078 67.0439 69.4078Z" fill="#B5E4DE"/>
<path d="M67.0439 64.2355C66.2517 64.2355 65.6094 63.5931 65.6094 62.801V62.768C65.6094 61.9759 66.2517 61.3335 67.0439 61.3335C67.836 61.3335 68.4783 61.9759 68.4783 62.768V62.801C68.4783 63.5934 67.836 64.2355 67.0439 64.2355Z" fill="#B5E4DE"/>
<path d="M67.0439 59.0631C66.2517 59.0631 65.6094 58.4207 65.6094 57.6286V57.5956C65.6094 56.8035 66.2517 56.1611 67.0439 56.1611C67.836 56.1611 68.4783 56.8035 68.4783 57.5956V57.6286C68.4783 58.4207 67.836 59.0631 67.0439 59.0631Z" fill="#B5E4DE"/>
<path d="M67.0439 53.8912C66.2517 53.8912 65.6094 53.2489 65.6094 52.4567V52.4237C65.6094 51.6316 66.2517 50.9893 67.0439 50.9893C67.836 50.9893 68.4783 51.6316 68.4783 52.4237V52.4567C68.4783 53.2489 67.836 53.8912 67.0439 53.8912Z" fill="#B5E4DE"/>
<path d="M129.199 90.7719C128.185 90.2446 126.935 90.6397 126.408 91.6541C125.881 92.6686 126.276 93.9183 127.29 94.4454C127.557 94.5836 127.755 94.7059 127.9 94.8074C127.111 95.3508 125.047 96.2915 120.694 97.1078C115.92 98.0034 109.771 98.4966 103.382 98.4966V92.0062C110.702 92.0062 117.606 91.3994 122.82 90.2977C129.312 88.9258 132.336 87.0059 132.336 84.2554C132.336 83.3732 131.98 82.0741 130.28 80.8967C129.341 80.2457 128.051 80.4795 127.4 81.4191C126.762 82.3395 126.973 83.5952 127.865 84.2582C127.042 84.7985 124.964 85.7105 120.676 86.5012C115.903 87.3814 109.762 87.8663 103.382 87.8663V83.4463C109.375 83.4463 115.032 82.9104 119.311 81.9373C122.753 81.1543 127.329 79.7284 127.329 76.4002C127.329 74.8971 126.369 73.6244 124.474 72.6174C123.465 72.0815 122.211 72.4645 121.674 73.4741C121.138 74.4837 121.521 75.7369 122.531 76.2736C122.625 76.3238 122.709 76.3712 122.782 76.4151C120.848 77.5836 114.206 79.3061 103.382 79.3061V75.3828C110.47 75.3731 122.371 73.9007 122.371 68.4313C122.371 67.1919 121.72 65.4135 118.62 63.9807C117.582 63.5007 116.352 63.9535 115.872 64.9912C115.392 66.0289 115.845 67.2591 116.883 67.7388C117.513 68.0302 117.869 68.2761 118.064 68.4411C116.92 69.4269 111.984 71.2326 103.382 71.2426V70.3116C103.382 68.9366 102.267 67.8217 100.892 67.8217H98.3744C96.9993 67.8217 95.8844 68.9366 95.8844 70.3116V71.2426C87.2818 71.2326 82.3461 69.4266 81.2019 68.4411C81.3967 68.2764 81.7533 68.0302 82.3834 67.7388C83.4211 67.2591 83.8735 66.0289 83.3938 64.9912C82.9141 63.9532 81.6833 63.501 80.6462 63.9807C77.546 65.4138 76.8953 67.1919 76.8953 68.4313C76.8953 73.9007 88.7963 75.3731 95.8844 75.3828V79.3061C85.0601 79.3061 78.4182 77.5836 76.4836 76.4151C76.5574 76.3709 76.6406 76.3236 76.7349 76.2736C77.7445 75.7371 78.1281 74.4837 77.5916 73.4741C77.0548 72.4645 75.8017 72.0812 74.7921 72.6174C72.8971 73.6244 71.9366 74.8971 71.9366 76.4002C71.9366 79.7284 76.5132 81.1543 79.9554 81.9373C84.2338 82.9104 89.8909 83.4463 95.8844 83.4463V87.8663C89.5044 87.8663 83.3625 87.3814 78.5897 86.5012C74.3018 85.7105 72.2244 84.7985 71.4013 84.2582C72.2926 83.5952 72.5038 82.3395 71.866 81.4191C71.2148 80.4795 69.9255 80.2451 68.9856 80.8967C67.2863 82.0741 66.9297 83.3732 66.9297 84.2554C66.9297 87.0059 69.9536 88.9258 76.446 90.2977C81.6604 91.3997 88.5637 92.0062 95.8844 92.0062V98.4966C89.4946 98.4966 83.3465 98.0034 78.5717 97.1078C74.2197 96.2915 72.1552 95.3505 71.366 94.8074C71.5114 94.7059 71.7094 94.5836 71.9756 94.4454C72.9901 93.9183 73.3851 92.6683 72.8578 91.6541C72.3308 90.6397 71.0814 90.2443 70.0666 90.7719C67.9852 91.8535 66.9297 93.21 66.9297 94.8028C66.9297 97.5734 69.9519 99.5114 76.4403 100.903C81.6566 102.021 88.5619 102.637 95.8847 102.637V108.413C89.9032 108.413 84.1139 108.054 79.5827 107.402C76.5903 106.971 74.7488 106.505 73.6367 106.131C74.6176 105.702 75.118 104.583 74.7599 103.554C74.3838 102.475 73.2035 101.904 72.1242 102.28C71.1433 102.622 68.1582 103.661 68.1582 106.134C68.1582 108.622 70.9213 110.152 77.3968 111.25C82.3535 112.091 88.9191 112.553 95.8847 112.553V112.608C95.8847 113.983 96.9996 115.098 98.3747 115.098H100.892C102.267 115.098 103.382 113.983 103.382 112.608V112.553C110.347 112.553 116.913 112.091 121.87 111.25C128.345 110.153 131.108 108.623 131.108 106.134C131.108 103.661 128.123 102.622 127.142 102.28C126.063 101.905 124.883 102.475 124.507 103.554C124.149 104.583 124.649 105.702 125.63 106.131C124.518 106.505 122.676 106.971 119.684 107.402C115.153 108.054 109.363 108.413 103.382 108.413V102.637C110.705 102.637 117.61 102.021 122.826 100.903C129.315 99.5114 132.337 97.5731 132.337 94.8028C132.337 93.2097 131.281 91.8535 129.199 90.7719Z" fill="white"/>
<path d="M95.4991 65.4187H103.765C105.217 65.4187 106.393 64.2421 106.393 62.7907V61.6905C106.393 60.2391 105.217 59.0625 103.765 59.0625H95.4991C94.0477 59.0625 92.8711 60.2391 92.8711 61.6905V62.7907C92.8711 64.2421 94.0477 65.4187 95.4991 65.4187Z" fill="white"/>
<path d="M102.388 117.5H96.8819C95.4305 117.5 94.2539 118.677 94.2539 120.128V121.228C94.2539 122.68 95.4305 123.856 96.8819 123.856H102.388C103.839 123.856 105.016 122.68 105.016 121.228V120.128C105.016 118.677 103.839 117.5 102.388 117.5Z" fill="white"/>
<path d="M102.388 126.259H96.8819C95.4305 126.259 94.2539 127.435 94.2539 128.887V129.987C94.2539 131.438 95.4305 132.615 96.8819 132.615H102.388C103.839 132.615 105.016 131.438 105.016 129.987V128.887C105.016 127.435 103.839 126.259 102.388 126.259Z" fill="white"/>
<path d="M45.2936 61.2143C43.9682 61.2143 42.8934 60.14 42.8934 58.8141C42.8934 57.1379 41.5296 55.7736 39.8533 55.7736C38.5279 55.7736 37.4531 54.6993 37.4531 53.3734C37.4531 52.0475 38.5279 50.9732 39.8533 50.9732C41.5296 50.9732 42.8934 49.6094 42.8934 47.9331C42.8934 46.6073 43.9682 45.533 45.2936 45.533C46.6189 45.533 47.6938 46.6073 47.6938 47.9331C47.6938 49.6094 49.0575 50.9732 50.7338 50.9732C52.0592 50.9732 53.134 52.0475 53.134 53.3734C53.134 54.6993 52.0592 55.7736 50.7338 55.7736C49.0575 55.7736 47.6938 57.1379 47.6938 58.8141C47.6938 60.14 46.6194 61.2143 45.2936 61.2143Z" fill="#D8EC9C"/>
<path d="M155.169 148.321C153.843 148.321 152.768 147.247 152.768 145.921C152.768 144.245 151.405 142.881 149.728 142.881C148.403 142.881 147.328 141.806 147.328 140.48C147.328 139.154 148.403 138.08 149.728 138.08C151.405 138.08 152.768 136.716 152.768 135.04C152.768 133.714 153.843 132.64 155.169 132.64C156.494 132.64 157.569 133.714 157.569 135.04C157.569 136.716 158.933 138.08 160.609 138.08C161.935 138.08 163.01 139.154 163.01 140.48C163.01 141.806 161.935 142.881 160.609 142.881C158.933 142.881 157.569 144.245 157.569 145.921C157.569 147.246 156.494 148.321 155.169 148.321Z" fill="#D8EC9C"/>
<path d="M40.3846 70.5321C39.0592 70.5321 37.9844 69.4577 37.9844 68.1319V68.0603C37.9844 66.7345 39.0592 65.6602 40.3846 65.6602C41.7099 65.6602 42.7847 66.7345 42.7847 68.0603V68.1319C42.7847 69.4577 41.7104 70.5321 40.3846 70.5321Z" fill="#F9EEB4"/>
<path d="M40.3846 83.8695C39.0592 83.8695 37.9844 82.7951 37.9844 81.4693V81.3977C37.9844 80.0719 39.0592 78.9976 40.3846 78.9976C41.7099 78.9976 42.7847 80.0719 42.7847 81.3977V81.4693C42.7847 82.7951 41.7104 83.8695 40.3846 83.8695Z" fill="#F9EEB4"/>
<path d="M34.6364 73.849C34.2284 73.849 33.8151 73.7448 33.4363 73.5254L33.3739 73.4894C32.2266 72.8251 31.8349 71.3571 32.4993 70.2098C33.1632 69.0625 34.6316 68.6703 35.7794 69.3352L35.8418 69.3712C36.9891 70.0356 37.3808 71.5035 36.7164 72.6508C36.2709 73.4198 35.465 73.849 34.6364 73.849Z" fill="#F9EEB4"/>
<path d="M46.1872 80.5177C45.7792 80.5177 45.3654 80.4135 44.9871 80.1941L44.9247 80.1581C43.7774 79.4938 43.3857 78.0258 44.0501 76.8785C44.7144 75.7312 46.1819 75.339 47.3302 76.0039L47.3926 76.0399C48.5399 76.7043 48.9316 78.1722 48.2672 79.3195C47.8217 80.0885 47.0157 80.5177 46.1872 80.5177Z" fill="#F9EEB4"/>
<path d="M34.5788 80.5176C33.7503 80.5176 32.9443 80.0879 32.4993 79.3194C31.8349 78.1721 32.2266 76.7042 33.3739 76.0398L33.4363 76.0038C34.5841 75.3389 36.0525 75.7316 36.7164 76.8784C37.3808 78.0257 36.9891 79.4937 35.8418 80.158L35.7794 80.194C35.4006 80.4134 34.9868 80.5176 34.5788 80.5176Z" fill="#F9EEB4"/>
<path d="M46.1296 73.8489C45.301 73.8489 44.4951 73.4197 44.0501 72.6507C43.3857 71.5034 43.7774 70.0355 44.9247 69.3711L44.9871 69.3351C46.1349 68.6702 47.6028 69.0629 48.2667 70.2097C48.9311 71.357 48.5394 72.825 47.3921 73.4893L47.3297 73.5253C46.9514 73.7452 46.5376 73.8489 46.1296 73.8489Z" fill="#F9EEB4"/>
<circle cx="100.498" cy="99.9995" r="95.0256" fill="url(#paint1_linear_7082_55588)"/>
<path opacity="0.1" d="M138.785 162.724H60.4792C58.1026 162.724 56.1758 160.797 56.1758 158.42V54.7695C56.1758 52.3929 58.1026 50.4661 60.4792 50.4661H138.786C141.162 50.4661 143.089 52.3929 143.089 54.7695V158.42C143.089 160.797 141.162 162.724 138.785 162.724Z" fill="#358888"/>
<path d="M138.785 155.551H60.4792C58.1026 155.551 56.1758 153.624 56.1758 151.248V47.5969C56.1758 45.2203 58.1026 43.2935 60.4792 43.2935H138.786C141.162 43.2935 143.089 45.2203 143.089 47.5969V151.248C143.089 153.624 141.162 155.551 138.785 155.551Z" fill="#358888"/>
<path d="M99.5 85.0591C99.5 80.332 95.6681 76.5 90.9409 76.5H82.5591C77.832 76.5 74 80.332 74 85.0591C74 89.7861 77.832 93.618 82.5591 93.618H84.2V97.75C84.2 97.75 99.5 95.6841 99.5 85.0591Z" fill="white"/>
<path d="M91.7083 107.667C91.7083 110.797 89.1725 113.333 86.0417 113.333C82.9108 113.333 80.375 110.797 80.375 107.667C80.375 104.536 82.9108 102 86.0417 102C89.1725 102 91.7083 104.536 91.7083 107.667Z" fill="white"/>
<path d="M86.0417 116.167C82.0227 116.167 74 118.192 74 122.211V127.5H98.0833V122.211C98.0833 118.192 90.0606 116.167 86.0417 116.167Z" fill="white"/>
<path d="M112.96 113.333C116.09 113.333 118.626 110.797 118.626 107.667C118.626 104.536 116.09 102 112.96 102C109.829 102 107.293 104.536 107.293 107.667C107.293 110.797 109.829 113.333 112.96 113.333Z" fill="white"/>
<path d="M112.96 116.167C108.941 116.167 100.918 118.192 100.918 122.211V127.5H125.001V122.211C125.001 118.192 116.979 116.167 112.96 116.167Z" fill="white"/>
<path d="M110.891 77.9167C106.164 77.9167 102.332 81.7488 102.332 86.4758C102.332 97.1008 115.932 99.1667 115.932 99.1667V95.0348H116.44C121.167 95.0348 124.999 91.2028 124.999 86.4758C124.999 81.7488 121.167 77.9167 116.44 77.9167H110.891Z" fill="white"/>
<path d="M138.786 156.985H60.4801C57.3162 156.985 54.7422 154.411 54.7422 151.248V47.5968C54.7422 44.4329 57.3162 41.8589 60.4801 41.8589H92.3428C93.1349 41.8589 93.7773 42.501 93.7773 43.2934C93.7773 44.0858 93.1349 44.7278 92.3428 44.7278H60.4801C58.8982 44.7278 57.6111 46.0149 57.6111 47.5968V151.248C57.6111 152.829 58.8982 154.117 60.4801 154.117H138.786C140.368 154.117 141.655 152.829 141.655 151.248V96.3253C141.655 95.5329 142.297 94.8908 143.09 94.8908C143.882 94.8908 144.524 95.5329 144.524 96.3253V151.248C144.524 154.411 141.95 156.985 138.786 156.985Z" fill="#358888"/>
<path d="M143.09 89.4105C142.298 89.4105 141.656 88.7684 141.656 87.976V47.5968C141.656 46.0149 140.369 44.7278 138.787 44.7278H100.692C99.9002 44.7278 99.2578 44.0858 99.2578 43.2934C99.2578 42.501 99.9002 41.8589 100.692 41.8589H138.787C141.951 41.8589 144.525 44.4329 144.525 47.5968V87.976C144.525 88.7684 143.882 89.4105 143.09 89.4105Z" fill="#358888"/>
<path d="M67.9808 147.84H66.1103C65.3179 147.84 64.6758 147.197 64.6758 146.405C64.6758 145.613 65.3179 144.971 66.1103 144.971H67.9808C68.7732 144.971 69.4153 145.613 69.4153 146.405C69.4153 147.197 68.7732 147.84 67.9808 147.84Z" fill="#DBEDFB"/>
<path d="M96.6705 142.668H66.1103C65.3179 142.668 64.6758 142.026 64.6758 141.234C64.6758 140.441 65.3179 139.799 66.1103 139.799H96.6705C97.4629 139.799 98.1049 140.441 98.1049 141.234C98.1049 142.026 97.4629 142.668 96.6705 142.668Z" fill="#DBEDFB"/>
<path d="M77.6214 147.84H75.7509C74.9585 147.84 74.3164 147.197 74.3164 146.405C74.3164 145.613 74.9585 144.971 75.7509 144.971H77.6214C78.4139 144.971 79.0559 145.613 79.0559 146.405C79.0559 147.197 78.4139 147.84 77.6214 147.84Z" fill="#DBEDFB"/>
<path d="M87.2621 147.84H85.3915C84.5991 147.84 83.957 147.197 83.957 146.405C83.957 145.613 84.5991 144.971 85.3915 144.971H87.2621C88.0545 144.971 88.6966 145.613 88.6966 146.405C88.6966 147.197 88.0542 147.84 87.2621 147.84Z" fill="#DBEDFB"/>
<path d="M105.032 142.668H103.161C102.369 142.668 101.727 142.026 101.727 141.234C101.727 140.441 102.369 139.799 103.161 139.799H105.032C105.824 139.799 106.466 140.441 106.466 141.234C106.466 142.026 105.824 142.668 105.032 142.668Z" fill="#B5E4DE"/>
<path d="M133.157 147.857C132.365 147.857 131.723 147.214 131.723 146.422V146.389C131.723 145.597 132.365 144.955 133.157 144.955C133.949 144.955 134.592 145.597 134.592 146.389V146.422C134.592 147.214 133.95 147.857 133.157 147.857Z" fill="#B5E4DE"/>
<path d="M133.157 142.684C132.365 142.684 131.723 142.042 131.723 141.25V141.217C131.723 140.425 132.365 139.782 133.157 139.782C133.949 139.782 134.592 140.425 134.592 141.217V141.25C134.592 142.042 133.95 142.684 133.157 142.684Z" fill="#B5E4DE"/>
<path d="M133.157 137.512C132.365 137.512 131.723 136.87 131.723 136.078V136.045C131.723 135.253 132.365 134.61 133.157 134.61C133.949 134.61 134.592 135.253 134.592 136.045V136.078C134.592 136.87 133.95 137.512 133.157 137.512Z" fill="#B5E4DE"/>
<path d="M133.157 132.34C132.365 132.34 131.723 131.697 131.723 130.905V130.872C131.723 130.08 132.365 129.438 133.157 129.438C133.949 129.438 134.592 130.08 134.592 130.872V130.905C134.592 131.697 133.95 132.34 133.157 132.34Z" fill="#B5E4DE"/>
<path d="M67.0439 69.4078C66.2517 69.4078 65.6094 68.7655 65.6094 67.9733V67.9403C65.6094 67.1482 66.2517 66.5059 67.0439 66.5059C67.836 66.5059 68.4783 67.1482 68.4783 67.9403V67.9733C68.4783 68.7655 67.836 69.4078 67.0439 69.4078Z" fill="#B5E4DE"/>
<path d="M67.0439 64.2355C66.2517 64.2355 65.6094 63.5931 65.6094 62.801V62.768C65.6094 61.9759 66.2517 61.3335 67.0439 61.3335C67.836 61.3335 68.4783 61.9759 68.4783 62.768V62.801C68.4783 63.5934 67.836 64.2355 67.0439 64.2355Z" fill="#B5E4DE"/>
<path d="M67.0439 59.0631C66.2517 59.0631 65.6094 58.4207 65.6094 57.6286V57.5956C65.6094 56.8035 66.2517 56.1611 67.0439 56.1611C67.836 56.1611 68.4783 56.8035 68.4783 57.5956V57.6286C68.4783 58.4207 67.836 59.0631 67.0439 59.0631Z" fill="#B5E4DE"/>
<path d="M67.0439 53.8912C66.2517 53.8912 65.6094 53.2489 65.6094 52.4567V52.4237C65.6094 51.6316 66.2517 50.9893 67.0439 50.9893C67.836 50.9893 68.4783 51.6316 68.4783 52.4237V52.4567C68.4783 53.2489 67.836 53.8912 67.0439 53.8912Z" fill="#B5E4DE"/>
<path d="M45.2936 61.2143C43.9682 61.2143 42.8934 60.14 42.8934 58.8141C42.8934 57.1379 41.5296 55.7736 39.8533 55.7736C38.5279 55.7736 37.4531 54.6993 37.4531 53.3734C37.4531 52.0475 38.5279 50.9732 39.8533 50.9732C41.5296 50.9732 42.8934 49.6094 42.8934 47.9331C42.8934 46.6073 43.9682 45.533 45.2936 45.533C46.6189 45.533 47.6938 46.6073 47.6938 47.9331C47.6938 49.6094 49.0575 50.9732 50.7338 50.9732C52.0592 50.9732 53.134 52.0475 53.134 53.3734C53.134 54.6993 52.0592 55.7736 50.7338 55.7736C49.0575 55.7736 47.6938 57.1379 47.6938 58.8141C47.6938 60.14 46.6194 61.2143 45.2936 61.2143Z" fill="#FF9F81"/>
<path d="M155.169 148.321C153.843 148.321 152.768 147.247 152.768 145.921C152.768 144.245 151.405 142.881 149.728 142.881C148.403 142.881 147.328 141.806 147.328 140.48C147.328 139.154 148.403 138.08 149.728 138.08C151.405 138.08 152.768 136.716 152.768 135.04C152.768 133.714 153.843 132.64 155.169 132.64C156.494 132.64 157.569 133.714 157.569 135.04C157.569 136.716 158.933 138.08 160.609 138.08C161.935 138.08 163.01 139.154 163.01 140.48C163.01 141.806 161.935 142.881 160.609 142.881C158.933 142.881 157.569 144.245 157.569 145.921C157.569 147.246 156.494 148.321 155.169 148.321Z" fill="#FF9F81"/>
<path d="M40.3846 70.5321C39.0592 70.5321 37.9844 69.4577 37.9844 68.1319V68.0603C37.9844 66.7345 39.0592 65.6602 40.3846 65.6602C41.7099 65.6602 42.7847 66.7345 42.7847 68.0603V68.1319C42.7847 69.4577 41.7104 70.5321 40.3846 70.5321Z" fill="#8FBCEB"/>
<path d="M40.3846 83.8695C39.0592 83.8695 37.9844 82.7951 37.9844 81.4693V81.3977C37.9844 80.0719 39.0592 78.9976 40.3846 78.9976C41.7099 78.9976 42.7847 80.0719 42.7847 81.3977V81.4693C42.7847 82.7951 41.7104 83.8695 40.3846 83.8695Z" fill="#8FBCEB"/>
<path d="M34.6364 73.849C34.2284 73.849 33.8151 73.7448 33.4363 73.5254L33.3739 73.4894C32.2266 72.8251 31.8349 71.3571 32.4993 70.2098C33.1632 69.0625 34.6316 68.6703 35.7794 69.3352L35.8418 69.3712C36.9891 70.0356 37.3808 71.5035 36.7164 72.6508C36.2709 73.4198 35.465 73.849 34.6364 73.849Z" fill="#8FBCEB"/>
<path d="M46.1872 80.5177C45.7792 80.5177 45.3654 80.4135 44.9871 80.1941L44.9247 80.1581C43.7774 79.4938 43.3857 78.0258 44.0501 76.8785C44.7144 75.7312 46.1819 75.339 47.3302 76.0039L47.3926 76.0399C48.5399 76.7043 48.9316 78.1722 48.2672 79.3195C47.8217 80.0885 47.0157 80.5177 46.1872 80.5177Z" fill="#8FBCEB"/>
<path d="M34.5788 80.5176C33.7503 80.5176 32.9443 80.0879 32.4993 79.3194C31.8349 78.1721 32.2266 76.7042 33.3739 76.0398L33.4363 76.0038C34.5841 75.3389 36.0525 75.7316 36.7164 76.8784C37.3808 78.0257 36.9891 79.4937 35.8418 80.158L35.7794 80.194C35.4006 80.4134 34.9868 80.5176 34.5788 80.5176Z" fill="#8FBCEB"/>
<path d="M46.1296 73.8489C45.301 73.8489 44.4951 73.4197 44.0501 72.6507C43.3857 71.5034 43.7774 70.0355 44.9247 69.3711L44.9871 69.3351C46.1349 68.6702 47.6028 69.0629 48.2667 70.2097C48.9311 71.357 48.5394 72.825 47.3921 73.4893L47.3297 73.5253C46.9514 73.7452 46.5376 73.8489 46.1296 73.8489Z" fill="#8FBCEB"/>
<defs>
<linearGradient id="paint0_linear_7082_55588" x1="100.5" y1="4.97445" x2="100.5" y2="195.026" gradientUnits="userSpaceOnUse">
<stop stop-color="#E6F6F4"/>
<stop offset="1" stop-color="#E6F6F4" stop-opacity="0"/>
</linearGradient>
<linearGradient id="paint1_linear_7082_55588" x1="100.498" y1="4.97388" x2="100.498" y2="195.025" gradientUnits="userSpaceOnUse">
<stop stop-color="#E6F6F4" stop-opacity="0"/>
<stop offset="1" stop-color="#E6F6F4"/>
</linearGradient>
</defs>
</svg>
