<svg width="200" height="200" viewBox="0 0 200 200" fill="none" xmlns="http://www.w3.org/2000/svg">
<circle cx="100" cy="99.9974" r="95.0256" transform="rotate(176.916 100 99.9974)" fill="url(#paint0_linear_7082_55123)"/>
<path opacity="0.1" d="M138.285 162.726H59.9792C57.6026 162.726 55.6758 160.8 55.6758 158.423V54.7722C55.6758 52.3955 57.6026 50.4688 59.9792 50.4688H138.286C140.662 50.4688 142.589 52.3955 142.589 54.7722V158.423C142.589 160.8 140.662 162.726 138.285 162.726Z" fill="#358888"/>
<path d="M138.285 155.554H59.9792C57.6026 155.554 55.6758 153.628 55.6758 151.251V47.6003C55.6758 45.2237 57.6026 43.2969 59.9792 43.2969H138.286C140.662 43.2969 142.589 45.2237 142.589 47.6003V151.251C142.589 153.628 140.662 155.554 138.285 155.554Z" fill="#358888"/>
<path d="M138.286 156.986H59.9801C56.8162 156.986 54.2422 154.412 54.2422 151.248V47.5973C54.2422 44.4334 56.8162 41.8594 59.9801 41.8594H91.8428C92.6349 41.8594 93.2773 42.5014 93.2773 43.2939C93.2773 44.0863 92.6349 44.7283 91.8428 44.7283H59.9801C58.3982 44.7283 57.1111 46.0154 57.1111 47.5973V151.248C57.1111 152.83 58.3982 154.117 59.9801 154.117H138.286C139.868 154.117 141.155 152.83 141.155 151.248V96.3258C141.155 95.5334 141.797 94.8913 142.59 94.8913C143.382 94.8913 144.024 95.5334 144.024 96.3258V151.248C144.024 154.412 141.45 156.986 138.286 156.986Z" fill="#358888"/>
<path d="M142.59 89.411C141.798 89.411 141.156 88.7689 141.156 87.9765V47.5973C141.156 46.0154 139.869 44.7283 138.287 44.7283H100.192C99.4002 44.7283 98.7578 44.0863 98.7578 43.2939C98.7578 42.5014 99.4002 41.8594 100.192 41.8594H138.287C141.451 41.8594 144.025 44.4334 144.025 47.5973V87.9765C144.025 88.7689 143.382 89.411 142.59 89.411Z" fill="#358888"/>
<path d="M67.4808 147.846H65.6103C64.8179 147.846 64.1758 147.203 64.1758 146.411C64.1758 145.619 64.8179 144.977 65.6103 144.977H67.4808C68.2732 144.977 68.9153 145.619 68.9153 146.411C68.9153 147.203 68.2732 147.846 67.4808 147.846Z" fill="#D8EC9C"/>
<path d="M96.1705 142.674H65.6103C64.8179 142.674 64.1758 142.031 64.1758 141.239C64.1758 140.447 64.8179 139.805 65.6103 139.805H96.1705C96.9629 139.805 97.6049 140.447 97.6049 141.239C97.6049 142.031 96.9629 142.674 96.1705 142.674Z" fill="#F9EEB4"/>
<path d="M77.1214 147.846H75.2509C74.4585 147.846 73.8164 147.203 73.8164 146.411C73.8164 145.619 74.4585 144.977 75.2509 144.977H77.1214C77.9139 144.977 78.5559 145.619 78.5559 146.411C78.5559 147.203 77.9139 147.846 77.1214 147.846Z" fill="#D8EC9C"/>
<path d="M86.7621 147.846H84.8915C84.0991 147.846 83.457 147.203 83.457 146.411C83.457 145.619 84.0991 144.977 84.8915 144.977H86.7621C87.5545 144.977 88.1966 145.619 88.1966 146.411C88.1966 147.203 87.5542 147.846 86.7621 147.846Z" fill="#D8EC9C"/>
<path d="M104.532 142.674H102.661C101.869 142.674 101.227 142.031 101.227 141.239C101.227 140.447 101.869 139.805 102.661 139.805H104.532C105.324 139.805 105.966 140.447 105.966 141.239C105.966 142.031 105.324 142.674 104.532 142.674Z" fill="#B5E4DE"/>
<path d="M132.657 147.855C131.865 147.855 131.223 147.213 131.223 146.421V146.388C131.223 145.595 131.865 144.953 132.657 144.953C133.449 144.953 134.092 145.595 134.092 146.388V146.421C134.092 147.213 133.45 147.855 132.657 147.855Z" fill="#B5E4DE"/>
<path d="M132.657 142.683C131.865 142.683 131.223 142.041 131.223 141.249V141.216C131.223 140.424 131.865 139.781 132.657 139.781C133.449 139.781 134.092 140.424 134.092 141.216V141.249C134.092 142.041 133.45 142.683 132.657 142.683Z" fill="#B5E4DE"/>
<path d="M132.657 137.511C131.865 137.511 131.223 136.869 131.223 136.077V136.044C131.223 135.252 131.865 134.609 132.657 134.609C133.449 134.609 134.092 135.252 134.092 136.044V136.077C134.092 136.869 133.45 137.511 132.657 137.511Z" fill="#B5E4DE"/>
<path d="M132.657 132.339C131.865 132.339 131.223 131.697 131.223 130.905V130.872C131.223 130.08 131.865 129.438 132.657 129.438C133.449 129.438 134.092 130.08 134.092 130.872V130.905C134.092 131.697 133.45 132.339 132.657 132.339Z" fill="#B5E4DE"/>
<path d="M66.5439 69.4098C65.7517 69.4098 65.1094 68.7674 65.1094 67.9753V67.9423C65.1094 67.1502 65.7517 66.5078 66.5439 66.5078C67.336 66.5078 67.9783 67.1502 67.9783 67.9423V67.9753C67.9783 68.7674 67.336 69.4098 66.5439 69.4098Z" fill="#B5E4DE"/>
<path d="M66.5439 64.2379C65.7517 64.2379 65.1094 63.5955 65.1094 62.8034V62.7704C65.1094 61.9783 65.7517 61.3359 66.5439 61.3359C67.336 61.3359 67.9783 61.9783 67.9783 62.7704V62.8034C67.9783 63.5958 67.336 64.2379 66.5439 64.2379Z" fill="#B5E4DE"/>
<path d="M66.5439 59.066C65.7517 59.066 65.1094 58.4237 65.1094 57.6315V57.5985C65.1094 56.8064 65.7517 56.1641 66.5439 56.1641C67.336 56.1641 67.9783 56.8064 67.9783 57.5985V57.6315C67.9783 58.4237 67.336 59.066 66.5439 59.066Z" fill="#B5E4DE"/>
<path d="M66.5439 53.8941C65.7517 53.8941 65.1094 53.2518 65.1094 52.4597V52.4267C65.1094 51.6345 65.7517 50.9922 66.5439 50.9922C67.336 50.9922 67.9783 51.6345 67.9783 52.4267V52.4597C67.9783 53.2518 67.336 53.8941 66.5439 53.8941Z" fill="#B5E4DE"/>
<path d="M128.699 90.7719C127.685 90.2446 126.435 90.6397 125.908 91.6541C125.381 92.6686 125.776 93.9183 126.79 94.4454C127.057 94.5836 127.255 94.7059 127.4 94.8074C126.611 95.3508 124.547 96.2915 120.194 97.1078C115.42 98.0034 109.271 98.4966 102.882 98.4966V92.0062C110.202 92.0062 117.106 91.3994 122.32 90.2977C128.812 88.9258 131.836 87.0059 131.836 84.2554C131.836 83.3732 131.48 82.0741 129.78 80.8967C128.841 80.2457 127.551 80.4795 126.9 81.4191C126.262 82.3395 126.473 83.5952 127.365 84.2582C126.542 84.7985 124.464 85.7105 120.176 86.5012C115.403 87.3814 109.262 87.8663 102.882 87.8663V83.4463C108.875 83.4463 114.532 82.9104 118.811 81.9373C122.253 81.1543 126.829 79.7284 126.829 76.4002C126.829 74.8971 125.869 73.6244 123.974 72.6174C122.965 72.0815 121.711 72.4645 121.174 73.4741C120.638 74.4837 121.021 75.7369 122.031 76.2736C122.125 76.3238 122.209 76.3712 122.282 76.4151C120.348 77.5836 113.706 79.3061 102.882 79.3061V75.3828C109.97 75.3731 121.871 73.9007 121.871 68.4313C121.871 67.1919 121.22 65.4135 118.12 63.9807C117.082 63.5007 115.852 63.9535 115.372 64.9912C114.892 66.0289 115.345 67.2591 116.383 67.7388C117.013 68.0302 117.369 68.2761 117.564 68.4411C116.42 69.4269 111.484 71.2326 102.882 71.2426V70.3116C102.882 68.9366 101.767 67.8217 100.392 67.8217H97.8744C96.4993 67.8217 95.3844 68.9366 95.3844 70.3116V71.2426C86.7818 71.2326 81.8461 69.4266 80.7019 68.4411C80.8967 68.2764 81.2533 68.0302 81.8834 67.7388C82.9211 67.2591 83.3735 66.0289 82.8938 64.9912C82.4141 63.9532 81.1833 63.501 80.1462 63.9807C77.046 65.4138 76.3953 67.1919 76.3953 68.4313C76.3953 73.9007 88.2963 75.3731 95.3844 75.3828V79.3061C84.5601 79.3061 77.9182 77.5836 75.9836 76.4151C76.0574 76.3709 76.1406 76.3236 76.2349 76.2736C77.2445 75.7371 77.6281 74.4837 77.0916 73.4741C76.5548 72.4645 75.3017 72.0812 74.2921 72.6174C72.3971 73.6244 71.4366 74.8971 71.4366 76.4002C71.4366 79.7284 76.0132 81.1543 79.4554 81.9373C83.7338 82.9104 89.3909 83.4463 95.3844 83.4463V87.8663C89.0044 87.8663 82.8625 87.3814 78.0897 86.5012C73.8018 85.7105 71.7244 84.7985 70.9013 84.2582C71.7926 83.5952 72.0038 82.3395 71.366 81.4191C70.7148 80.4795 69.4255 80.2451 68.4856 80.8967C66.7863 82.0741 66.4297 83.3732 66.4297 84.2554C66.4297 87.0059 69.4536 88.9258 75.946 90.2977C81.1604 91.3997 88.0637 92.0062 95.3844 92.0062V98.4966C88.9946 98.4966 82.8465 98.0034 78.0717 97.1078C73.7197 96.2915 71.6552 95.3505 70.866 94.8074C71.0114 94.7059 71.2094 94.5836 71.4756 94.4454C72.4901 93.9183 72.8851 92.6683 72.3578 91.6541C71.8308 90.6397 70.5814 90.2443 69.5666 90.7719C67.4852 91.8535 66.4297 93.21 66.4297 94.8028C66.4297 97.5734 69.4519 99.5114 75.9403 100.903C81.1566 102.021 88.0619 102.637 95.3847 102.637V108.413C89.4032 108.413 83.6139 108.054 79.0827 107.402C76.0903 106.971 74.2488 106.505 73.1367 106.131C74.1176 105.702 74.618 104.583 74.2599 103.554C73.8838 102.475 72.7035 101.904 71.6242 102.28C70.6433 102.622 67.6582 103.661 67.6582 106.134C67.6582 108.622 70.4213 110.152 76.8968 111.25C81.8535 112.091 88.4191 112.553 95.3847 112.553V112.608C95.3847 113.983 96.4996 115.098 97.8747 115.098H100.392C101.767 115.098 102.882 113.983 102.882 112.608V112.553C109.847 112.553 116.413 112.091 121.37 111.25C127.845 110.153 130.608 108.623 130.608 106.134C130.608 103.661 127.623 102.622 126.642 102.28C125.563 101.905 124.383 102.475 124.007 103.554C123.649 104.583 124.149 105.702 125.13 106.131C124.018 106.505 122.176 106.971 119.184 107.402C114.653 108.054 108.863 108.413 102.882 108.413V102.637C110.205 102.637 117.11 102.021 122.326 100.903C128.815 99.5114 131.837 97.5731 131.837 94.8028C131.837 93.2097 130.781 91.8535 128.699 90.7719Z" fill="white"/>
<path d="M94.9991 65.4187H103.265C104.717 65.4187 105.893 64.2421 105.893 62.7907V61.6905C105.893 60.2391 104.717 59.0625 103.265 59.0625H94.9991C93.5477 59.0625 92.3711 60.2391 92.3711 61.6905V62.7907C92.3711 64.2421 93.5477 65.4187 94.9991 65.4187Z" fill="white"/>
<path d="M101.888 117.5H96.3819C94.9305 117.5 93.7539 118.677 93.7539 120.128V121.228C93.7539 122.68 94.9305 123.856 96.3819 123.856H101.888C103.339 123.856 104.516 122.68 104.516 121.228V120.128C104.516 118.677 103.339 117.5 101.888 117.5Z" fill="white"/>
<path d="M101.888 126.258H96.3819C94.9305 126.258 93.7539 127.434 93.7539 128.886V129.986C93.7539 131.437 94.9305 132.614 96.3819 132.614H101.888C103.339 132.614 104.516 131.437 104.516 129.986V128.886C104.516 127.434 103.339 126.258 101.888 126.258Z" fill="white"/>
<path d="M44.7936 61.2126C43.4682 61.2126 42.3934 60.1383 42.3934 58.8124C42.3934 57.1361 41.0296 55.7719 39.3533 55.7719C38.0279 55.7719 36.9531 54.6976 36.9531 53.3717C36.9531 52.0458 38.0279 50.9715 39.3533 50.9715C41.0296 50.9715 42.3934 49.6077 42.3934 47.9314C42.3934 46.6056 43.4682 45.5312 44.7936 45.5312C46.1189 45.5312 47.1938 46.6056 47.1938 47.9314C47.1938 49.6077 48.5575 50.9715 50.2338 50.9715C51.5592 50.9715 52.634 52.0458 52.634 53.3717C52.634 54.6976 51.5592 55.7719 50.2338 55.7719C48.5575 55.7719 47.1938 57.1361 47.1938 58.8124C47.1938 60.1383 46.1194 61.2126 44.7936 61.2126Z" fill="#D8EC9C"/>
<path d="M154.669 148.322C153.343 148.322 152.268 147.248 152.268 145.922C152.268 144.246 150.905 142.881 149.228 142.881C147.903 142.881 146.828 141.807 146.828 140.481C146.828 139.155 147.903 138.081 149.228 138.081C150.905 138.081 152.268 136.717 152.268 135.041C152.268 133.715 153.343 132.641 154.669 132.641C155.994 132.641 157.069 133.715 157.069 135.041C157.069 136.717 158.433 138.081 160.109 138.081C161.435 138.081 162.51 139.155 162.51 140.481C162.51 141.807 161.435 142.881 160.109 142.881C158.433 142.881 157.069 144.246 157.069 145.922C157.069 147.247 155.994 148.322 154.669 148.322Z" fill="#D8EC9C"/>
<path d="M39.8846 70.5281C38.5592 70.5281 37.4844 69.4538 37.4844 68.128V68.0564C37.4844 66.7306 38.5592 65.6562 39.8846 65.6562C41.2099 65.6562 42.2847 66.7306 42.2847 68.0564V68.128C42.2847 69.4538 41.2104 70.5281 39.8846 70.5281Z" fill="#F9EEB4"/>
<path d="M39.8846 83.8641C38.5592 83.8641 37.4844 82.7898 37.4844 81.4639V81.3924C37.4844 80.0665 38.5592 78.9922 39.8846 78.9922C41.2099 78.9922 42.2847 80.0665 42.2847 81.3924V81.4639C42.2847 82.7898 41.2104 83.8641 39.8846 83.8641Z" fill="#F9EEB4"/>
<path d="M34.1364 73.8453C33.7284 73.8453 33.3151 73.7411 32.9363 73.5218L32.8739 73.4858C31.7266 72.8214 31.3349 71.3534 31.9993 70.2062C32.6632 69.0589 34.1316 68.6667 35.2794 69.3315L35.3418 69.3675C36.4891 70.0319 36.8808 71.4999 36.2164 72.6471C35.7709 73.4162 34.965 73.8453 34.1364 73.8453Z" fill="#F9EEB4"/>
<path d="M45.6872 80.5172C45.2792 80.5172 44.8654 80.413 44.4871 80.1936L44.4247 80.1576C43.2774 79.4933 42.8857 78.0253 43.5501 76.878C44.2144 75.7307 45.6819 75.3386 46.8302 76.0034L46.8926 76.0394C48.0399 76.7038 48.4316 78.1717 47.7672 79.319C47.3217 80.088 46.5157 80.5172 45.6872 80.5172Z" fill="#F9EEB4"/>
<path d="M34.0788 80.5171C33.2503 80.5171 32.4443 80.0875 31.9993 79.3189C31.3349 78.1716 31.7266 76.7037 32.8739 76.0393L32.9363 76.0033C34.0841 75.3385 35.5525 75.7311 36.2164 76.8779C36.8808 78.0252 36.4891 79.4932 35.3418 80.1575L35.2794 80.1935C34.9006 80.4129 34.4868 80.5171 34.0788 80.5171Z" fill="#F9EEB4"/>
<path d="M45.6296 73.8452C44.801 73.8452 43.9951 73.4161 43.5501 72.647C42.8857 71.4998 43.2774 70.0318 44.4247 69.3674L44.4871 69.3314C45.6349 68.6666 47.1028 69.0592 47.7667 70.206C48.4311 71.3533 48.0394 72.8213 46.8921 73.4857L46.8297 73.5217C46.4514 73.7415 46.0376 73.8452 45.6296 73.8452Z" fill="#F9EEB4"/>
<circle cx="99.9983" cy="100.002" r="95.0256" fill="url(#paint1_linear_7082_55123)"/>
<path opacity="0.1" d="M138.285 162.726H59.9792C57.6026 162.726 55.6758 160.8 55.6758 158.423V54.7722C55.6758 52.3955 57.6026 50.4688 59.9792 50.4688H138.286C140.662 50.4688 142.589 52.3955 142.589 54.7722V158.423C142.589 160.8 140.662 162.726 138.285 162.726Z" fill="#358888"/>
<path d="M138.285 155.554H59.9792C57.6026 155.554 55.6758 153.628 55.6758 151.251V47.6003C55.6758 45.2237 57.6026 43.2969 59.9792 43.2969H138.286C140.662 43.2969 142.589 45.2237 142.589 47.6003V151.251C142.589 153.628 140.662 155.554 138.285 155.554Z" fill="#358888"/>
<path fill-rule="evenodd" clip-rule="evenodd" d="M74.6598 86.9327C74.0197 87.5729 74.0197 88.6108 74.6598 89.251C75.2999 89.8912 76.3378 89.8912 76.978 89.251L78.1378 88.0912L83.9325 93.8859L79.2962 98.5224C78.656 99.1625 78.656 100.2 79.2962 100.841C79.9362 101.481 80.9741 101.481 81.6143 100.841L83.932 98.5228L103.637 118.228C106.013 120.605 109.486 121.217 112.427 120.064L114.069 121.706C114.927 122.564 116.143 122.847 117.237 122.555L121.024 126.342C121.664 126.982 122.701 126.982 123.342 126.342C123.982 125.701 123.982 124.664 123.342 124.023L119.554 120.236C119.846 119.142 119.563 117.927 118.705 117.069L117.064 115.428C118.216 112.487 117.604 109.014 115.228 106.637L95.5228 86.9316L97.8415 84.613C98.4817 83.9728 98.4817 82.9349 97.8415 82.2947C97.2014 81.6546 96.1635 81.6546 95.5234 82.2947L90.8869 86.9312L85.0923 81.1364L86.2506 79.978C86.8908 79.3379 86.8908 78.3 86.2506 77.6598C85.6106 77.0196 84.5727 77.0196 83.9325 77.6598L74.6598 86.9327ZM88.8835 88.9348L83.0889 83.1399L80.1412 86.0876L85.936 91.8824L88.8835 88.9348ZM93.5194 88.9352L85.9354 96.5193L92.1772 102.761L99.7612 95.177L93.5194 88.9352ZM94.4953 105.08L97.9727 108.557C99.9751 110.559 98.4997 109.084 100.291 110.875L102.608 113.193C104.166 114.751 103.811 114.395 104.927 115.511L105.641 116.225C107.196 117.781 109.47 118.181 111.395 117.425L114.425 114.395C115.18 112.47 114.78 110.196 113.225 108.641L102.079 97.4953L94.4953 105.08ZM116.741 119.118C116.729 119.102 116.716 119.087 116.702 119.073L115.534 117.905C115.436 118.015 115.334 118.123 115.228 118.228C115.122 118.334 115.014 118.436 114.905 118.535L116.072 119.702C116.086 119.717 116.102 119.73 116.117 119.742C116.189 119.615 116.279 119.495 116.387 119.387C116.495 119.279 116.614 119.189 116.741 119.118Z" fill="white"/>
<path d="M78.1352 86.0841L77.1334 87.0858L75.9736 88.2457C75.8867 88.3326 75.7458 88.3326 75.6589 88.2457C75.572 88.1588 75.572 88.0178 75.6589 87.9308L84.9316 78.658L83.9299 77.6562L84.9316 78.658C85.0185 78.5711 85.1594 78.5711 85.2463 78.658C85.3333 78.7449 85.3333 78.8858 85.2463 78.9728L84.088 80.1311L83.0863 81.1328L82.0846 82.1346L79.1369 85.0823L78.1352 86.0841ZM84.9316 94.8841L85.9334 93.8824L86.9351 92.8805L89.8827 89.9329L90.8843 88.9311L91.8861 87.9294L96.5225 83.2929C96.6094 83.206 96.7503 83.206 96.8372 83.2929C96.9241 83.3798 96.9241 83.5207 96.8372 83.6077L94.5185 85.9264L93.5168 86.9281L92.5151 87.9298L84.9311 95.5141L83.9293 96.5158L82.9276 97.5175L80.61 99.8354C80.5231 99.9222 80.3822 99.9222 80.2953 99.8354C80.2083 99.7484 80.2083 99.6074 80.2953 99.5206L84.9316 94.8841ZM95.9666 108.554L92.2622 104.849L92.4557 104.656L91.1706 103.673C90.9788 103.526 90.7927 103.367 90.6132 103.197C90.9111 103.48 91.2293 103.731 91.5632 103.951L92.5272 104.584L93.3428 103.768L100.769 96.3417L101.585 95.5261L100.952 94.5621C100.734 94.2314 100.486 93.9162 100.206 93.6209C100.373 93.7977 100.529 93.9808 100.673 94.1695L101.657 95.4546L101.85 95.2615L114.223 107.636C116.188 109.6 116.697 112.472 115.742 114.908L115.404 115.771L116.059 116.426L117.701 118.068C118.186 118.553 118.35 119.242 118.183 119.867L117.972 120.656L118.55 121.234L122.337 125.022C122.424 125.108 122.424 125.249 122.337 125.336C122.25 125.423 122.11 125.423 122.023 125.336L118.236 121.549L117.658 120.971L116.868 121.182C116.243 121.35 115.554 121.187 115.068 120.701L113.426 119.059L112.771 118.404L111.908 118.742C109.592 119.649 106.882 119.234 104.933 117.503L108.559 113.877C109.752 112.683 109.752 110.748 108.559 109.555L107.558 110.557L108.559 109.555C107.366 108.362 105.431 108.362 104.238 109.555L100.603 113.19L100.288 112.875L103.923 109.24C105.117 108.047 105.117 106.112 103.923 104.919C102.73 103.725 100.795 103.725 99.6015 104.919L95.9666 108.554Z" fill="white" stroke="white" stroke-width="2.83333"/>
<path d="M138.286 156.986H59.9801C56.8162 156.986 54.2422 154.412 54.2422 151.248V47.5973C54.2422 44.4334 56.8162 41.8594 59.9801 41.8594H91.8428C92.6349 41.8594 93.2773 42.5014 93.2773 43.2939C93.2773 44.0863 92.6349 44.7283 91.8428 44.7283H59.9801C58.3982 44.7283 57.1111 46.0154 57.1111 47.5973V151.248C57.1111 152.83 58.3982 154.117 59.9801 154.117H138.286C139.868 154.117 141.155 152.83 141.155 151.248V96.3258C141.155 95.5334 141.797 94.8913 142.59 94.8913C143.382 94.8913 144.024 95.5334 144.024 96.3258V151.248C144.024 154.412 141.45 156.986 138.286 156.986Z" fill="#358888"/>
<path d="M142.59 89.411C141.798 89.411 141.156 88.7689 141.156 87.9765V47.5973C141.156 46.0154 139.869 44.7283 138.287 44.7283H100.192C99.4002 44.7283 98.7578 44.0863 98.7578 43.2939C98.7578 42.5014 99.4002 41.8594 100.192 41.8594H138.287C141.451 41.8594 144.025 44.4334 144.025 47.5973V87.9765C144.025 88.7689 143.382 89.411 142.59 89.411Z" fill="#358888"/>
<path d="M67.4808 147.846H65.6103C64.8179 147.846 64.1758 147.203 64.1758 146.411C64.1758 145.619 64.8179 144.977 65.6103 144.977H67.4808C68.2732 144.977 68.9153 145.619 68.9153 146.411C68.9153 147.203 68.2732 147.846 67.4808 147.846Z" fill="#DBEDFB"/>
<path d="M96.1705 142.674H65.6103C64.8179 142.674 64.1758 142.031 64.1758 141.239C64.1758 140.447 64.8179 139.805 65.6103 139.805H96.1705C96.9629 139.805 97.6049 140.447 97.6049 141.239C97.6049 142.031 96.9629 142.674 96.1705 142.674Z" fill="#DBEDFB"/>
<path d="M77.1214 147.846H75.2509C74.4585 147.846 73.8164 147.203 73.8164 146.411C73.8164 145.619 74.4585 144.977 75.2509 144.977H77.1214C77.9139 144.977 78.5559 145.619 78.5559 146.411C78.5559 147.203 77.9139 147.846 77.1214 147.846Z" fill="#DBEDFB"/>
<path d="M86.7621 147.846H84.8915C84.0991 147.846 83.457 147.203 83.457 146.411C83.457 145.619 84.0991 144.977 84.8915 144.977H86.7621C87.5545 144.977 88.1966 145.619 88.1966 146.411C88.1966 147.203 87.5542 147.846 86.7621 147.846Z" fill="#DBEDFB"/>
<path d="M104.532 142.674H102.661C101.869 142.674 101.227 142.031 101.227 141.239C101.227 140.447 101.869 139.805 102.661 139.805H104.532C105.324 139.805 105.966 140.447 105.966 141.239C105.966 142.031 105.324 142.674 104.532 142.674Z" fill="#B5E4DE"/>
<path d="M132.657 147.855C131.865 147.855 131.223 147.213 131.223 146.421V146.388C131.223 145.595 131.865 144.953 132.657 144.953C133.449 144.953 134.092 145.595 134.092 146.388V146.421C134.092 147.213 133.45 147.855 132.657 147.855Z" fill="#B5E4DE"/>
<path d="M132.657 142.683C131.865 142.683 131.223 142.041 131.223 141.249V141.216C131.223 140.424 131.865 139.781 132.657 139.781C133.449 139.781 134.092 140.424 134.092 141.216V141.249C134.092 142.041 133.45 142.683 132.657 142.683Z" fill="#B5E4DE"/>
<path d="M132.657 137.511C131.865 137.511 131.223 136.869 131.223 136.077V136.044C131.223 135.252 131.865 134.609 132.657 134.609C133.449 134.609 134.092 135.252 134.092 136.044V136.077C134.092 136.869 133.45 137.511 132.657 137.511Z" fill="#B5E4DE"/>
<path d="M132.657 132.339C131.865 132.339 131.223 131.697 131.223 130.905V130.872C131.223 130.08 131.865 129.438 132.657 129.438C133.449 129.438 134.092 130.08 134.092 130.872V130.905C134.092 131.697 133.45 132.339 132.657 132.339Z" fill="#B5E4DE"/>
<path d="M66.5439 69.4098C65.7517 69.4098 65.1094 68.7674 65.1094 67.9753V67.9423C65.1094 67.1502 65.7517 66.5078 66.5439 66.5078C67.336 66.5078 67.9783 67.1502 67.9783 67.9423V67.9753C67.9783 68.7674 67.336 69.4098 66.5439 69.4098Z" fill="#B5E4DE"/>
<path d="M66.5439 64.2379C65.7517 64.2379 65.1094 63.5955 65.1094 62.8034V62.7704C65.1094 61.9783 65.7517 61.3359 66.5439 61.3359C67.336 61.3359 67.9783 61.9783 67.9783 62.7704V62.8034C67.9783 63.5958 67.336 64.2379 66.5439 64.2379Z" fill="#B5E4DE"/>
<path d="M66.5439 59.066C65.7517 59.066 65.1094 58.4237 65.1094 57.6315V57.5985C65.1094 56.8064 65.7517 56.1641 66.5439 56.1641C67.336 56.1641 67.9783 56.8064 67.9783 57.5985V57.6315C67.9783 58.4237 67.336 59.066 66.5439 59.066Z" fill="#B5E4DE"/>
<path d="M66.5439 53.8941C65.7517 53.8941 65.1094 53.2518 65.1094 52.4597V52.4267C65.1094 51.6345 65.7517 50.9922 66.5439 50.9922C67.336 50.9922 67.9783 51.6345 67.9783 52.4267V52.4597C67.9783 53.2518 67.336 53.8941 66.5439 53.8941Z" fill="#B5E4DE"/>
<path d="M44.7936 61.2126C43.4682 61.2126 42.3934 60.1383 42.3934 58.8124C42.3934 57.1361 41.0296 55.7719 39.3533 55.7719C38.0279 55.7719 36.9531 54.6976 36.9531 53.3717C36.9531 52.0458 38.0279 50.9715 39.3533 50.9715C41.0296 50.9715 42.3934 49.6077 42.3934 47.9314C42.3934 46.6056 43.4682 45.5312 44.7936 45.5312C46.1189 45.5312 47.1938 46.6056 47.1938 47.9314C47.1938 49.6077 48.5575 50.9715 50.2338 50.9715C51.5592 50.9715 52.634 52.0458 52.634 53.3717C52.634 54.6976 51.5592 55.7719 50.2338 55.7719C48.5575 55.7719 47.1938 57.1361 47.1938 58.8124C47.1938 60.1383 46.1194 61.2126 44.7936 61.2126Z" fill="#FF9F81"/>
<path d="M154.669 148.322C153.343 148.322 152.268 147.248 152.268 145.922C152.268 144.246 150.905 142.881 149.228 142.881C147.903 142.881 146.828 141.807 146.828 140.481C146.828 139.155 147.903 138.081 149.228 138.081C150.905 138.081 152.268 136.717 152.268 135.041C152.268 133.715 153.343 132.641 154.669 132.641C155.994 132.641 157.069 133.715 157.069 135.041C157.069 136.717 158.433 138.081 160.109 138.081C161.435 138.081 162.51 139.155 162.51 140.481C162.51 141.807 161.435 142.881 160.109 142.881C158.433 142.881 157.069 144.246 157.069 145.922C157.069 147.247 155.994 148.322 154.669 148.322Z" fill="#FF9F81"/>
<path d="M39.8846 70.5281C38.5592 70.5281 37.4844 69.4538 37.4844 68.128V68.0564C37.4844 66.7306 38.5592 65.6562 39.8846 65.6562C41.2099 65.6562 42.2847 66.7306 42.2847 68.0564V68.128C42.2847 69.4538 41.2104 70.5281 39.8846 70.5281Z" fill="#8FBCEB"/>
<path d="M39.8846 83.8641C38.5592 83.8641 37.4844 82.7898 37.4844 81.4639V81.3924C37.4844 80.0665 38.5592 78.9922 39.8846 78.9922C41.2099 78.9922 42.2847 80.0665 42.2847 81.3924V81.4639C42.2847 82.7898 41.2104 83.8641 39.8846 83.8641Z" fill="#8FBCEB"/>
<path d="M34.1364 73.8453C33.7284 73.8453 33.3151 73.7411 32.9363 73.5218L32.8739 73.4858C31.7266 72.8214 31.3349 71.3534 31.9993 70.2062C32.6632 69.0589 34.1316 68.6667 35.2794 69.3315L35.3418 69.3675C36.4891 70.0319 36.8808 71.4999 36.2164 72.6471C35.7709 73.4162 34.965 73.8453 34.1364 73.8453Z" fill="#8FBCEB"/>
<path d="M45.6872 80.5172C45.2792 80.5172 44.8654 80.413 44.4871 80.1936L44.4247 80.1576C43.2774 79.4933 42.8857 78.0253 43.5501 76.878C44.2144 75.7307 45.6819 75.3386 46.8302 76.0034L46.8926 76.0394C48.0399 76.7038 48.4316 78.1717 47.7672 79.319C47.3217 80.088 46.5157 80.5172 45.6872 80.5172Z" fill="#8FBCEB"/>
<path d="M34.0788 80.5171C33.2503 80.5171 32.4443 80.0875 31.9993 79.3189C31.3349 78.1716 31.7266 76.7037 32.8739 76.0393L32.9363 76.0033C34.0841 75.3385 35.5525 75.7311 36.2164 76.8779C36.8808 78.0252 36.4891 79.4932 35.3418 80.1575L35.2794 80.1935C34.9006 80.4129 34.4868 80.5171 34.0788 80.5171Z" fill="#8FBCEB"/>
<path d="M45.6296 73.8452C44.801 73.8452 43.9951 73.4161 43.5501 72.647C42.8857 71.4998 43.2774 70.0318 44.4247 69.3674L44.4871 69.3314C45.6349 68.6666 47.1028 69.0592 47.7667 70.206C48.4311 71.3533 48.0394 72.8213 46.8921 73.4857L46.8297 73.5217C46.4514 73.7415 46.0376 73.8452 45.6296 73.8452Z" fill="#8FBCEB"/>
<defs>
<linearGradient id="paint0_linear_7082_55123" x1="100" y1="4.97176" x2="100" y2="195.023" gradientUnits="userSpaceOnUse">
<stop stop-color="#E6F6F4"/>
<stop offset="1" stop-color="#E6F6F4" stop-opacity="0"/>
</linearGradient>
<linearGradient id="paint1_linear_7082_55123" x1="99.9983" y1="4.97656" x2="99.9983" y2="195.028" gradientUnits="userSpaceOnUse">
<stop stop-color="#E6F6F4" stop-opacity="0"/>
<stop offset="1" stop-color="#E6F6F4"/>
</linearGradient>
</defs>
</svg>
