<svg width="63" height="62" viewBox="0 0 63 62" fill="none" xmlns="http://www.w3.org/2000/svg">
<ellipse cx="31.2656" cy="31" rx="31" ry="31" fill="url(#paint0_linear_7769_39227)"/>
<path opacity="0.2" d="M42.3421 30.9933C42.3421 33.183 41.6928 35.3236 40.4762 37.1443C39.2597 38.9649 37.5305 40.384 35.5075 41.222C33.4845 42.0599 31.2584 42.2792 29.1107 41.852C26.9631 41.4248 24.9903 40.3704 23.442 38.822C21.8936 37.2736 20.8392 35.3009 20.412 33.1532C19.9848 31.0056 20.204 28.7795 21.042 26.7565C21.88 24.7334 23.299 23.0043 25.1197 21.7877C26.9404 20.5712 29.0809 19.9219 31.2707 19.9219C34.207 19.9219 37.023 21.0883 39.0993 23.1646C41.1756 25.2409 42.3421 28.057 42.3421 30.9933Z" fill="#6A6D81"/>
<path d="M31.2675 19C28.8953 19 26.5764 19.7034 24.604 21.0214C22.6315 22.3393 21.0942 24.2125 20.1864 26.4041C19.2786 28.5957 19.0411 31.0074 19.5039 33.334C19.9667 35.6606 21.109 37.7977 22.7864 39.4751C24.4638 41.1525 26.601 42.2948 28.9276 42.7576C31.2542 43.2204 33.6658 42.9829 35.8574 42.0751C38.049 41.1673 39.9223 39.63 41.2402 37.6576C42.5581 35.6852 43.2615 33.3662 43.2615 30.994C43.2582 27.8141 41.9934 24.7653 39.7449 22.5167C37.4963 20.2681 34.4475 19.0034 31.2675 19ZM31.2675 41.1429C29.2602 41.1429 27.2981 40.5476 25.6291 39.4325C23.9602 38.3173 22.6594 36.7323 21.8912 34.8778C21.1231 33.0234 20.9221 30.9828 21.3137 29.0141C21.7053 27.0454 22.6719 25.2371 24.0912 23.8178C25.5105 22.3984 27.3189 21.4318 29.2876 21.0402C31.2562 20.6487 33.2968 20.8496 35.1513 21.6178C37.0057 22.3859 38.5908 23.6867 39.7059 25.3557C40.8211 27.0246 41.4163 28.9868 41.4163 30.994C41.4132 33.6847 40.343 36.2644 38.4404 38.167C36.5378 40.0696 33.9582 41.1398 31.2675 41.1429ZM38.6484 30.994C38.6484 31.2387 38.5512 31.4734 38.3782 31.6464C38.2052 31.8195 37.9705 31.9167 37.7258 31.9167H31.2675C31.0228 31.9167 30.7881 31.8195 30.6151 31.6464C30.4421 31.4734 30.3449 31.2387 30.3449 30.994V24.5357C30.3449 24.291 30.4421 24.0563 30.6151 23.8833C30.7881 23.7103 31.0228 23.6131 31.2675 23.6131C31.5122 23.6131 31.7469 23.7103 31.9199 23.8833C32.0929 24.0563 32.1901 24.291 32.1901 24.5357V30.0714H37.7258C37.9705 30.0714 38.2052 30.1686 38.3782 30.3417C38.5512 30.5147 38.6484 30.7494 38.6484 30.994Z" fill="#6A6D81"/>
<defs>
<linearGradient id="paint0_linear_7769_39227" x1="31.2656" y1="0" x2="31.2656" y2="62" gradientUnits="userSpaceOnUse">
<stop stop-color="#F0F2F9" stop-opacity="0"/>
<stop offset="1" stop-color="#F0F2F9"/>
</linearGradient>
</defs>
</svg>
