<svg width="17" height="17" viewBox="0 0 17 17" fill="none" xmlns="http://www.w3.org/2000/svg">
<path d="M8.76562 16.5C13.1839 16.5 16.7656 12.9183 16.7656 8.5C16.7656 4.08172 13.1839 0.5 8.76562 0.5C4.34735 0.5 0.765625 4.08172 0.765625 8.5C0.765625 12.9183 4.34735 16.5 8.76562 16.5Z" fill="#2A2536"/>
<path fill-rule="evenodd" clip-rule="evenodd" d="M4.38632 8.41205C6.71848 7.39596 8.27362 6.7261 9.05174 6.40245C11.2734 5.47838 11.7351 5.31786 12.036 5.31256C12.1021 5.31139 12.2501 5.32779 12.346 5.40557C12.4269 5.47124 12.4492 5.55995 12.4598 5.62222C12.4705 5.68448 12.4837 5.82632 12.4732 5.93715C12.3528 7.20214 11.8319 10.2719 11.5668 11.6887C11.4547 12.2882 11.2339 12.4893 11.0201 12.5089C10.5555 12.5517 10.2028 12.2019 9.7528 11.9069C9.04869 11.4454 8.65092 11.1581 7.96746 10.7077C7.17761 10.1872 7.68964 9.90112 8.13977 9.43359C8.25758 9.31124 10.3045 7.4494 10.3441 7.2805C10.3491 7.25938 10.3537 7.18064 10.3069 7.13906C10.2601 7.09749 10.1911 7.11171 10.1413 7.12301C10.0706 7.13904 8.94583 7.8825 6.76682 9.35339C6.44754 9.57263 6.15835 9.67945 5.89925 9.67385C5.61361 9.66768 5.06415 9.51235 4.65568 9.37957C4.15468 9.21672 3.75649 9.13061 3.79117 8.85404C3.80923 8.70998 4.00761 8.56265 4.38632 8.41205Z" fill="white"/>
</svg>
