<svg width="11" height="12" viewBox="0 0 11 12" fill="none" xmlns="http://www.w3.org/2000/svg">
<path d="M1.50781 0.757812C0.680469 0.757812 0.0078125 1.43047 0.0078125 2.25781V9.75781C0.0078125 10.5852 0.680469 11.2578 1.50781 11.2578H9.00781C9.83516 11.2578 10.5078 10.5852 10.5078 9.75781V2.25781C10.5078 1.43047 9.83516 0.757812 9.00781 0.757812H1.50781ZM8.47109 2.72656L6.03828 5.50625L8.9 9.28906H6.65937L4.90625 6.99453L2.89766 9.28906H1.78437L4.38594 6.31484L1.64141 2.72656H3.93828L5.525 4.82422L7.35781 2.72656H8.47109ZM7.58516 8.62344L3.60312 3.35703H2.93984L6.96641 8.62344H7.58281H7.58516Z" fill="white"/>
</svg>
