<svg width="14" height="16" viewBox="0 0 14 16" fill="none" xmlns="http://www.w3.org/2000/svg">
<g id="fa6-brands:square-x-twitter" clip-path="url(#clip0_11153_35731)">
<path id="Vector" d="M2.00781 1.01172C0.904687 1.01172 0.0078125 1.90859 0.0078125 3.01172V13.0117C0.0078125 14.1148 0.904687 15.0117 2.00781 15.0117H12.0078C13.1109 15.0117 14.0078 14.1148 14.0078 13.0117V3.01172C14.0078 1.90859 13.1109 1.01172 12.0078 1.01172H2.00781ZM11.2922 3.63672L8.04844 7.34297L11.8641 12.3867H8.87656L6.53906 9.32734L3.86094 12.3867H2.37656L5.84531 8.42109L2.18594 3.63672H5.24844L7.36406 6.43359L9.80781 3.63672H11.2922ZM10.1109 11.4992L4.80156 4.47734H3.91719L9.28594 11.4992H10.1078H10.1109Z" fill="black"/>
</g>
<defs>
<clipPath id="clip0_11153_35731">
<rect width="14" height="16" fill="white"/>
</clipPath>
</defs>
</svg>
