<svg width="20" height="20" viewBox="0 0 20 20" fill="none" xmlns="http://www.w3.org/2000/svg">
<path d="M3.33248 12.4158C2.71334 11.7832 2.24628 11.0181 1.96667 10.1783C1.68706 9.33844 1.60223 8.44601 1.71861 7.56856C1.83499 6.69111 2.14952 5.85164 2.63839 5.11376C3.12725 4.37587 3.77763 3.75891 4.54025 3.3096C5.30288 2.8603 6.15775 2.59044 7.04012 2.52046C7.92248 2.45048 8.8092 2.58222 9.63312 2.90569C10.457 3.22917 11.1965 3.7359 11.7956 4.38751C12.3947 5.03911 12.8376 5.8185 13.0908 6.66664H14.5825C15.3871 6.66655 16.1704 6.92524 16.8166 7.40451C17.4629 7.88378 17.9379 8.5582 18.1715 9.32815C18.405 10.0981 18.3847 10.9228 18.1136 11.6803C17.8425 12.4378 17.3349 13.0881 16.6658 13.535" stroke="#6A6D81" stroke-width="2" stroke-linecap="round" stroke-linejoin="round"/>
<path d="M10 10V17.5" stroke="#6A6D81" stroke-width="2" stroke-linecap="round" stroke-linejoin="round"/>
<path d="M13.3346 13.3333L10.0013 10L6.66797 13.3333" stroke="#6A6D81" stroke-width="2" stroke-linecap="round" stroke-linejoin="round"/>
</svg>
