<svg width="42" height="43" viewBox="0 0 42 43" fill="none" xmlns="http://www.w3.org/2000/svg">
<ellipse cx="21" cy="21.5" rx="21" ry="21" fill="url(#paint0_linear_7360_60198)"/>
<path opacity="0.2" d="M26 19C26 19.9889 25.7068 20.9556 25.1574 21.7779C24.6079 22.6001 23.8271 23.241 22.9134 23.6194C21.9998 23.9978 20.9945 24.0969 20.0246 23.9039C19.0546 23.711 18.1637 23.2348 17.4645 22.5355C16.7652 21.8363 16.289 20.9454 16.0961 19.9755C15.9031 19.0055 16.0022 18.0002 16.3806 17.0866C16.759 16.173 17.3999 15.3921 18.2222 14.8427C19.0444 14.2932 20.0111 14 21 14C22.3261 14 23.5979 14.5268 24.5355 15.4645C25.4732 16.4021 26 17.6739 26 19Z" fill="#6A6D81"/>
<path d="M29.0407 28.0624C27.8508 26.0054 26.0172 24.5304 23.8774 23.8312C24.9358 23.2011 25.7582 22.2409 26.2182 21.0982C26.6781 19.9555 26.7503 18.6934 26.4235 17.5057C26.0968 16.318 25.3892 15.2704 24.4094 14.5238C23.4296 13.7772 22.2318 13.3728 21 13.3728C19.7682 13.3728 18.5704 13.7772 17.5907 14.5238C16.6109 15.2704 15.9033 16.318 15.5765 17.5057C15.2498 18.6934 15.3219 19.9555 15.7819 21.0982C16.2419 22.2409 17.0642 23.2011 18.1227 23.8312C15.9828 24.5296 14.1492 26.0046 12.9594 28.0624C12.9158 28.1336 12.8868 28.2127 12.8743 28.2953C12.8617 28.3778 12.8659 28.462 12.8864 28.5429C12.9069 28.6238 12.9434 28.6997 12.9938 28.7663C13.0441 28.8328 13.1073 28.8886 13.1796 28.9304C13.2519 28.9721 13.3318 28.999 13.4146 29.0093C13.4974 29.0197 13.5814 29.0134 13.6618 28.9907C13.7421 28.9681 13.8171 28.9296 13.8823 28.8775C13.9475 28.8254 14.0016 28.7608 14.0414 28.6874C15.5133 26.1437 18.1149 24.6249 21 24.6249C23.8852 24.6249 26.4867 26.1437 27.9586 28.6874C27.9985 28.7608 28.0526 28.8254 28.1178 28.8775C28.183 28.9296 28.258 28.9681 28.3383 28.9907C28.4186 29.0134 28.5027 29.0197 28.5855 29.0093C28.6683 28.999 28.7482 28.9721 28.8205 28.9304C28.8927 28.8886 28.9559 28.8328 29.0063 28.7663C29.0566 28.6997 29.0932 28.6238 29.1137 28.5429C29.1342 28.462 29.1383 28.3778 29.1258 28.2953C29.1132 28.2127 29.0843 28.1336 29.0407 28.0624ZM16.625 18.9999C16.625 18.1346 16.8816 17.2888 17.3623 16.5693C17.8431 15.8498 18.5264 15.2891 19.3258 14.958C20.1252 14.6268 21.0049 14.5402 21.8535 14.709C22.7022 14.8778 23.4818 15.2945 24.0936 15.9063C24.7055 16.5182 25.1222 17.2977 25.291 18.1464C25.4598 18.9951 25.3731 19.8747 25.042 20.6742C24.7109 21.4736 24.1501 22.1569 23.4306 22.6376C22.7112 23.1183 21.8653 23.3749 21 23.3749C19.8401 23.3737 18.728 22.9124 17.9078 22.0922C17.0876 21.2719 16.6263 20.1599 16.625 18.9999Z" fill="#6A6D81"/>
<defs>
<linearGradient id="paint0_linear_7360_60198" x1="21" y1="0.5" x2="21" y2="42.5" gradientUnits="userSpaceOnUse">
<stop stop-color="#F0F2F9" stop-opacity="0"/>
<stop offset="1" stop-color="#F0F2F9"/>
</linearGradient>
</defs>
</svg>
