<svg width="66" height="66" viewBox="0 0 66 66" fill="none" xmlns="http://www.w3.org/2000/svg">
<rect x="5" y="5" width="56" height="56" rx="28" fill="#FEF0C7"/>
<path d="M32.9979 28.3333V33M32.9979 37.6667H33.0096M31.0029 22.3367L21.1213 38.8333C20.9175 39.1861 20.8097 39.5862 20.8086 39.9936C20.8075 40.401 20.913 40.8016 21.1148 41.1556C21.3165 41.5096 21.6075 41.8045 21.9586 42.0111C22.3098 42.2178 22.7089 42.3288 23.1163 42.3333H42.8796C43.287 42.3288 43.6861 42.2178 44.0373 42.0111C44.3884 41.8045 44.6794 41.5096 44.8811 41.1556C45.0829 40.8016 45.1884 40.401 45.1873 39.9936C45.1862 39.5862 45.0784 39.1861 44.8746 38.8333L34.9929 22.3367C34.785 21.9938 34.4921 21.7103 34.1427 21.5136C33.7932 21.3168 33.399 21.2135 32.9979 21.2135C32.5969 21.2135 32.2027 21.3168 31.8532 21.5136C31.5038 21.7103 31.2109 21.9938 31.0029 22.3367Z" stroke="#DC6803" stroke-width="2.33333" stroke-linecap="round" stroke-linejoin="round"/>
<rect x="5" y="5" width="56" height="56" rx="28" stroke="#FFFAEB" stroke-width="10"/>
</svg>
