<svg width="15" height="15" viewBox="0 0 15 15" fill="none" xmlns="http://www.w3.org/2000/svg">
<path d="M7.76641 0.296875C3.79021 0.296875 0.566406 3.52068 0.566406 7.49688C0.566406 8.8476 0.945811 10.1069 1.59297 11.1871L0.630859 14.6969L4.21563 13.7559C5.26402 14.3519 6.4743 14.6969 7.76641 14.6969C11.7426 14.6969 14.9664 11.4731 14.9664 7.49688C14.9664 3.52068 11.7426 0.296875 7.76641 0.296875ZM5.30195 4.13828C5.41895 4.13828 5.53917 4.13757 5.64297 4.14297C5.77137 4.14597 5.91112 4.15537 6.04492 4.45117C6.20392 4.80277 6.55013 5.68482 6.59453 5.77422C6.63893 5.86362 6.67039 5.96894 6.60859 6.08594C6.54979 6.20594 6.51921 6.27857 6.43281 6.38477C6.34341 6.48797 6.24545 6.61614 6.16445 6.69414C6.07505 6.78354 5.98274 6.88157 6.08594 7.05977C6.18914 7.23797 6.54754 7.82215 7.07734 8.29375C7.75834 8.90215 8.33292 9.08912 8.51172 9.17852C8.69052 9.26792 8.79407 9.25398 8.89727 9.13398C9.00347 9.01698 9.34328 8.61552 9.46328 8.43672C9.58028 8.25792 9.69972 8.28886 9.86172 8.34766C10.0261 8.40646 10.9028 8.83834 11.0816 8.92773C11.2604 9.01713 11.3777 9.06139 11.4227 9.13398C11.4689 9.20898 11.4689 9.56602 11.3207 9.98242C11.1725 10.3982 10.4448 10.8003 10.1184 10.8285C9.78896 10.8591 9.48154 10.9766 7.97734 10.3844C6.16294 9.66978 5.0187 7.81141 4.9293 7.69141C4.8399 7.57441 4.20273 6.72522 4.20273 5.84922C4.20273 4.97022 4.6636 4.53974 4.825 4.36094C4.9894 4.18214 5.18195 4.13828 5.30195 4.13828Z" fill="#2A2536"/>
</svg>
