<svg width="16" height="17" viewBox="0 0 16 17" fill="none" xmlns="http://www.w3.org/2000/svg">
<path d="M2.28571 0.640625C1.025 0.640625 0 1.66563 0 2.92634V14.3549C0 15.6156 1.025 16.6406 2.28571 16.6406H13.7143C14.975 16.6406 16 15.6156 16 14.3549V2.92634C16 1.66563 14.975 0.640625 13.7143 0.640625H2.28571ZM12.8964 3.64063L9.18929 7.87634L13.55 13.6406H10.1357L7.46429 10.1442L4.40357 13.6406H2.70714L6.67143 9.10848L2.48929 3.64063H5.98929L8.40714 6.83705L11.2 3.64063H12.8964ZM11.5464 12.6263L5.47857 4.60134H4.46786L10.6036 12.6263H11.5429H11.5464Z" fill="black"/>
</svg>
