<svg width="102" height="100" viewBox="0 0 102 100" fill="none" xmlns="http://www.w3.org/2000/svg">
  <g filter="url(#filter0_d_637_40116)">
    <ellipse cx="51.0862" cy="45" rx="40.9143" ry="40" fill="#EB5757"/>
  </g>
  <path d="M70.5 40.9842H66.831L59.772 29.3562C59.4978 28.9046 59.0173 28.6302 58.5 28.6302H57V27.0859C57 25.4306 56.1422 23.9012 54.75 23.0739C53.3578 22.2462 51.6422 22.2462 50.25 23.0739C48.8578 23.9012 48 25.4306 48 27.0859V28.6302H30C29.2045 28.6302 28.4414 28.9556 27.8786 29.5347C27.3161 30.1142 27 30.8998 27 31.7188V53.3388C27 54.1578 27.3161 54.9435 27.8786 55.5229C28.4414 56.102 29.2045 56.4274 30 56.4274H33.2759C33.6857 57.6387 34.5676 58.619 35.7094 59.1323C36.8511 59.6459 38.1489 59.6459 39.2907 59.1323C40.4324 58.619 41.3143 57.6386 41.7242 56.4274H60.2762H60.2758C60.6857 57.6387 61.5676 58.619 62.7094 59.1323C63.8511 59.6459 65.1489 59.6459 66.2906 59.1323C67.4323 58.619 68.3142 57.6386 68.7241 56.4274H72C72.7955 56.4274 73.5586 56.102 74.1214 55.5229C74.6839 54.9434 75 54.1578 75 53.3388V45.6174C75 44.3885 74.5259 43.2103 73.6822 42.3413C72.8381 41.4726 71.6937 40.9845 70.5 40.9845L70.5 40.9842ZM37.5 56.4271C37.1022 56.4271 36.7205 56.2644 36.4393 55.9748C36.158 55.6853 36 55.2923 36 54.8828C36 54.4733 36.158 54.0803 36.4393 53.7908C36.7205 53.5012 37.1022 53.3385 37.5 53.3385C37.8978 53.3385 38.2795 53.5012 38.5607 53.7908C38.842 54.0803 39 54.4733 39 54.8828C39 55.2923 38.842 55.6853 38.5607 55.9748C38.2795 56.2644 37.8978 56.4271 37.5 56.4271ZM45 44.0728H42V47.1614C42 47.7132 41.7141 48.223 41.25 48.4988C40.7859 48.7746 40.2141 48.7746 39.75 48.4988C39.2859 48.223 39 47.7132 39 47.1614V44.0728H36C35.464 44.0728 34.9688 43.7784 34.7009 43.3006C34.4331 42.8229 34.4331 42.2341 34.7009 41.7563C34.9688 41.2786 35.464 40.9842 36 40.9842H39V37.8956C39 37.3438 39.2859 36.834 39.75 36.5582C40.2141 36.2824 40.7859 36.2824 41.25 36.5582C41.7141 36.834 42 37.3438 42 37.8956V40.9842H45C45.536 40.9842 46.0312 41.2786 46.2991 41.7563C46.5669 42.2341 46.5669 42.8229 46.2991 43.3006C46.0312 43.7784 45.536 44.0728 45 44.0728ZM54 31.7185H57.669L63.3 40.9842H54V31.7185ZM64.5 56.4271C64.1022 56.4271 63.7205 56.2644 63.4393 55.9748C63.158 55.6853 63 55.2923 63 54.8828C63 54.4733 63.158 54.0803 63.4393 53.7908C63.7205 53.5012 64.1022 53.3385 64.5 53.3385C64.8978 53.3385 65.2795 53.5012 65.5607 53.7908C65.842 54.0803 66 54.4733 66 54.8828C66 55.2923 65.842 55.6853 65.5607 55.9748C65.2795 56.2644 64.8978 56.4271 64.5 56.4271Z" fill="white"/>
  <defs>
    <filter id="filter0_d_637_40116" x="0.171875" y="0" width="101.828" height="100" filterUnits="userSpaceOnUse" color-interpolation-filters="sRGB">
      <feFlood flood-opacity="0" result="BackgroundImageFix"/>
      <feColorMatrix in="SourceAlpha" type="matrix" values="0 0 0 0 0 0 0 0 0 0 0 0 0 0 0 0 0 0 127 0" result="hardAlpha"/>
      <feOffset dy="5"/>
      <feGaussianBlur stdDeviation="5"/>
      <feComposite in2="hardAlpha" operator="out"/>
      <feColorMatrix type="matrix" values="0 0 0 0 0.921569 0 0 0 0 0.341176 0 0 0 0 0.341176 0 0 0 0.4 0"/>
      <feBlend mode="normal" in2="BackgroundImageFix" result="effect1_dropShadow_637_40116"/>
      <feBlend mode="normal" in="SourceGraphic" in2="effect1_dropShadow_637_40116" result="shape"/>
    </filter>
  </defs>
</svg>
