<svg width="17" height="17" viewBox="0 0 17 17" fill="none" xmlns="http://www.w3.org/2000/svg">
<path d="M15.5813 0.5H1.94687C1.29375 0.5 0.765625 1.01563 0.765625 1.65313V15.3438C0.765625 15.9813 1.29375 16.5 1.94687 16.5H15.5813C16.2344 16.5 16.7656 15.9813 16.7656 15.3469V1.65313C16.7656 1.01563 16.2344 0.5 15.5813 0.5ZM5.5125 14.1344H3.1375V6.49687H5.5125V14.1344ZM4.325 5.45625C3.5625 5.45625 2.94688 4.84062 2.94688 4.08125C2.94688 3.32188 3.5625 2.70625 4.325 2.70625C5.08438 2.70625 5.7 3.32188 5.7 4.08125C5.7 4.8375 5.08438 5.45625 4.325 5.45625ZM14.4 14.1344H12.0281V10.4219C12.0281 9.5375 12.0125 8.39687 10.7937 8.39687C9.55937 8.39687 9.37187 9.3625 9.37187 10.3594V14.1344H7.00313V6.49687H9.27812V7.54063H9.30937C9.625 6.94063 10.4 6.30625 11.5531 6.30625C13.9563 6.30625 14.4 7.8875 14.4 9.94375V14.1344Z" fill="#2A2536"/>
</svg>
