<svg width="201" height="200" viewBox="0 0 201 200" fill="none" xmlns="http://www.w3.org/2000/svg">
<circle cx="100.5" cy="99.9974" r="95.0256" transform="rotate(176.916 100.5 99.9974)" fill="url(#paint0_linear_637_45183)"/>
<path opacity="0.1" d="M138.785 162.726H60.4792C58.1026 162.726 56.1758 160.8 56.1758 158.423V54.7722C56.1758 52.3955 58.1026 50.4688 60.4792 50.4688H138.786C141.162 50.4688 143.089 52.3955 143.089 54.7722V158.423C143.089 160.8 141.162 162.726 138.785 162.726Z" fill="#358888"/>
<path d="M138.785 155.554H60.4792C58.1026 155.554 56.1758 153.628 56.1758 151.251V47.6003C56.1758 45.2237 58.1026 43.2969 60.4792 43.2969H138.786C141.162 43.2969 143.089 45.2237 143.089 47.6003V151.251C143.089 153.628 141.162 155.554 138.785 155.554Z" fill="#358888"/>
<path d="M138.786 156.986H60.4801C57.3162 156.986 54.7422 154.412 54.7422 151.248V47.5973C54.7422 44.4334 57.3162 41.8594 60.4801 41.8594H92.3428C93.1349 41.8594 93.7773 42.5014 93.7773 43.2939C93.7773 44.0863 93.1349 44.7283 92.3428 44.7283H60.4801C58.8982 44.7283 57.6111 46.0154 57.6111 47.5973V151.248C57.6111 152.83 58.8982 154.117 60.4801 154.117H138.786C140.368 154.117 141.655 152.83 141.655 151.248V96.3258C141.655 95.5334 142.297 94.8913 143.09 94.8913C143.882 94.8913 144.524 95.5334 144.524 96.3258V151.248C144.524 154.412 141.95 156.986 138.786 156.986Z" fill="#358888"/>
<path d="M143.09 89.411C142.298 89.411 141.656 88.7689 141.656 87.9765V47.5973C141.656 46.0154 140.369 44.7283 138.787 44.7283H100.692C99.9002 44.7283 99.2578 44.0863 99.2578 43.2939C99.2578 42.5014 99.9002 41.8594 100.692 41.8594H138.787C141.951 41.8594 144.525 44.4334 144.525 47.5973V87.9765C144.525 88.7689 143.882 89.411 143.09 89.411Z" fill="#358888"/>
<path d="M67.9808 147.846H66.1103C65.3179 147.846 64.6758 147.203 64.6758 146.411C64.6758 145.619 65.3179 144.977 66.1103 144.977H67.9808C68.7732 144.977 69.4153 145.619 69.4153 146.411C69.4153 147.203 68.7732 147.846 67.9808 147.846Z" fill="#D8EC9C"/>
<path d="M96.6705 142.674H66.1103C65.3179 142.674 64.6758 142.031 64.6758 141.239C64.6758 140.447 65.3179 139.805 66.1103 139.805H96.6705C97.4629 139.805 98.1049 140.447 98.1049 141.239C98.1049 142.031 97.4629 142.674 96.6705 142.674Z" fill="#F9EEB4"/>
<path d="M77.6214 147.846H75.7509C74.9585 147.846 74.3164 147.203 74.3164 146.411C74.3164 145.619 74.9585 144.977 75.7509 144.977H77.6214C78.4139 144.977 79.0559 145.619 79.0559 146.411C79.0559 147.203 78.4139 147.846 77.6214 147.846Z" fill="#D8EC9C"/>
<path d="M87.2621 147.846H85.3915C84.5991 147.846 83.957 147.203 83.957 146.411C83.957 145.619 84.5991 144.977 85.3915 144.977H87.2621C88.0545 144.977 88.6966 145.619 88.6966 146.411C88.6966 147.203 88.0542 147.846 87.2621 147.846Z" fill="#D8EC9C"/>
<path d="M105.032 142.674H103.161C102.369 142.674 101.727 142.031 101.727 141.239C101.727 140.447 102.369 139.805 103.161 139.805H105.032C105.824 139.805 106.466 140.447 106.466 141.239C106.466 142.031 105.824 142.674 105.032 142.674Z" fill="#B5E4DE"/>
<path d="M133.157 147.855C132.365 147.855 131.723 147.213 131.723 146.421V146.388C131.723 145.595 132.365 144.953 133.157 144.953C133.949 144.953 134.592 145.595 134.592 146.388V146.421C134.592 147.213 133.95 147.855 133.157 147.855Z" fill="#B5E4DE"/>
<path d="M133.157 142.683C132.365 142.683 131.723 142.041 131.723 141.249V141.216C131.723 140.424 132.365 139.781 133.157 139.781C133.949 139.781 134.592 140.424 134.592 141.216V141.249C134.592 142.041 133.95 142.683 133.157 142.683Z" fill="#B5E4DE"/>
<path d="M133.157 137.511C132.365 137.511 131.723 136.869 131.723 136.077V136.044C131.723 135.252 132.365 134.609 133.157 134.609C133.949 134.609 134.592 135.252 134.592 136.044V136.077C134.592 136.869 133.95 137.511 133.157 137.511Z" fill="#B5E4DE"/>
<path d="M133.157 132.339C132.365 132.339 131.723 131.697 131.723 130.905V130.872C131.723 130.08 132.365 129.438 133.157 129.438C133.949 129.438 134.592 130.08 134.592 130.872V130.905C134.592 131.697 133.95 132.339 133.157 132.339Z" fill="#B5E4DE"/>
<path d="M67.0439 69.4098C66.2517 69.4098 65.6094 68.7674 65.6094 67.9753V67.9423C65.6094 67.1502 66.2517 66.5078 67.0439 66.5078C67.836 66.5078 68.4783 67.1502 68.4783 67.9423V67.9753C68.4783 68.7674 67.836 69.4098 67.0439 69.4098Z" fill="#B5E4DE"/>
<path d="M67.0439 64.2379C66.2517 64.2379 65.6094 63.5955 65.6094 62.8034V62.7704C65.6094 61.9783 66.2517 61.3359 67.0439 61.3359C67.836 61.3359 68.4783 61.9783 68.4783 62.7704V62.8034C68.4783 63.5958 67.836 64.2379 67.0439 64.2379Z" fill="#B5E4DE"/>
<path d="M67.0439 59.066C66.2517 59.066 65.6094 58.4237 65.6094 57.6315V57.5985C65.6094 56.8064 66.2517 56.1641 67.0439 56.1641C67.836 56.1641 68.4783 56.8064 68.4783 57.5985V57.6315C68.4783 58.4237 67.836 59.066 67.0439 59.066Z" fill="#B5E4DE"/>
<path d="M67.0439 53.8941C66.2517 53.8941 65.6094 53.2518 65.6094 52.4597V52.4267C65.6094 51.6345 66.2517 50.9922 67.0439 50.9922C67.836 50.9922 68.4783 51.6345 68.4783 52.4267V52.4597C68.4783 53.2518 67.836 53.8941 67.0439 53.8941Z" fill="#B5E4DE"/>
<path d="M129.199 90.7719C128.185 90.2446 126.935 90.6397 126.408 91.6541C125.881 92.6686 126.276 93.9183 127.29 94.4454C127.557 94.5836 127.755 94.7059 127.9 94.8074C127.111 95.3508 125.047 96.2915 120.694 97.1078C115.92 98.0034 109.771 98.4966 103.382 98.4966V92.0062C110.702 92.0062 117.606 91.3994 122.82 90.2977C129.312 88.9258 132.336 87.0059 132.336 84.2554C132.336 83.3732 131.98 82.0741 130.28 80.8967C129.341 80.2457 128.051 80.4795 127.4 81.4191C126.762 82.3395 126.973 83.5952 127.865 84.2582C127.042 84.7985 124.964 85.7105 120.676 86.5012C115.903 87.3814 109.762 87.8663 103.382 87.8663V83.4463C109.375 83.4463 115.032 82.9104 119.311 81.9373C122.753 81.1543 127.329 79.7284 127.329 76.4002C127.329 74.8971 126.369 73.6244 124.474 72.6174C123.465 72.0815 122.211 72.4645 121.674 73.4741C121.138 74.4837 121.521 75.7369 122.531 76.2736C122.625 76.3238 122.709 76.3712 122.782 76.4151C120.848 77.5836 114.206 79.3061 103.382 79.3061V75.3828C110.47 75.3731 122.371 73.9007 122.371 68.4313C122.371 67.1919 121.72 65.4135 118.62 63.9807C117.582 63.5007 116.352 63.9535 115.872 64.9912C115.392 66.0289 115.845 67.2591 116.883 67.7388C117.513 68.0302 117.869 68.2761 118.064 68.4411C116.92 69.4269 111.984 71.2326 103.382 71.2426V70.3116C103.382 68.9366 102.267 67.8217 100.892 67.8217H98.3744C96.9993 67.8217 95.8844 68.9366 95.8844 70.3116V71.2426C87.2818 71.2326 82.3461 69.4266 81.2019 68.4411C81.3967 68.2764 81.7533 68.0302 82.3834 67.7388C83.4211 67.2591 83.8735 66.0289 83.3938 64.9912C82.9141 63.9532 81.6833 63.501 80.6462 63.9807C77.546 65.4138 76.8953 67.1919 76.8953 68.4313C76.8953 73.9007 88.7963 75.3731 95.8844 75.3828V79.3061C85.0601 79.3061 78.4182 77.5836 76.4836 76.4151C76.5574 76.3709 76.6406 76.3236 76.7349 76.2736C77.7445 75.7371 78.1281 74.4837 77.5916 73.4741C77.0548 72.4645 75.8017 72.0812 74.7921 72.6174C72.8971 73.6244 71.9366 74.8971 71.9366 76.4002C71.9366 79.7284 76.5132 81.1543 79.9554 81.9373C84.2338 82.9104 89.8909 83.4463 95.8844 83.4463V87.8663C89.5044 87.8663 83.3625 87.3814 78.5897 86.5012C74.3018 85.7105 72.2244 84.7985 71.4013 84.2582C72.2926 83.5952 72.5038 82.3395 71.866 81.4191C71.2148 80.4795 69.9255 80.2451 68.9856 80.8967C67.2863 82.0741 66.9297 83.3732 66.9297 84.2554C66.9297 87.0059 69.9536 88.9258 76.446 90.2977C81.6604 91.3997 88.5637 92.0062 95.8844 92.0062V98.4966C89.4946 98.4966 83.3465 98.0034 78.5717 97.1078C74.2197 96.2915 72.1552 95.3505 71.366 94.8074C71.5114 94.7059 71.7094 94.5836 71.9756 94.4454C72.9901 93.9183 73.3851 92.6683 72.8578 91.6541C72.3308 90.6397 71.0814 90.2443 70.0666 90.7719C67.9852 91.8535 66.9297 93.21 66.9297 94.8028C66.9297 97.5734 69.9519 99.5114 76.4403 100.903C81.6566 102.021 88.5619 102.637 95.8847 102.637V108.413C89.9032 108.413 84.1139 108.054 79.5827 107.402C76.5903 106.971 74.7488 106.505 73.6367 106.131C74.6176 105.702 75.118 104.583 74.7599 103.554C74.3838 102.475 73.2035 101.904 72.1242 102.28C71.1433 102.622 68.1582 103.661 68.1582 106.134C68.1582 108.622 70.9213 110.152 77.3968 111.25C82.3535 112.091 88.9191 112.553 95.8847 112.553V112.608C95.8847 113.983 96.9996 115.098 98.3747 115.098H100.892C102.267 115.098 103.382 113.983 103.382 112.608V112.553C110.347 112.553 116.913 112.091 121.87 111.25C128.345 110.153 131.108 108.623 131.108 106.134C131.108 103.661 128.123 102.622 127.142 102.28C126.063 101.905 124.883 102.475 124.507 103.554C124.149 104.583 124.649 105.702 125.63 106.131C124.518 106.505 122.676 106.971 119.684 107.402C115.153 108.054 109.363 108.413 103.382 108.413V102.637C110.705 102.637 117.61 102.021 122.826 100.903C129.315 99.5114 132.337 97.5731 132.337 94.8028C132.337 93.2097 131.281 91.8535 129.199 90.7719Z" fill="white"/>
<path d="M95.4991 65.4187H103.765C105.217 65.4187 106.393 64.2421 106.393 62.7907V61.6905C106.393 60.2391 105.217 59.0625 103.765 59.0625H95.4991C94.0477 59.0625 92.8711 60.2391 92.8711 61.6905V62.7907C92.8711 64.2421 94.0477 65.4187 95.4991 65.4187Z" fill="white"/>
<path d="M102.388 117.5H96.8819C95.4305 117.5 94.2539 118.677 94.2539 120.128V121.228C94.2539 122.68 95.4305 123.856 96.8819 123.856H102.388C103.839 123.856 105.016 122.68 105.016 121.228V120.128C105.016 118.677 103.839 117.5 102.388 117.5Z" fill="white"/>
<path d="M102.388 126.258H96.8819C95.4305 126.258 94.2539 127.434 94.2539 128.886V129.986C94.2539 131.437 95.4305 132.614 96.8819 132.614H102.388C103.839 132.614 105.016 131.437 105.016 129.986V128.886C105.016 127.434 103.839 126.258 102.388 126.258Z" fill="white"/>
<path d="M45.2936 61.2126C43.9682 61.2126 42.8934 60.1383 42.8934 58.8124C42.8934 57.1361 41.5296 55.7719 39.8533 55.7719C38.5279 55.7719 37.4531 54.6976 37.4531 53.3717C37.4531 52.0458 38.5279 50.9715 39.8533 50.9715C41.5296 50.9715 42.8934 49.6077 42.8934 47.9314C42.8934 46.6056 43.9682 45.5312 45.2936 45.5312C46.6189 45.5312 47.6938 46.6056 47.6938 47.9314C47.6938 49.6077 49.0575 50.9715 50.7338 50.9715C52.0592 50.9715 53.134 52.0458 53.134 53.3717C53.134 54.6976 52.0592 55.7719 50.7338 55.7719C49.0575 55.7719 47.6938 57.1361 47.6938 58.8124C47.6938 60.1383 46.6194 61.2126 45.2936 61.2126Z" fill="#D8EC9C"/>
<path d="M155.169 148.322C153.843 148.322 152.768 147.248 152.768 145.922C152.768 144.246 151.405 142.881 149.728 142.881C148.403 142.881 147.328 141.807 147.328 140.481C147.328 139.155 148.403 138.081 149.728 138.081C151.405 138.081 152.768 136.717 152.768 135.041C152.768 133.715 153.843 132.641 155.169 132.641C156.494 132.641 157.569 133.715 157.569 135.041C157.569 136.717 158.933 138.081 160.609 138.081C161.935 138.081 163.01 139.155 163.01 140.481C163.01 141.807 161.935 142.881 160.609 142.881C158.933 142.881 157.569 144.246 157.569 145.922C157.569 147.247 156.494 148.322 155.169 148.322Z" fill="#D8EC9C"/>
<path d="M40.3846 70.5281C39.0592 70.5281 37.9844 69.4538 37.9844 68.128V68.0564C37.9844 66.7306 39.0592 65.6562 40.3846 65.6562C41.7099 65.6562 42.7847 66.7306 42.7847 68.0564V68.128C42.7847 69.4538 41.7104 70.5281 40.3846 70.5281Z" fill="#F9EEB4"/>
<path d="M40.3846 83.8641C39.0592 83.8641 37.9844 82.7898 37.9844 81.4639V81.3924C37.9844 80.0665 39.0592 78.9922 40.3846 78.9922C41.7099 78.9922 42.7847 80.0665 42.7847 81.3924V81.4639C42.7847 82.7898 41.7104 83.8641 40.3846 83.8641Z" fill="#F9EEB4"/>
<path d="M34.6364 73.8453C34.2284 73.8453 33.8151 73.7411 33.4363 73.5218L33.3739 73.4858C32.2266 72.8214 31.8349 71.3534 32.4993 70.2062C33.1632 69.0589 34.6316 68.6667 35.7794 69.3315L35.8418 69.3675C36.9891 70.0319 37.3808 71.4999 36.7164 72.6471C36.2709 73.4162 35.465 73.8453 34.6364 73.8453Z" fill="#F9EEB4"/>
<path d="M46.1872 80.5172C45.7792 80.5172 45.3654 80.413 44.9871 80.1936L44.9247 80.1576C43.7774 79.4933 43.3857 78.0253 44.0501 76.878C44.7144 75.7307 46.1819 75.3386 47.3302 76.0034L47.3926 76.0394C48.5399 76.7038 48.9316 78.1717 48.2672 79.319C47.8217 80.088 47.0157 80.5172 46.1872 80.5172Z" fill="#F9EEB4"/>
<path d="M34.5788 80.5171C33.7503 80.5171 32.9443 80.0875 32.4993 79.3189C31.8349 78.1716 32.2266 76.7037 33.3739 76.0393L33.4363 76.0033C34.5841 75.3385 36.0525 75.7311 36.7164 76.8779C37.3808 78.0252 36.9891 79.4932 35.8418 80.1575L35.7794 80.1935C35.4006 80.4129 34.9868 80.5171 34.5788 80.5171Z" fill="#F9EEB4"/>
<path d="M46.1296 73.8452C45.301 73.8452 44.4951 73.4161 44.0501 72.647C43.3857 71.4998 43.7774 70.0318 44.9247 69.3674L44.9871 69.3314C46.1349 68.6666 47.6028 69.0592 48.2667 70.206C48.9311 71.3533 48.5394 72.8213 47.3921 73.4857L47.3297 73.5217C46.9514 73.7415 46.5376 73.8452 46.1296 73.8452Z" fill="#F9EEB4"/>
<circle cx="100.498" cy="100.002" r="95.0256" fill="url(#paint1_linear_637_45183)"/>
<path opacity="0.1" d="M138.785 162.726H60.4792C58.1026 162.726 56.1758 160.8 56.1758 158.423V54.7722C56.1758 52.3955 58.1026 50.4688 60.4792 50.4688H138.786C141.162 50.4688 143.089 52.3955 143.089 54.7722V158.423C143.089 160.8 141.162 162.726 138.785 162.726Z" fill="#358888"/>
<path d="M138.785 155.554H60.4792C58.1026 155.554 56.1758 153.628 56.1758 151.251V47.6003C56.1758 45.2237 58.1026 43.2969 60.4792 43.2969H138.786C141.162 43.2969 143.089 45.2237 143.089 47.6003V151.251C143.089 153.628 141.162 155.554 138.785 155.554Z" fill="#358888"/>
<path d="M138.786 156.986H60.4801C57.3162 156.986 54.7422 154.412 54.7422 151.248V47.5973C54.7422 44.4334 57.3162 41.8594 60.4801 41.8594H92.3428C93.1349 41.8594 93.7773 42.5014 93.7773 43.2939C93.7773 44.0863 93.1349 44.7283 92.3428 44.7283H60.4801C58.8982 44.7283 57.6111 46.0154 57.6111 47.5973V151.248C57.6111 152.83 58.8982 154.117 60.4801 154.117H138.786C140.368 154.117 141.655 152.83 141.655 151.248V96.3258C141.655 95.5334 142.297 94.8913 143.09 94.8913C143.882 94.8913 144.524 95.5334 144.524 96.3258V151.248C144.524 154.412 141.95 156.986 138.786 156.986Z" fill="#358888"/>
<path d="M143.09 89.411C142.298 89.411 141.656 88.7689 141.656 87.9765V47.5973C141.656 46.0154 140.369 44.7283 138.787 44.7283H100.692C99.9002 44.7283 99.2578 44.0863 99.2578 43.2939C99.2578 42.5014 99.9002 41.8594 100.692 41.8594H138.787C141.951 41.8594 144.525 44.4334 144.525 47.5973V87.9765C144.525 88.7689 143.882 89.411 143.09 89.411Z" fill="#358888"/>
<path d="M67.9808 147.846H66.1103C65.3179 147.846 64.6758 147.203 64.6758 146.411C64.6758 145.619 65.3179 144.977 66.1103 144.977H67.9808C68.7732 144.977 69.4153 145.619 69.4153 146.411C69.4153 147.203 68.7732 147.846 67.9808 147.846Z" fill="#DBEDFB"/>
<path d="M96.6705 142.674H66.1103C65.3179 142.674 64.6758 142.031 64.6758 141.239C64.6758 140.447 65.3179 139.805 66.1103 139.805H96.6705C97.4629 139.805 98.1049 140.447 98.1049 141.239C98.1049 142.031 97.4629 142.674 96.6705 142.674Z" fill="#DBEDFB"/>
<path d="M77.6214 147.846H75.7509C74.9585 147.846 74.3164 147.203 74.3164 146.411C74.3164 145.619 74.9585 144.977 75.7509 144.977H77.6214C78.4139 144.977 79.0559 145.619 79.0559 146.411C79.0559 147.203 78.4139 147.846 77.6214 147.846Z" fill="#DBEDFB"/>
<path d="M87.2621 147.846H85.3915C84.5991 147.846 83.957 147.203 83.957 146.411C83.957 145.619 84.5991 144.977 85.3915 144.977H87.2621C88.0545 144.977 88.6966 145.619 88.6966 146.411C88.6966 147.203 88.0542 147.846 87.2621 147.846Z" fill="#DBEDFB"/>
<path d="M105.032 142.674H103.161C102.369 142.674 101.727 142.031 101.727 141.239C101.727 140.447 102.369 139.805 103.161 139.805H105.032C105.824 139.805 106.466 140.447 106.466 141.239C106.466 142.031 105.824 142.674 105.032 142.674Z" fill="#B5E4DE"/>
<path d="M133.157 147.855C132.365 147.855 131.723 147.213 131.723 146.421V146.388C131.723 145.595 132.365 144.953 133.157 144.953C133.949 144.953 134.592 145.595 134.592 146.388V146.421C134.592 147.213 133.95 147.855 133.157 147.855Z" fill="#B5E4DE"/>
<path d="M133.157 142.683C132.365 142.683 131.723 142.041 131.723 141.249V141.216C131.723 140.424 132.365 139.781 133.157 139.781C133.949 139.781 134.592 140.424 134.592 141.216V141.249C134.592 142.041 133.95 142.683 133.157 142.683Z" fill="#B5E4DE"/>
<path d="M133.157 137.511C132.365 137.511 131.723 136.869 131.723 136.077V136.044C131.723 135.252 132.365 134.609 133.157 134.609C133.949 134.609 134.592 135.252 134.592 136.044V136.077C134.592 136.869 133.95 137.511 133.157 137.511Z" fill="#B5E4DE"/>
<path d="M133.157 132.339C132.365 132.339 131.723 131.697 131.723 130.905V130.872C131.723 130.08 132.365 129.438 133.157 129.438C133.949 129.438 134.592 130.08 134.592 130.872V130.905C134.592 131.697 133.95 132.339 133.157 132.339Z" fill="#B5E4DE"/>
<path d="M67.0439 69.4098C66.2517 69.4098 65.6094 68.7674 65.6094 67.9753V67.9423C65.6094 67.1502 66.2517 66.5078 67.0439 66.5078C67.836 66.5078 68.4783 67.1502 68.4783 67.9423V67.9753C68.4783 68.7674 67.836 69.4098 67.0439 69.4098Z" fill="#B5E4DE"/>
<path d="M67.0439 64.2379C66.2517 64.2379 65.6094 63.5955 65.6094 62.8034V62.7704C65.6094 61.9783 66.2517 61.3359 67.0439 61.3359C67.836 61.3359 68.4783 61.9783 68.4783 62.7704V62.8034C68.4783 63.5958 67.836 64.2379 67.0439 64.2379Z" fill="#B5E4DE"/>
<path d="M67.0439 59.066C66.2517 59.066 65.6094 58.4237 65.6094 57.6315V57.5985C65.6094 56.8064 66.2517 56.1641 67.0439 56.1641C67.836 56.1641 68.4783 56.8064 68.4783 57.5985V57.6315C68.4783 58.4237 67.836 59.066 67.0439 59.066Z" fill="#B5E4DE"/>
<path d="M67.0439 53.8941C66.2517 53.8941 65.6094 53.2518 65.6094 52.4597V52.4267C65.6094 51.6345 66.2517 50.9922 67.0439 50.9922C67.836 50.9922 68.4783 51.6345 68.4783 52.4267V52.4597C68.4783 53.2518 67.836 53.8941 67.0439 53.8941Z" fill="#B5E4DE"/>
<path d="M129.199 90.7719C128.185 90.2446 126.935 90.6397 126.408 91.6541C125.881 92.6686 126.276 93.9183 127.29 94.4454C127.557 94.5836 127.755 94.7059 127.9 94.8074C127.111 95.3508 125.047 96.2915 120.694 97.1078C115.92 98.0034 109.771 98.4966 103.382 98.4966V92.0062C110.702 92.0062 117.606 91.3994 122.82 90.2977C129.312 88.9258 132.336 87.0059 132.336 84.2554C132.336 83.3732 131.98 82.0741 130.28 80.8967C129.341 80.2457 128.051 80.4795 127.4 81.4191C126.762 82.3395 126.973 83.5952 127.865 84.2582C127.042 84.7985 124.964 85.7105 120.676 86.5012C115.903 87.3814 109.762 87.8663 103.382 87.8663V83.4463C109.375 83.4463 115.032 82.9104 119.311 81.9373C122.753 81.1543 127.329 79.7284 127.329 76.4002C127.329 74.8971 126.369 73.6244 124.474 72.6174C123.465 72.0815 122.211 72.4645 121.674 73.4741C121.138 74.4837 121.521 75.7369 122.531 76.2736C122.625 76.3238 122.709 76.3712 122.782 76.4151C120.848 77.5836 114.206 79.3061 103.382 79.3061V75.3828C110.47 75.3731 122.371 73.9007 122.371 68.4313C122.371 67.1919 121.72 65.4135 118.62 63.9807C117.582 63.5007 116.352 63.9535 115.872 64.9912C115.392 66.0289 115.845 67.2591 116.883 67.7388C117.513 68.0302 117.869 68.2761 118.064 68.4411C116.92 69.4269 111.984 71.2326 103.382 71.2426V70.3116C103.382 68.9366 102.267 67.8217 100.892 67.8217H98.3744C96.9993 67.8217 95.8844 68.9366 95.8844 70.3116V71.2426C87.2818 71.2326 82.3461 69.4266 81.2019 68.4411C81.3967 68.2764 81.7533 68.0302 82.3834 67.7388C83.4211 67.2591 83.8735 66.0289 83.3938 64.9912C82.9141 63.9532 81.6833 63.501 80.6462 63.9807C77.546 65.4138 76.8953 67.1919 76.8953 68.4313C76.8953 73.9007 88.7963 75.3731 95.8844 75.3828V79.3061C85.0601 79.3061 78.4182 77.5836 76.4836 76.4151C76.5574 76.3709 76.6406 76.3236 76.7349 76.2736C77.7445 75.7371 78.1281 74.4837 77.5916 73.4741C77.0548 72.4645 75.8017 72.0812 74.7921 72.6174C72.8971 73.6244 71.9366 74.8971 71.9366 76.4002C71.9366 79.7284 76.5132 81.1543 79.9554 81.9373C84.2338 82.9104 89.8909 83.4463 95.8844 83.4463V87.8663C89.5044 87.8663 83.3625 87.3814 78.5897 86.5012C74.3018 85.7105 72.2244 84.7985 71.4013 84.2582C72.2926 83.5952 72.5038 82.3395 71.866 81.4191C71.2148 80.4795 69.9255 80.2451 68.9856 80.8967C67.2863 82.0741 66.9297 83.3732 66.9297 84.2554C66.9297 87.0059 69.9536 88.9258 76.446 90.2977C81.6604 91.3997 88.5637 92.0062 95.8844 92.0062V98.4966C89.4946 98.4966 83.3465 98.0034 78.5717 97.1078C74.2197 96.2915 72.1552 95.3505 71.366 94.8074C71.5114 94.7059 71.7094 94.5836 71.9756 94.4454C72.9901 93.9183 73.3851 92.6683 72.8578 91.6541C72.3308 90.6397 71.0814 90.2443 70.0666 90.7719C67.9852 91.8535 66.9297 93.21 66.9297 94.8028C66.9297 97.5734 69.9519 99.5114 76.4403 100.903C81.6566 102.021 88.5619 102.637 95.8847 102.637V108.413C89.9032 108.413 84.1139 108.054 79.5827 107.402C76.5903 106.971 74.7488 106.505 73.6367 106.131C74.6176 105.702 75.118 104.583 74.7599 103.554C74.3838 102.475 73.2035 101.904 72.1242 102.28C71.1433 102.622 68.1582 103.661 68.1582 106.134C68.1582 108.622 70.9213 110.152 77.3968 111.25C82.3535 112.091 88.9191 112.553 95.8847 112.553V112.608C95.8847 113.983 96.9996 115.098 98.3747 115.098H100.892C102.267 115.098 103.382 113.983 103.382 112.608V112.553C110.347 112.553 116.913 112.091 121.87 111.25C128.345 110.153 131.108 108.623 131.108 106.134C131.108 103.661 128.123 102.622 127.142 102.28C126.063 101.905 124.883 102.475 124.507 103.554C124.149 104.583 124.649 105.702 125.63 106.131C124.518 106.505 122.676 106.971 119.684 107.402C115.153 108.054 109.363 108.413 103.382 108.413V102.637C110.705 102.637 117.61 102.021 122.826 100.903C129.315 99.5114 132.337 97.5731 132.337 94.8028C132.337 93.2097 131.281 91.8535 129.199 90.7719Z" fill="white"/>
<path d="M95.4991 65.4187H103.765C105.217 65.4187 106.393 64.2421 106.393 62.7907V61.6905C106.393 60.2391 105.217 59.0625 103.765 59.0625H95.4991C94.0477 59.0625 92.8711 60.2391 92.8711 61.6905V62.7907C92.8711 64.2421 94.0477 65.4187 95.4991 65.4187Z" fill="white"/>
<path d="M102.388 117.5H96.8819C95.4305 117.5 94.2539 118.677 94.2539 120.128V121.228C94.2539 122.68 95.4305 123.856 96.8819 123.856H102.388C103.839 123.856 105.016 122.68 105.016 121.228V120.128C105.016 118.677 103.839 117.5 102.388 117.5Z" fill="white"/>
<path d="M102.388 126.258H96.8819C95.4305 126.258 94.2539 127.434 94.2539 128.886V129.986C94.2539 131.437 95.4305 132.614 96.8819 132.614H102.388C103.839 132.614 105.016 131.437 105.016 129.986V128.886C105.016 127.434 103.839 126.258 102.388 126.258Z" fill="white"/>
<path d="M45.2936 61.2126C43.9682 61.2126 42.8934 60.1383 42.8934 58.8124C42.8934 57.1361 41.5296 55.7719 39.8533 55.7719C38.5279 55.7719 37.4531 54.6976 37.4531 53.3717C37.4531 52.0458 38.5279 50.9715 39.8533 50.9715C41.5296 50.9715 42.8934 49.6077 42.8934 47.9314C42.8934 46.6056 43.9682 45.5312 45.2936 45.5312C46.6189 45.5312 47.6938 46.6056 47.6938 47.9314C47.6938 49.6077 49.0575 50.9715 50.7338 50.9715C52.0592 50.9715 53.134 52.0458 53.134 53.3717C53.134 54.6976 52.0592 55.7719 50.7338 55.7719C49.0575 55.7719 47.6938 57.1361 47.6938 58.8124C47.6938 60.1383 46.6194 61.2126 45.2936 61.2126Z" fill="#FF9F81"/>
<path d="M155.169 148.322C153.843 148.322 152.768 147.248 152.768 145.922C152.768 144.246 151.405 142.881 149.728 142.881C148.403 142.881 147.328 141.807 147.328 140.481C147.328 139.155 148.403 138.081 149.728 138.081C151.405 138.081 152.768 136.717 152.768 135.041C152.768 133.715 153.843 132.641 155.169 132.641C156.494 132.641 157.569 133.715 157.569 135.041C157.569 136.717 158.933 138.081 160.609 138.081C161.935 138.081 163.01 139.155 163.01 140.481C163.01 141.807 161.935 142.881 160.609 142.881C158.933 142.881 157.569 144.246 157.569 145.922C157.569 147.247 156.494 148.322 155.169 148.322Z" fill="#FF9F81"/>
<path d="M40.3846 70.5281C39.0592 70.5281 37.9844 69.4538 37.9844 68.128V68.0564C37.9844 66.7306 39.0592 65.6562 40.3846 65.6562C41.7099 65.6562 42.7847 66.7306 42.7847 68.0564V68.128C42.7847 69.4538 41.7104 70.5281 40.3846 70.5281Z" fill="#8FBCEB"/>
<path d="M40.3846 83.8641C39.0592 83.8641 37.9844 82.7898 37.9844 81.4639V81.3924C37.9844 80.0665 39.0592 78.9922 40.3846 78.9922C41.7099 78.9922 42.7847 80.0665 42.7847 81.3924V81.4639C42.7847 82.7898 41.7104 83.8641 40.3846 83.8641Z" fill="#8FBCEB"/>
<path d="M34.6364 73.8453C34.2284 73.8453 33.8151 73.7411 33.4363 73.5218L33.3739 73.4858C32.2266 72.8214 31.8349 71.3534 32.4993 70.2062C33.1632 69.0589 34.6316 68.6667 35.7794 69.3315L35.8418 69.3675C36.9891 70.0319 37.3808 71.4999 36.7164 72.6471C36.2709 73.4162 35.465 73.8453 34.6364 73.8453Z" fill="#8FBCEB"/>
<path d="M46.1872 80.5172C45.7792 80.5172 45.3654 80.413 44.9871 80.1936L44.9247 80.1576C43.7774 79.4933 43.3857 78.0253 44.0501 76.878C44.7144 75.7307 46.1819 75.3386 47.3302 76.0034L47.3926 76.0394C48.5399 76.7038 48.9316 78.1717 48.2672 79.319C47.8217 80.088 47.0157 80.5172 46.1872 80.5172Z" fill="#8FBCEB"/>
<path d="M34.5788 80.5171C33.7503 80.5171 32.9443 80.0875 32.4993 79.3189C31.8349 78.1716 32.2266 76.7037 33.3739 76.0393L33.4363 76.0033C34.5841 75.3385 36.0525 75.7311 36.7164 76.8779C37.3808 78.0252 36.9891 79.4932 35.8418 80.1575L35.7794 80.1935C35.4006 80.4129 34.9868 80.5171 34.5788 80.5171Z" fill="#8FBCEB"/>
<path d="M46.1296 73.8452C45.301 73.8452 44.4951 73.4161 44.0501 72.647C43.3857 71.4998 43.7774 70.0318 44.9247 69.3674L44.9871 69.3314C46.1349 68.6666 47.6028 69.0592 48.2667 70.206C48.9311 71.3533 48.5394 72.8213 47.3921 73.4857L47.3297 73.5217C46.9514 73.7415 46.5376 73.8452 46.1296 73.8452Z" fill="#8FBCEB"/>
<defs>
<linearGradient id="paint0_linear_637_45183" x1="100.5" y1="4.97176" x2="100.5" y2="195.023" gradientUnits="userSpaceOnUse">
<stop stop-color="#E6F6F4"/>
<stop offset="1" stop-color="#E6F6F4" stop-opacity="0"/>
</linearGradient>
<linearGradient id="paint1_linear_637_45183" x1="100.498" y1="4.97656" x2="100.498" y2="195.028" gradientUnits="userSpaceOnUse">
<stop stop-color="#E6F6F4" stop-opacity="0"/>
<stop offset="1" stop-color="#E6F6F4"/>
</linearGradient>
</defs>
</svg>
