<svg width="25" height="24" viewBox="0 0 25 24" fill="none" xmlns="http://www.w3.org/2000/svg">
<path fill-rule="evenodd" clip-rule="evenodd" d="M12.6 2C13.2903 2 13.85 2.55964 13.85 3.25C13.85 3.76258 13.5415 4.2031 13.1 4.39599V5.76971C14.4501 5.87658 15.6795 6.41248 16.6518 7.2411L17.6861 6.20679C17.6305 6.06529 17.6 5.91121 17.6 5.75C17.6 5.05964 18.1596 4.5 18.85 4.5C19.5403 4.5 20.1 5.05964 20.1 5.75C20.1 6.44036 19.5403 7 18.85 7C18.6888 7 18.5347 6.96948 18.3932 6.9139L17.3589 7.94821C18.1875 8.92049 18.7234 10.1499 18.8303 11.5H20.204C20.3969 11.0585 20.8374 10.75 21.35 10.75C22.0403 10.75 22.6 11.3096 22.6 12C22.6 12.6904 22.0403 13.25 21.35 13.25C20.8374 13.25 20.3969 12.9415 20.204 12.5H18.8303C18.7234 13.8501 18.1875 15.0795 17.3589 16.0518L18.3932 17.0861C18.5347 17.0305 18.6888 17 18.85 17C19.5403 17 20.1 17.5596 20.1 18.25C20.1 18.9404 19.5403 19.5 18.85 19.5C18.1596 19.5 17.6 18.9404 17.6 18.25C17.6 18.0888 17.6305 17.9347 17.6861 17.7932L16.6518 16.7589C15.6795 17.5875 14.4501 18.1234 13.1 18.2303V19.604C13.5415 19.7969 13.85 20.2374 13.85 20.75C13.85 21.4404 13.2903 22 12.6 22C11.9096 22 11.35 21.4404 11.35 20.75C11.35 20.2374 11.6585 19.7969 12.1 19.604V18.2303C10.7499 18.1234 9.52048 17.5875 8.5482 16.7589L7.51388 17.7932C7.56946 17.9347 7.59998 18.0888 7.59998 18.25C7.59998 18.9404 7.04033 19.5 6.34998 19.5C5.65962 19.5 5.09998 18.9404 5.09998 18.25C5.09998 17.5596 5.65962 17 6.34998 17C6.51119 17 6.66529 17.0305 6.80678 17.0861L7.84109 16.0518C7.01247 15.0795 6.47655 13.8501 6.36968 12.5H4.99596C4.80308 12.9415 4.36256 13.25 3.84998 13.25C3.15962 13.25 2.59998 12.6904 2.59998 12C2.59998 11.3096 3.15962 10.75 3.84998 10.75C4.36256 10.75 4.80308 11.0585 4.99596 11.5H6.36968C6.47655 10.1499 7.01246 8.92051 7.84108 7.94822L6.80676 6.91391C6.66527 6.96948 6.51119 7 6.34998 7C5.65962 7 5.09998 6.44036 5.09998 5.75C5.09998 5.05964 5.65962 4.5 6.34998 4.5C7.04033 4.5 7.59998 5.05964 7.59998 5.75C7.59998 5.91122 7.56945 6.06531 7.51388 6.20681L8.54818 7.24112C9.52047 6.41249 10.7498 5.87658 12.1 5.76971V4.39599C11.6585 4.2031 11.35 3.76258 11.35 3.25C11.35 2.55964 11.9096 2 12.6 2ZM12.1 10C12.6523 10 13.1 9.55228 13.1 9C13.1 8.44772 12.6523 8 12.1 8C11.5477 8 11.1 8.44772 11.1 9C11.1 9.55228 11.5477 10 12.1 10ZM11.1 13C11.1 13.5523 10.6523 14 10.1 14C9.54769 14 9.09998 13.5523 9.09998 13C9.09998 12.4477 9.54769 12 10.1 12C10.6523 12 11.1 12.4477 11.1 13ZM15.6 15C16.1523 15 16.6 14.5523 16.6 14C16.6 13.4477 16.1523 13 15.6 13C15.0477 13 14.6 13.4477 14.6 14C14.6 14.5523 15.0477 15 15.6 15Z" fill="#358888"/>
</svg>
