<svg width="25" height="24" viewBox="0 0 25 24" fill="none" xmlns="http://www.w3.org/2000/svg">
<path fill-rule="evenodd" clip-rule="evenodd" d="M6.19995 7.5C5.70849 7.5 5.29475 7.66685 5.00265 7.95895C4.71525 8.24635 4.57495 8.62632 4.57495 9C4.57495 9.37368 4.71525 9.75366 5.00265 10.0411C5.29475 10.3332 5.70849 10.5 6.19995 10.5L8.20047 10.5C8.47839 10.5 8.69995 10.7224 8.69995 10.9968V20.5C8.69995 20.9915 8.8668 21.4052 9.1589 21.6973C9.4463 21.9847 9.82627 22.125 10.2 22.125C10.5736 22.125 10.9536 21.9847 11.241 21.6973C11.5331 21.4052 11.7 20.9915 11.7 20.5C11.7 19.743 11.7007 18.6523 11.8206 17.7536C11.8811 17.2995 11.9671 16.9373 12.0758 16.7017C12.1328 16.5782 12.1764 16.5272 12.1999 16.5073C12.2235 16.5272 12.2671 16.5782 12.3241 16.7017C12.4328 16.9373 12.5188 17.2995 12.5793 17.7536C12.6992 18.6523 12.7 19.743 12.7 20.5C12.7 20.9915 12.8668 21.4052 13.1589 21.6973C13.4463 21.9847 13.8263 22.125 14.2 22.125C14.5736 22.125 14.9536 21.9847 15.241 21.6973C15.5331 21.4052 15.7 20.9915 15.7 20.5V11C15.7 10.7239 15.9238 10.5 16.2 10.5H18.2C18.6914 10.5 19.1052 10.3332 19.3973 10.0411C19.6847 9.75366 19.825 9.37368 19.825 9C19.825 8.62632 19.6847 8.24634 19.3973 7.95895C19.1052 7.66684 18.6914 7.5 18.2 7.5H6.19995ZM12.2196 16.4958C12.2196 16.4958 12.2169 16.4981 12.2111 16.4991C12.2166 16.4958 12.2196 16.4958 12.2196 16.4958ZM12.1888 16.4991C12.183 16.4981 12.1803 16.4958 12.1803 16.4958C12.1803 16.4958 12.1834 16.4958 12.1888 16.4991Z" fill="#358888"/>
<path d="M12.2 2C10.8192 2 9.69995 3.11929 9.69995 4.5C9.69995 5.88071 10.8192 7 12.2 7C13.5807 7 14.7 5.88071 14.7 4.5C14.7 3.11929 13.5807 2 12.2 2Z" fill="#358888"/>
</svg>
