<svg width="25" height="24" viewBox="0 0 25 24" fill="none" xmlns="http://www.w3.org/2000/svg">
<path d="M16.5991 16.2918H23.8625V23.8001H16.5991V16.2918ZM15.7666 20.0445H9.90052C9.4089 20.0444 8.93742 19.8491 8.58965 19.5016C8.24188 19.1542 8.04627 18.6828 8.04577 18.1912C8.04607 17.6996 8.24163 17.2282 8.58946 16.8807C8.93728 16.5332 9.40887 16.3381 9.90052 16.3383H15.7666V20.0445ZM3.11902 21.5478C3.11902 21.1335 3.45464 20.7971 3.86939 20.7971H15.7663V23.7993H3.11902V21.5475V21.5478ZM7.63027 17.8072C7.62967 18.401 7.39331 18.9702 6.97314 19.3897C6.55298 19.8093 5.9834 20.0448 5.38964 20.0445C5.0956 20.0447 4.80438 19.987 4.53262 19.8747C4.26087 19.7624 4.01389 19.5977 3.80579 19.39C3.5977 19.1822 3.43256 18.9355 3.3198 18.664C3.20705 18.3924 3.14889 18.1013 3.14864 17.8072C3.14864 16.5723 4.15177 15.5711 5.38964 15.5711C6.62677 15.5711 7.63027 16.5723 7.63027 17.8072ZM19.8778 11.5421L18.6174 7.95372C18.3729 7.27722 17.9034 6.74922 16.5781 6.74922H10.7596C9.43477 6.74922 8.96452 7.27722 8.72114 7.95372L7.46114 11.5421C7.36702 11.7738 7.31827 12.2947 7.83089 12.6435L10.7938 14.5957C11.0015 14.7327 11.2551 14.7817 11.499 14.732C11.7429 14.6823 11.9571 14.538 12.0946 14.3306C12.1625 14.2277 12.2094 14.1124 12.2327 13.9913C12.256 13.8702 12.2552 13.7457 12.2304 13.625C12.2056 13.5042 12.1572 13.3895 12.088 13.2874C12.0188 13.1854 11.9302 13.0979 11.8273 13.0301L9.47564 11.4802L10.1375 9.65434H11.0536L10.517 11.1356L12.3024 12.3123C12.5 12.4418 12.67 12.6091 12.8024 12.8048C12.9348 13.0004 13.0271 13.2204 13.0738 13.452C13.1223 13.6834 13.1243 13.9222 13.0797 14.1545C13.0352 14.3868 12.945 14.6079 12.8143 14.805C12.7095 14.9612 12.5809 15.1002 12.4333 15.2167H14.9053C14.7579 15.0998 14.6292 14.9609 14.5239 14.805C14.3933 14.6078 14.303 14.3868 14.2583 14.1545C14.2137 13.9223 14.2155 13.6835 14.2636 13.452C14.3107 13.2205 14.4031 13.0006 14.5355 12.805C14.668 12.6094 14.8379 12.4419 15.0354 12.3123L16.8219 11.1356L16.283 9.65434H17.1999L17.8633 11.4802L15.5105 13.0301C15.0781 13.3151 14.9574 13.899 15.2435 14.3306C15.5296 14.7622 16.1124 14.8815 16.5448 14.5957L19.5073 12.6435C20.0203 12.2943 19.9715 11.7738 19.8778 11.5421ZM14.2479 3.23734C14.1771 3.39102 14.0637 3.52119 13.9212 3.61244C13.7788 3.70369 13.6131 3.75219 13.4439 3.75222C13.2744 3.75228 13.1085 3.70383 12.9657 3.61259C12.8229 3.52135 12.7092 3.39114 12.638 3.23734H11.015C10.9888 3.37984 10.9734 3.52572 10.9734 3.67609C10.9739 4.33317 11.2353 4.96315 11.7002 5.42749C12.1651 5.89183 12.7954 6.15252 13.4525 6.15222C13.7779 6.15247 14.1002 6.08861 14.4009 5.9643C14.7016 5.83999 14.9749 5.65767 15.2051 5.42773C15.4354 5.1978 15.6181 4.92476 15.7428 4.62421C15.8675 4.32366 15.9318 4.00149 15.932 3.67609C15.932 3.52534 15.9159 3.37984 15.8908 3.23734H14.2483H14.2479ZM12.5833 2.65272C12.6317 2.46113 12.7426 2.29116 12.8985 2.16972C13.0544 2.04827 13.2463 1.98229 13.4439 1.98222C13.8586 1.98222 14.2085 2.26872 14.303 2.65272H15.7093C15.5124 2.21939 15.195 1.8519 14.7948 1.59415C14.3947 1.3364 13.9288 1.1993 13.4529 1.19922C12.977 1.19939 12.5111 1.33653 12.111 1.59427C11.7109 1.852 11.3935 2.21944 11.1965 2.65272H12.5833Z" fill="#358888"/>
</svg>
