<svg width="25" height="24" viewBox="0 0 25 24" fill="none" xmlns="http://www.w3.org/2000/svg">
<path fill-rule="evenodd" clip-rule="evenodd" d="M7.79874 3.35123C8.26611 3.0836 8.81917 3.09927 9.27024 3.31932C11.479 4.39682 14.1241 4.39795 16.3337 3.32234C16.7899 3.1003 17.3498 3.08736 17.8194 3.36314L21.2857 5.39896C21.6004 5.58893 21.7986 5.93702 21.7998 6.30538L21.7998 6.30686C21.8014 12.261 18.5298 17.8812 13.3741 20.847C13.0222 21.0492 12.5776 21.0493 12.2258 20.8471C7.05371 17.8719 3.77908 12.2261 3.7999 6.25321C3.80109 5.88485 3.99931 5.53679 4.314 5.34682L4.32388 5.34086L7.79874 3.35123ZM11.4874 8.81281C11.4874 8.40511 11.4874 8.20126 11.554 8.04046C11.6428 7.82606 11.8132 7.65572 12.0276 7.56691C12.1884 7.50031 12.3922 7.50031 12.7999 7.50031C13.2076 7.50031 13.4115 7.50031 13.5723 7.56691C13.7867 7.65572 13.957 7.82606 14.0458 8.04046C14.1124 8.20126 14.1124 8.40511 14.1124 8.81281V9.64581C14.1124 9.6656 14.1124 9.6755 14.1186 9.68165C14.1247 9.68781 14.1346 9.68781 14.1544 9.68781H14.9874C15.3951 9.68781 15.599 9.68781 15.7598 9.75441C15.9742 9.84322 16.1445 10.0136 16.2333 10.228C16.2999 10.3888 16.2999 10.5926 16.2999 11.0003C16.2999 11.408 16.2999 11.6119 16.2333 11.7727C16.1445 11.9871 15.9742 12.1574 15.7598 12.2462C15.599 12.3128 15.3951 12.3128 14.9874 12.3128H14.1544C14.1346 12.3128 14.1247 12.3128 14.1186 12.319C14.1124 12.3251 14.1124 12.335 14.1124 12.3548V13.1878C14.1124 13.5955 14.1124 13.7994 14.0458 13.9602C13.957 14.1746 13.7867 14.3449 13.5723 14.4337C13.4115 14.5003 13.2076 14.5003 12.7999 14.5003C12.3922 14.5003 12.1884 14.5003 12.0276 14.4337C11.8132 14.3449 11.6428 14.1746 11.554 13.9602C11.4874 13.7994 11.4874 13.5955 11.4874 13.1878V12.3548C11.4874 12.335 11.4874 12.3251 11.4813 12.319C11.4751 12.3128 11.4652 12.3128 11.4454 12.3128H10.6124C10.2047 12.3128 10.0009 12.3128 9.84008 12.2462C9.62568 12.1574 9.45534 11.9871 9.36653 11.7727C9.29993 11.6119 9.29993 11.408 9.29993 11.0003C9.29993 10.5926 9.29993 10.3888 9.36653 10.228C9.45534 10.0136 9.62568 9.84322 9.84008 9.75441C10.0009 9.68781 10.2047 9.68781 10.6124 9.68781H11.4454C11.4652 9.68781 11.4751 9.68781 11.4813 9.68165C11.4874 9.6755 11.4874 9.6656 11.4874 9.64581V8.81281Z" fill="#358888"/>
</svg>
