<svg width="25" height="24" viewBox="0 0 25 24" fill="none" xmlns="http://www.w3.org/2000/svg">
<path fill-rule="evenodd" clip-rule="evenodd" d="M16.733 10.684C16.6128 10.4473 16.4204 10.255 16.1836 10.135C15.9468 10.015 15.678 9.97351 15.416 10.0165L8.79004 11.104C8.51874 11.1485 8.26174 11.2563 8.03988 11.4187C7.81801 11.581 7.63752 11.7934 7.51304 12.0385L5.33504 16.325C5.23082 16.5301 5.18525 16.7601 5.20333 16.9894C5.22142 17.2188 5.30246 17.4387 5.43754 17.625L8.30254 21.574C8.49727 21.8424 8.79065 22.0225 9.11814 22.0745C9.44562 22.1266 9.78039 22.0465 10.0488 21.8518C10.3172 21.657 10.4972 21.3636 10.5493 21.0362C10.6014 20.7087 10.5213 20.3739 10.3265 20.1055L9.48204 18.942C9.54304 18.652 9.73204 18.3915 10.019 18.2505L11.6345 17.455L10.0195 16.66C9.8518 16.5776 9.71052 16.4498 9.61172 16.2912C9.51291 16.1325 9.46054 15.9494 9.46054 15.7625V13.788C9.46054 13.5228 9.56589 13.2684 9.75343 13.0809C9.94097 12.8934 10.1953 12.788 10.4605 12.788C10.7258 12.788 10.9801 12.8934 11.1676 13.0809C11.3552 13.2684 11.4605 13.5228 11.4605 13.788V15.14L14.3405 16.5575C14.4785 16.6254 14.599 16.7241 14.6925 16.8461C14.7861 16.968 14.8504 17.1099 14.8802 17.2607C14.91 17.4116 14.9047 17.5672 14.8646 17.7156C14.8245 17.8641 14.7508 18.0012 14.649 18.1165L14.6595 18.114L14.033 18.9775C13.935 19.1103 13.8643 19.2611 13.8249 19.4214C13.7855 19.5816 13.7782 19.7481 13.8035 19.9112C13.8287 20.0742 13.886 20.2307 13.9721 20.3715C14.0581 20.5123 14.1711 20.6347 14.3047 20.7316C14.4383 20.8285 14.5897 20.898 14.7503 20.9361C14.9109 20.9742 15.0774 20.9801 15.2402 20.9535C15.4031 20.9269 15.5591 20.8683 15.6992 20.7811C15.8393 20.6939 15.9607 20.5799 16.0565 20.4455L18.9215 16.4965C19.0567 16.3103 19.1378 16.0904 19.156 15.861C19.1742 15.6316 19.1287 15.4017 19.0245 15.1965L16.7325 10.6835L16.733 10.684ZM17.2 14.25C17.2 14.7141 17.0157 15.1593 16.6875 15.4874C16.3593 15.8156 15.9142 16 15.45 16C14.9859 16 14.5408 15.8156 14.2126 15.4874C13.8844 15.1593 13.7 14.7141 13.7 14.25C13.7 13.7859 13.8844 13.3408 14.2126 13.0126C14.5408 12.6844 14.9859 12.5 15.45 12.5C15.9142 12.5 16.3593 12.6844 16.6875 13.0126C17.0157 13.3408 17.2 13.7859 17.2 14.25Z" fill="#358888"/>
<path d="M15.7 5.5C15.7 5.95963 15.6094 6.41475 15.4335 6.83939C15.2576 7.26403 14.9998 7.64987 14.6748 7.97487C14.3498 8.29988 13.964 8.55769 13.5393 8.73358C13.1147 8.90947 12.6596 9 12.2 9C11.7403 9 11.2852 8.90947 10.8606 8.73358C10.4359 8.55769 10.0501 8.29988 9.72508 7.97487C9.40007 7.64987 9.14226 7.26403 8.96637 6.83939C8.79048 6.41475 8.69995 5.95963 8.69995 5.5C8.69995 4.57174 9.0687 3.6815 9.72508 3.02513C10.3815 2.36875 11.2717 2 12.2 2C13.1282 2 14.0184 2.36875 14.6748 3.02513C15.3312 3.6815 15.7 4.57174 15.7 5.5Z" fill="#358888"/>
</svg>
