<svg width="25" height="24" viewBox="0 0 25 24" fill="none" xmlns="http://www.w3.org/2000/svg">
<path fill-rule="evenodd" clip-rule="evenodd" d="M13.5189 4.06034C13.5459 4.12025 13.5609 4.1849 13.5628 4.25058C13.5648 4.31626 13.5539 4.38169 13.5306 4.44312C13.5072 4.50456 13.4721 4.5608 13.427 4.60862C13.3819 4.65645 13.3279 4.69492 13.2679 4.72184C12.83 4.919 12.4581 5.23811 12.1967 5.64101C11.9353 6.04392 11.7955 6.51358 11.7939 6.99384V7.01134C11.7972 7.6496 12.0444 8.26246 12.485 8.72429C12.9255 9.18613 13.526 9.46197 14.1634 9.49528C14.8008 9.52859 15.4268 9.31684 15.9131 8.90344C16.3994 8.49004 16.7092 7.90629 16.7789 7.27184C16.7931 7.1399 16.859 7.01897 16.9623 6.93566C17.0656 6.85234 17.1977 6.81347 17.3297 6.82759C17.4616 6.84172 17.5826 6.90768 17.6659 7.01096C17.7492 7.11425 17.7881 7.2464 17.7739 7.37834C17.697 8.09773 17.3982 8.77536 16.9189 9.31734C17.6565 9.48396 18.3203 9.88497 18.8109 10.4603C18.8536 10.5103 18.886 10.5681 18.9064 10.6306C18.9267 10.6931 18.9345 10.7589 18.9294 10.8244C18.9242 10.8899 18.9063 10.9537 18.8765 11.0123C18.8467 11.0708 18.8056 11.1229 18.7557 11.1656C18.7058 11.2083 18.6479 11.2407 18.5854 11.261C18.523 11.2813 18.4571 11.2892 18.3916 11.284C18.3261 11.2789 18.2623 11.2609 18.2038 11.2311C18.1452 11.2013 18.0931 11.1603 18.0504 11.1103C17.6366 10.6235 17.052 10.3136 16.4168 10.2443C15.7816 10.175 15.1439 10.3515 14.6348 10.7377C14.1257 11.1239 13.7838 11.6903 13.6793 12.3207C13.5748 12.9511 13.7157 13.5976 14.0729 14.1273L14.0764 14.1313C14.1312 14.2025 14.1657 14.2872 14.1764 14.3763C14.3429 14.3973 14.5019 14.4778 14.6204 14.6143C14.7344 14.7463 14.8379 14.8808 14.9314 15.0178C15.1129 15.2828 15.0889 15.6268 14.8959 15.8633C15.0456 15.8603 15.1923 15.9049 15.3149 15.9906C15.4376 16.0763 15.5299 16.1988 15.5784 16.3403C15.6834 16.6468 15.7644 16.9463 15.8334 17.2183C15.8659 17.3452 15.8624 17.4787 15.8234 17.6037C15.7844 17.7287 15.7113 17.8405 15.6124 17.9263C15.8489 17.9603 16.0624 18.1128 16.1629 18.3483C16.2554 18.5648 16.3439 18.6703 16.4259 18.7283C16.5579 18.8213 16.6479 18.9513 16.6924 19.0943C16.8039 18.9473 16.9729 18.8443 17.1709 18.8203C17.2779 18.8073 17.3974 18.7873 17.5304 18.7583C17.7334 18.7138 17.9349 18.7618 18.0914 18.8738C18.146 18.7958 18.2219 18.7351 18.3099 18.6988L18.4469 18.6413C18.5726 18.5819 18.6848 18.4977 18.777 18.3937C18.8692 18.2897 18.9395 18.1682 18.9834 18.0363C19.0829 17.7363 19.0744 17.3013 18.7874 16.7448C18.7559 16.6864 18.7363 16.6222 18.7298 16.5561C18.7233 16.49 18.7301 16.4232 18.7497 16.3597C18.7693 16.2962 18.8014 16.2373 18.8441 16.1864C18.8867 16.1354 18.9391 16.0935 18.9981 16.063C19.0572 16.0325 19.1217 16.0141 19.1879 16.0089C19.2542 16.0036 19.3208 16.0117 19.3839 16.0325C19.447 16.0532 19.5053 16.0864 19.5555 16.13C19.6056 16.1736 19.6466 16.2267 19.6759 16.2863C19.8799 16.6813 19.9964 17.0693 20.0309 17.4373C20.4035 16.9882 20.7033 16.4834 20.9194 15.9413C20.9442 15.8805 20.9808 15.8252 21.0269 15.7784C21.0731 15.7317 21.128 15.6946 21.1886 15.6691C21.2491 15.6436 21.3141 15.6303 21.3798 15.6299C21.4455 15.6295 21.5106 15.6421 21.5714 15.6668C21.6323 15.6916 21.6876 15.7282 21.7344 15.7743C21.7811 15.8205 21.8182 15.8755 21.8437 15.936C21.8692 15.9965 21.8825 16.0615 21.8829 16.1272C21.8833 16.1929 21.8707 16.258 21.8459 16.3188C21.5329 17.0863 21.1439 17.6738 20.7694 18.1123C21.0129 18.1408 21.2694 18.2008 21.5464 18.2973C21.6718 18.3408 21.7747 18.4322 21.8326 18.5515C21.8905 18.6708 21.8986 18.8083 21.8552 18.9336C21.8118 19.0589 21.7203 19.1618 21.601 19.2197C21.4817 19.2776 21.3443 19.2858 21.2189 19.2423C20.7214 19.0693 20.3679 19.0623 20.0234 19.1343C19.7024 19.2008 19.3869 19.3323 18.9464 19.5168L18.8529 19.5558C18.7952 19.5827 18.7363 19.6071 18.6764 19.6288C18.575 19.667 18.4639 19.6711 18.3599 19.6403C18.3252 19.7635 18.2576 19.8748 18.1644 19.9624C18.0712 20.0501 17.956 20.1107 17.8309 20.1378C17.6599 20.1753 17.4959 20.2033 17.3389 20.2223C17.1752 20.2419 17.0098 20.2036 16.8714 20.114C16.7329 20.0244 16.6302 19.8892 16.5809 19.7318C16.4703 19.8778 16.3073 19.975 16.1263 20.003C15.9453 20.031 15.7605 19.9875 15.6109 19.8818C15.2374 19.6178 15.0144 19.2543 14.8644 18.9033C14.8056 18.7659 14.792 18.6133 14.8254 18.4676C14.8588 18.3218 14.9376 18.1905 15.0504 18.0923C14.912 18.0727 14.7826 18.0124 14.6784 17.9191C14.5743 17.8258 14.5002 17.7038 14.4654 17.5683C14.4016 17.3088 14.3274 17.0519 14.2429 16.7983C14.2039 16.6848 14.1946 16.5631 14.2158 16.4449C14.2369 16.3267 14.2879 16.2158 14.3639 16.1228C14.2466 16.1253 14.1306 16.0984 14.0263 16.0447C13.9219 15.9911 13.8326 15.9122 13.7664 15.8153C13.7006 15.7192 13.6293 15.6269 13.5529 15.5388C13.4736 15.4474 13.4192 15.3371 13.3949 15.2185C13.3705 15.1 13.3771 14.9771 13.4139 14.8618C13.3567 14.826 13.3074 14.7789 13.2689 14.7233L13.2639 14.7148C13.0303 14.4155 12.7314 14.1733 12.39 14.007C12.0486 13.8406 11.6737 13.7544 11.2939 13.7548C10.4939 13.7548 9.78194 14.1298 9.32394 14.7148C9.29001 14.7641 9.25484 14.8124 9.21844 14.8598C8.94065 15.272 8.79262 15.7578 8.79344 16.2548C8.79344 16.7313 8.92644 17.1748 9.15694 17.5533C9.22325 17.6665 9.24245 17.8012 9.2104 17.9283C9.17835 18.0555 9.09761 18.165 8.9856 18.2332C8.87358 18.3014 8.73925 18.3229 8.61155 18.293C8.48386 18.2631 8.37303 18.1842 8.30294 18.0733C7.91575 17.4384 7.74178 16.6962 7.80644 15.9553C7.15085 16.2325 6.42656 16.304 5.72944 16.1603C5.59955 16.1336 5.4856 16.0564 5.41264 15.9457C5.33969 15.8349 5.31372 15.6997 5.34044 15.5698C5.36716 15.44 5.44439 15.326 5.55513 15.253C5.66587 15.1801 5.80105 15.1541 5.93094 15.1808C6.38754 15.2761 6.86169 15.2414 7.2996 15.0809C7.73751 14.9203 8.12165 14.6402 8.40844 14.2723C8.44294 14.2228 8.47794 14.1743 8.51444 14.1273C8.86718 13.603 9.00827 12.9646 8.90933 12.3404C8.81039 11.7163 8.47876 11.1528 7.98115 10.7633C7.48354 10.3737 6.85689 10.1871 6.22725 10.2409C5.59762 10.2948 5.01172 10.585 4.58744 11.0533C4.49826 11.1515 4.37373 11.2103 4.24123 11.2167C4.10874 11.223 3.97914 11.1765 3.88094 11.0873C3.78274 10.9982 3.724 10.8736 3.71762 10.7411C3.71124 10.6086 3.75776 10.479 3.84694 10.3808C4.33035 9.84728 4.96663 9.47589 5.66894 9.31734C5.20496 8.79274 4.90965 8.14061 4.82144 7.44584C4.80672 7.31524 4.84402 7.1841 4.92526 7.08079C5.0065 6.97748 5.12515 6.91031 5.25554 6.89381C5.38593 6.87731 5.51757 6.91282 5.62198 6.99264C5.72639 7.07247 5.79517 7.19019 5.81344 7.32034C5.89535 7.94897 6.21297 8.52301 6.70203 8.92635C7.1911 9.32969 7.81512 9.53222 8.44783 9.49296C9.08055 9.4537 9.67474 9.17559 10.1102 8.71488C10.5457 8.25418 10.7899 7.64527 10.7934 7.01134V6.99384C10.7919 6.52145 10.6566 6.05915 10.4032 5.66049C10.1498 5.26184 9.78856 4.94315 9.36144 4.74134C9.30208 4.71324 9.24884 4.67372 9.20476 4.62504C9.16067 4.57637 9.12661 4.51948 9.10451 4.45764C9.08241 4.39579 9.0727 4.3302 9.07595 4.26461C9.0792 4.19901 9.09534 4.1347 9.12344 4.07534C9.15154 4.01599 9.19106 3.96275 9.23974 3.91866C9.28842 3.87458 9.3453 3.84051 9.40715 3.81841C9.46899 3.79631 9.53458 3.78661 9.60018 3.78986C9.66577 3.79311 9.73008 3.80924 9.78944 3.83734C10.4139 4.13341 10.9372 4.60698 11.2939 5.19884C11.6621 4.58791 12.2074 4.10346 12.8574 3.80984C12.9173 3.78284 12.9819 3.76789 13.0476 3.76586C13.1133 3.76384 13.1787 3.77477 13.2401 3.79803C13.3015 3.82129 13.3578 3.85643 13.4056 3.90144C13.4535 3.94645 13.492 4.00045 13.5189 4.06034ZM11.2939 12.0038C11.394 12.0064 11.4936 11.9889 11.5868 11.9524C11.6801 11.9159 11.765 11.8611 11.8367 11.7912C11.9084 11.7214 11.9654 11.6378 12.0043 11.5456C12.0433 11.4533 12.0633 11.3542 12.0633 11.2541C12.0633 11.154 12.0433 11.0549 12.0043 10.9626C11.9654 10.8704 11.9084 10.7868 11.8367 10.717C11.765 10.6471 11.6801 10.5923 11.5868 10.5558C11.4936 10.5192 11.394 10.5018 11.2939 10.5043C11.095 10.5043 10.9043 10.5834 10.7636 10.724C10.623 10.8647 10.5439 11.0554 10.5439 11.2543C10.5439 11.4533 10.623 11.644 10.7636 11.7847C10.9043 11.9253 11.095 12.0038 11.2939 12.0038Z" fill="#358888"/>
</svg>
