<svg width="25" height="24" viewBox="0 0 25 24" fill="none" xmlns="http://www.w3.org/2000/svg">
<path fill-rule="evenodd" clip-rule="evenodd" d="M12.7999 4C13.0761 4 13.2999 4.22386 13.2999 4.5H12.7999H12.2999C12.2999 4.22386 12.5238 4 12.7999 4ZM13.2999 9.56361V4.5H12.7999H12.2999V9.56361C12.0227 9.63827 11.7848 9.77587 11.5847 9.96173C11.2877 10.2375 11.0976 10.597 10.9607 10.9393C10.8379 11.2464 10.7434 11.5789 10.6598 11.873C10.6503 11.9065 10.6409 11.9396 10.6317 11.972C10.536 12.3067 10.4536 12.5746 10.3527 12.7764C10.2292 13.0234 10.3293 13.3237 10.5763 13.4472C10.8233 13.5707 11.1236 13.4706 11.2471 13.2236C11.3962 12.9254 11.5013 12.5683 11.5932 12.2467C11.6025 12.2142 11.6117 12.1819 11.6208 12.1499C11.7068 11.8476 11.7868 11.5665 11.8892 11.3107C12.0022 11.028 12.1246 10.825 12.2651 10.6945C12.391 10.5776 12.5506 10.5 12.7999 10.5C13.0492 10.5 13.2088 10.5776 13.3347 10.6945C13.4752 10.825 13.5976 11.028 13.7107 11.3107C13.813 11.5665 13.893 11.8476 13.9791 12.1499C13.9882 12.182 13.9974 12.2142 14.0067 12.2467C14.0985 12.5683 14.2036 12.9254 14.3527 13.2236C14.4762 13.4706 14.7765 13.5707 15.0235 13.4472C15.2705 13.3237 15.3706 13.0234 15.2471 12.7764C15.1462 12.5746 15.0638 12.3067 14.9682 11.972C14.9589 11.9396 14.9495 11.9065 14.94 11.873C14.8564 11.5789 14.762 11.2464 14.6392 10.9393C14.5022 10.597 14.3121 10.2375 14.0151 9.96173C13.815 9.77587 13.5771 9.63827 13.2999 9.56361Z" fill="#358888"/>
<path d="M9.54351 7.01005C8.03478 6.53312 6.58696 7.44631 5.596 8.92494C4.59016 10.4258 3.9387 12.6415 3.97574 15.1854C4.00465 17.1704 5.6654 18.7355 7.62942 18.7353C9.00872 18.7351 10.4971 18.4747 11.2287 17.2554C11.6177 16.607 11.782 16.0392 11.7825 15.4645C11.7829 14.91 11.6287 14.386 11.4616 13.8532L11.4058 13.6763C11.078 12.6397 10.6615 11.3224 10.7355 9.05933C10.7591 8.33668 10.5017 7.31295 9.54351 7.01005Z" fill="#358888"/>
<path d="M16.0563 7.01005C17.5651 6.53312 19.0129 7.44631 20.0039 8.92494C21.0097 10.4258 21.6612 12.6415 21.6241 15.1854C21.5952 17.1704 19.9344 18.7355 17.9704 18.7353C16.5911 18.7351 15.1027 18.4747 14.3712 17.2554C13.9821 16.607 13.8178 16.0392 13.8174 15.4645C13.8169 14.91 13.9711 14.386 14.1382 13.8532L14.194 13.6763C14.5218 12.6397 14.9384 11.3224 14.8644 9.05933C14.8407 8.33668 15.0982 7.31295 16.0563 7.01005Z" fill="#358888"/>
</svg>
