<svg width="25" height="24" viewBox="0 0 25 24" fill="none" xmlns="http://www.w3.org/2000/svg">
<path d="M7.074 15.3758C1.642 13.0848 3.7855 5.35132 7.5565 4.07382C9.121 3.54382 10.8465 5.30232 10.836 6.39382C10.831 6.86582 10.5875 7.32632 10.3335 7.80582C10.0005 8.43582 9.6495 9.09832 9.7985 9.86482C10.061 11.2148 10.355 13.4928 9.5975 14.5738C8.84 15.6553 8.0785 15.7993 7.074 15.3758ZM17.9735 4.07382C21.7445 5.35132 23.8885 13.0848 18.456 15.3758C17.4515 15.7998 16.69 15.6553 15.9325 14.5738C15.175 13.4928 15.469 11.2148 15.7315 9.86482C15.8805 9.09832 15.5295 8.43532 15.1965 7.80582C14.9425 7.32632 14.699 6.86582 14.6945 6.39382C14.6835 5.30232 16.4095 3.54382 17.9735 4.07382ZM15.109 11.3893L15.144 11.8878H15.15L15.1515 11.8873C15.1231 11.8914 15.0951 11.8975 15.0675 11.9053C14.9828 11.9293 14.9029 11.9675 14.831 12.0183C14.686 12.1213 14.473 12.3503 14.473 12.9283V20.1613H13.473V12.9283C13.473 12.0453 13.828 11.5048 14.2505 11.2033C14.4681 11.0493 14.7176 10.9463 14.9805 10.9018C15.007 10.8976 15.0337 10.8943 15.0605 10.8918L15.0685 10.8908H15.074C15.074 10.8903 15.075 10.8903 15.109 11.3893ZM10.421 11.3893C10.387 11.8878 10.3865 11.8878 10.386 11.8878H10.38L10.3785 11.8873L10.3905 11.8888C10.5015 11.9089 10.6068 11.9529 10.699 12.0178C10.844 12.1213 11.057 12.3503 11.057 12.9283V20.1613H12.057V12.9283C12.057 12.0453 11.702 11.5048 11.279 11.2033C11.0614 11.0493 10.8119 10.9463 10.549 10.9018C10.5224 10.8976 10.4958 10.8943 10.469 10.8918L10.4615 10.8908H10.456C10.456 10.8903 10.4555 10.8903 10.421 11.3893Z" fill="#358888"/>
</svg>
