<svg width="25" height="24" viewBox="0 0 25 24" fill="none" xmlns="http://www.w3.org/2000/svg">
<path d="M11.45 13.75L11.55 14.55C11.5666 14.6833 11.621 14.7917 11.713 14.875C11.805 14.9583 11.9173 15 12.05 15H13.15C13.2833 15 13.396 14.9583 13.488 14.875C13.58 14.7917 13.634 14.6833 13.65 14.55L13.75 13.75C13.8833 13.7 14.0043 13.6417 14.113 13.575C14.2216 13.5083 14.3173 13.4333 14.4 13.35L15.15 13.675C15.2666 13.725 15.3833 13.7333 15.5 13.7C15.6166 13.6667 15.7083 13.5917 15.775 13.475L16.325 12.525C16.3916 12.4083 16.4126 12.2917 16.388 12.175C16.3633 12.0583 16.3006 11.9583 16.2 11.875L15.55 11.4C15.5833 11.2667 15.6 11.1333 15.6 11C15.6 10.8667 15.5833 10.7333 15.55 10.6L16.2 10.125C16.3 10.0417 16.3626 9.94167 16.388 9.825C16.4133 9.70833 16.3923 9.59167 16.325 9.475L15.775 8.525C15.7083 8.40833 15.6166 8.33333 15.5 8.3C15.3833 8.26667 15.2666 8.275 15.15 8.325L14.4 8.65C14.3166 8.56667 14.2206 8.49167 14.112 8.425C14.0033 8.35833 13.8826 8.3 13.75 8.25L13.65 7.45C13.6333 7.31667 13.579 7.20833 13.487 7.125C13.395 7.04167 13.2826 7 13.15 7H12.05C11.9166 7 11.8043 7.04167 11.713 7.125C11.6216 7.20833 11.5673 7.31667 11.55 7.45L11.45 8.25C11.3166 8.3 11.196 8.35833 11.088 8.425C10.98 8.49167 10.884 8.56667 10.8 8.65L10.05 8.325C9.93331 8.275 9.81664 8.26667 9.69998 8.3C9.58331 8.33333 9.49164 8.40833 9.42498 8.525L8.87498 9.475C8.80831 9.59167 8.78731 9.70833 8.81198 9.825C8.83664 9.94167 8.89931 10.0417 8.99998 10.125L9.64998 10.6C9.61664 10.7333 9.59998 10.8667 9.59998 11C9.59998 11.1333 9.61664 11.2667 9.64998 11.4L8.99998 11.875C8.89998 11.9583 8.83731 12.0583 8.81198 12.175C8.78664 12.2917 8.80764 12.4083 8.87498 12.525L9.42498 13.475C9.49164 13.5917 9.58331 13.6667 9.69998 13.7C9.81664 13.7333 9.93331 13.725 10.05 13.675L10.8 13.35C10.8833 13.4333 10.9793 13.5083 11.088 13.575C11.1966 13.6417 11.3173 13.7 11.45 13.75ZM12.6 12.5C12.1833 12.5 11.8293 12.354 11.538 12.062C11.2466 11.77 11.1006 11.416 11.1 11C11.1 10.5833 11.246 10.229 11.538 9.937C11.83 9.645 12.184 9.49933 12.6 9.5C13.0166 9.5 13.371 9.646 13.663 9.938C13.955 10.23 14.1006 10.584 14.1 11C14.1 11.4167 13.954 11.771 13.662 12.063C13.37 12.355 13.016 12.5007 12.6 12.5ZM7.59998 22C7.31664 22 7.07898 21.904 6.88698 21.712C6.69498 21.52 6.59931 21.2827 6.59998 21V17.7C5.64998 16.8333 4.91264 15.8207 4.38798 14.662C3.86331 13.5033 3.60064 12.2827 3.59998 11C3.59998 8.5 4.47498 6.375 6.22498 4.625C7.97498 2.875 10.1 2 12.6 2C14.6833 2 16.5293 2.61267 18.138 3.838C19.7466 5.06333 20.7923 6.659 21.275 8.625L22.575 13.75C22.6583 14.0667 22.6 14.3543 22.4 14.613C22.2 14.8717 21.9333 15.0007 21.6 15H19.6V18C19.6 18.55 19.404 19.021 19.012 19.413C18.62 19.805 18.1493 20.0007 17.6 20H15.6V21C15.6 21.2833 15.504 21.521 15.312 21.713C15.12 21.905 14.8826 22.0007 14.6 22H7.59998Z" fill="#358888"/>
</svg>
