<svg width="25" height="24" viewBox="0 0 25 24" fill="none" xmlns="http://www.w3.org/2000/svg">
<path d="M9.69992 11.1484C7.75036 11.1484 6.16992 12.7289 6.16992 14.6784C6.16992 16.628 7.75036 18.2084 9.69992 18.2084C11.6495 18.2084 13.2299 16.628 13.2299 14.6784C13.2299 12.7289 11.6495 11.1484 9.69992 11.1484Z" fill="#358888"/>
<path fill-rule="evenodd" clip-rule="evenodd" d="M6.66992 4C6.39378 4 6.16992 4.22386 6.16992 4.5C6.16992 4.77614 6.39378 5 6.66992 5H7.52992C7.80606 5 8.02992 5.22386 8.02992 5.5V9.43812C5.80886 10.1451 4.19995 12.2247 4.19995 14.68C4.19995 17.7176 6.66238 20.18 9.69995 20.18C12.7375 20.18 15.2 17.7176 15.2 14.68C15.2 13.9858 15.0713 13.3216 14.8366 12.71L16.7599 12.71V17.1213C16.138 17.3301 15.6899 17.9177 15.6899 18.61C15.6899 19.4771 16.3929 20.18 17.2599 20.18C18.127 20.18 18.8299 19.4771 18.8299 18.61C18.8299 17.9177 18.3819 17.3301 17.7599 17.1213V16.32H19.2C19.4761 16.32 19.7 16.0961 19.7 15.82C19.7 15.5439 19.4761 15.32 19.2 15.32H17.7599V12.71C17.7599 12.1577 17.3122 11.71 16.7599 11.71H16.3699V9.71C16.3699 8.60543 15.4745 7.71 14.3699 7.71H9.02992V5.5C9.02992 4.67157 8.35835 4 7.52992 4H6.66992ZM14.3299 11.71L15.3699 11.71V9.71C15.3699 9.15772 14.9222 8.71 14.3699 8.71H9.02992V9.22039C9.24953 9.19372 9.47314 9.17999 9.69995 9.17999C11.6435 9.17999 13.3516 10.1881 14.3299 11.71ZM9.69995 10.18C7.21467 10.18 5.19995 12.1947 5.19995 14.68C5.19995 17.1653 7.21467 19.18 9.69995 19.18C12.1852 19.18 14.2 17.1653 14.2 14.68C14.2 12.1947 12.1852 10.18 9.69995 10.18ZM17.2599 18.04C16.9451 18.04 16.6899 18.2952 16.6899 18.61C16.6899 18.9248 16.9451 19.18 17.2599 19.18C17.5747 19.18 17.8299 18.9248 17.8299 18.61C17.8299 18.2952 17.5747 18.04 17.2599 18.04Z" fill="#358888"/>
</svg>
