<svg width="25" height="24" viewBox="0 0 25 24" fill="none" xmlns="http://www.w3.org/2000/svg">
<path d="M7.79993 22C7.51659 22 7.27893 21.904 7.08693 21.712C6.89493 21.52 6.79926 21.2827 6.79993 21V17.7C5.84993 16.8333 5.11259 15.8207 4.58793 14.662C4.06326 13.5033 3.80059 12.2827 3.79993 11C3.79993 8.5 4.67493 6.375 6.42493 4.625C8.17493 2.875 10.2999 2 12.7999 2C14.8833 2 16.7293 2.61267 18.3379 3.838C19.9466 5.06333 20.9923 6.659 21.4749 8.625L22.7749 13.75C22.8583 14.0667 22.7999 14.3543 22.5999 14.613C22.3999 14.8717 22.1333 15.0007 21.7999 15H19.7999V18C19.7999 18.55 19.6039 19.021 19.2119 19.413C18.8199 19.805 18.3493 20.0007 17.7999 20H15.7999V21C15.7999 21.2833 15.7039 21.521 15.5119 21.713C15.3199 21.905 15.0826 22.0007 14.7999 22H11.8999L12.5249 16H14.7999C15.0833 16 15.3209 15.904 15.5129 15.712C15.7049 15.52 15.8006 15.2827 15.7999 15C15.7999 14.7167 15.7039 14.479 15.5119 14.287C15.3199 14.095 15.0826 13.9993 14.7999 14H12.7249L12.8499 12.9C12.8833 12.65 12.9916 12.4373 13.1749 12.262C13.3583 12.0867 13.5749 11.9993 13.8249 12H16.7999C17.0833 12 17.3209 11.9043 17.5129 11.713C17.7049 11.5217 17.8006 11.284 17.7999 11C17.7999 10.7167 17.7039 10.479 17.5119 10.287C17.3199 10.095 17.0826 9.99933 16.7999 10H13.8499C13.0666 10 12.3916 10.2583 11.8249 10.775C11.2583 11.2917 10.9333 11.9333 10.8499 12.7L9.89993 22H7.79993Z" fill="#358888"/>
</svg>
