<svg width="25" height="24" viewBox="0 0 25 24" fill="none" xmlns="http://www.w3.org/2000/svg">
<path d="M17.6001 3.29844C17.6001 3.05974 17.695 2.83082 17.8637 2.66204C18.0325 2.49326 18.2614 2.39844 18.5001 2.39844H21.5001C21.7388 2.39844 21.9677 2.49326 22.1365 2.66204C22.3053 2.83082 22.4001 3.05974 22.4001 3.29844V6.29844C22.4001 6.53713 22.3053 6.76605 22.1365 6.93483C21.9677 7.10362 21.7388 7.19844 21.5001 7.19844C21.2614 7.19844 21.0325 7.10362 20.8637 6.93483C20.695 6.76605 20.6001 6.53713 20.6001 6.29844V5.47044L15.2361 10.8344C15.0674 11.003 14.8386 11.0976 14.6001 11.0976C14.3616 11.0976 14.1329 11.003 13.9641 10.8344L11.0001 7.87044L5.93614 12.9344C5.85374 13.0229 5.75438 13.0938 5.64398 13.143C5.53358 13.1922 5.41441 13.2186 5.29356 13.2207C5.17272 13.2229 5.05268 13.2007 4.94062 13.1554C4.82855 13.1101 4.72675 13.0427 4.64129 12.9573C4.55583 12.8718 4.48845 12.77 4.44319 12.658C4.39792 12.5459 4.37569 12.4259 4.37783 12.305C4.37996 12.1842 4.40641 12.065 4.4556 11.9546C4.50479 11.8442 4.57571 11.7448 4.66414 11.6624L10.3641 5.96244C10.5329 5.7939 10.7616 5.69923 11.0001 5.69923C11.2386 5.69923 11.4674 5.7939 11.6361 5.96244L14.6001 8.92644L19.3281 4.19844H18.5001C18.2614 4.19844 18.0325 4.10362 17.8637 3.93483C17.695 3.76605 17.6001 3.53713 17.6001 3.29844ZM5.30014 16.7984C5.53883 16.7984 5.76775 16.8933 5.93653 17.062C6.10531 17.2308 6.20014 17.4597 6.20014 17.6984V20.6984C6.20014 20.9371 6.10531 21.1661 5.93653 21.3348C5.76775 21.5036 5.53883 21.5984 5.30014 21.5984C5.06144 21.5984 4.83252 21.5036 4.66374 21.3348C4.49496 21.1661 4.40014 20.9371 4.40014 20.6984V17.6984C4.40014 17.4597 4.49496 17.2308 4.66374 17.062C4.83252 16.8933 5.06144 16.7984 5.30014 16.7984ZM11.0001 14.0984C11.0001 13.8597 10.9053 13.6308 10.7365 13.462C10.5677 13.2933 10.3388 13.1984 10.1001 13.1984C9.86144 13.1984 9.63252 13.2933 9.46374 13.462C9.29496 13.6308 9.20014 13.8597 9.20014 14.0984V20.6984C9.20014 20.9371 9.29496 21.1661 9.46374 21.3348C9.63252 21.5036 9.86144 21.5984 10.1001 21.5984C10.3388 21.5984 10.5677 21.5036 10.7365 21.3348C10.9053 21.1661 11.0001 20.9371 11.0001 20.6984V14.0984ZM14.9001 15.5984C15.1388 15.5984 15.3677 15.6933 15.5365 15.862C15.7053 16.0308 15.8001 16.2597 15.8001 16.4984V20.6984C15.8001 20.9371 15.7053 21.1661 15.5365 21.3348C15.3677 21.5036 15.1388 21.5984 14.9001 21.5984C14.6614 21.5984 14.4325 21.5036 14.2637 21.3348C14.095 21.1661 14.0001 20.9371 14.0001 20.6984V16.4984C14.0001 16.2597 14.095 16.0308 14.2637 15.862C14.4325 15.6933 14.6614 15.5984 14.9001 15.5984ZM20.6001 11.6984C20.6001 11.4597 20.5053 11.2308 20.3365 11.062C20.1677 10.8933 19.9388 10.7984 19.7001 10.7984C19.4614 10.7984 19.2325 10.8933 19.0637 11.062C18.895 11.2308 18.8001 11.4597 18.8001 11.6984V20.6984C18.8001 20.9371 18.895 21.1661 19.0637 21.3348C19.2325 21.5036 19.4614 21.5984 19.7001 21.5984C19.9388 21.5984 20.1677 21.5036 20.3365 21.3348C20.5053 21.1661 20.6001 20.9371 20.6001 20.6984V11.6984Z" fill="#358888"/>
</svg>
