<svg width="24" height="24" viewBox="0 0 24 24" fill="none" xmlns="http://www.w3.org/2000/svg">
<path fill-rule="evenodd" clip-rule="evenodd" d="M21.0188 3.72186C21.6401 3.72186 22.1438 4.22554 22.1438 4.84686V9.34686C22.1438 9.96818 21.6401 10.4719 21.0188 10.4719H16.5188C15.8975 10.4719 15.3938 9.96818 15.3938 9.34686C15.3938 8.72554 15.8975 8.22186 16.5188 8.22186H19.8938V4.84686C19.8938 4.22554 20.3975 3.72186 21.0188 3.72186Z" fill="black"/>
<path fill-rule="evenodd" clip-rule="evenodd" d="M12 4.87585C11.0646 4.87585 10.1385 5.06025 9.27452 5.41849C8.41054 5.77674 7.62566 6.3018 6.96478 6.96364C6.52576 7.4033 5.81345 7.40382 5.37379 6.9648C4.93413 6.52579 4.93361 5.81347 5.37263 5.37381C6.24248 4.50269 7.27555 3.8116 8.41273 3.34008C9.54991 2.86856 10.7689 2.62585 12 2.62585C13.231 2.62585 14.45 2.86856 15.5872 3.34008C16.7239 3.81143 17.7567 4.50218 18.6263 5.37285C18.6266 5.37317 18.627 5.37349 18.6273 5.37381L21.813 8.55019C22.253 8.98888 22.2541 9.70119 21.8154 10.1412C21.3767 10.5812 20.6644 10.5822 20.2244 10.1435L17.0369 6.96539L17.0351 6.96364C16.3742 6.3018 15.5894 5.77674 14.7254 5.41849C13.8614 5.06025 12.9353 4.87585 12 4.87585Z" fill="black"/>
<path fill-rule="evenodd" clip-rule="evenodd" d="M1.8562 14.6531C1.8562 14.0318 2.35988 13.5281 2.9812 13.5281H7.4812C8.10252 13.5281 8.6062 14.0318 8.6062 14.6531C8.6062 15.2745 8.10252 15.7781 7.4812 15.7781H4.1062V19.1531C4.1062 19.7745 3.60252 20.2781 2.9812 20.2781C2.35988 20.2781 1.8562 19.7745 1.8562 19.1531V14.6531Z" fill="black"/>
<path fill-rule="evenodd" clip-rule="evenodd" d="M2.18454 13.8588C2.62323 13.4188 3.33554 13.4178 3.77552 13.8565L6.96302 17.0346L6.96478 17.0363C7.62566 17.6982 8.41054 18.2233 9.27452 18.5815C10.1385 18.9397 11.0646 19.1241 12 19.1241C12.9353 19.1241 13.8614 18.9397 14.7254 18.5815C15.5894 18.2233 16.3742 17.6982 17.0351 17.0363C17.4741 16.5967 18.1865 16.5962 18.6261 17.0352C19.0658 17.4742 19.0663 18.1865 18.6273 18.6262C17.7574 19.4973 16.7244 20.1884 15.5872 20.6599C14.45 21.1314 13.231 21.3741 12 21.3741C10.7689 21.3741 9.54991 21.1314 8.41273 20.6599C7.27591 20.1885 6.24314 19.4977 5.37346 18.627C5.37318 18.6267 5.3729 18.6265 5.37263 18.6262L2.18688 15.4498C1.74689 15.0111 1.74584 14.2988 2.18454 13.8588Z" fill="black"/>
</svg>
