<svg width="24" height="24" viewBox="0 0 24 24" fill="none" xmlns="http://www.w3.org/2000/svg">
<path d="M8.21476 6.46521H15.5558C15.8336 6.46521 16.0653 6.23357 16.0653 5.95574V3.87161C16.0653 3.59377 15.8336 3.36214 15.5558 3.36214H14.3515C14.259 2.04206 13.1938 1 11.8737 1C10.5537 1 9.48848 2.04206 9.41905 3.36214H8.2148C7.93695 3.36214 7.70532 3.59379 7.70532 3.87161V5.95574C7.68222 6.23358 7.91387 6.46521 8.2148 6.46521H8.21476ZM11.8737 2.52842C12.3832 2.52842 12.8232 2.94518 12.8232 3.47793C12.8232 3.9874 12.4065 4.42744 11.8737 4.42744C11.3642 4.42744 10.9242 4.01069 10.9242 3.47793C10.9474 2.94518 11.3642 2.52842 11.8737 2.52842Z" fill="black"/>
<path d="M18.7053 4.79785H17.0843V5.95574C17.0843 6.81254 16.3895 7.50732 15.5327 7.50732H8.21481C7.35801 7.50732 6.66323 6.81254 6.66323 5.95574V4.79785H5.13478C4.50947 4.79785 4 5.30732 4 5.93263V21.8652C4 22.4905 4.50947 23 5.13478 23H18.7284C19.3537 23 19.8632 22.4905 19.8632 21.8652V5.93263C19.8632 5.30732 19.3539 4.79785 18.7053 4.79785H18.7053ZM16.3664 15.821H15.0001L13.4255 18.7621C13.3096 18.9937 13.0781 19.1326 12.8234 19.1326H12.7539C12.4761 19.1095 12.2445 18.901 12.175 18.6232L10.8549 13.6905L9.90539 15.4737C9.78956 15.7054 9.55809 15.8443 9.30332 15.8443H7.52013C7.14957 15.8443 6.82535 15.5432 6.82535 15.1495C6.82535 14.779 7.12645 14.4547 7.52013 14.4547H8.8864L10.4611 11.5137C10.6 11.2589 10.8547 11.12 11.1558 11.1664C11.4337 11.1895 11.6653 11.398 11.7348 11.6758L13.0549 16.6085L14.0044 14.8253C14.1202 14.5936 14.3517 14.4547 14.6064 14.4547H16.3896C16.7602 14.4547 17.0844 14.7558 17.0844 15.1495C17.0611 15.4968 16.76 15.821 16.3664 15.821L16.3664 15.821Z" fill="black"/>
</svg>
