<svg width="56" height="56" viewBox="0 0 56 56" fill="none" xmlns="http://www.w3.org/2000/svg">
<rect width="56" height="56" rx="28" fill="#F0F2F9"/>
<path d="M28 18C22.49 18 18 22.49 18 28C18 33.51 22.49 38 28 38C33.51 38 38 33.51 38 28C38 22.49 33.51 18 28 18ZM32.78 25.7L27.11 31.37C26.97 31.51 26.78 31.59 26.58 31.59C26.38 31.59 26.19 31.51 26.05 31.37L23.22 28.54C22.93 28.25 22.93 27.77 23.22 27.48C23.51 27.19 23.99 27.19 24.28 27.48L26.58 29.78L31.72 24.64C32.01 24.35 32.49 24.35 32.78 24.64C33.07 24.93 33.07 25.4 32.78 25.7Z" fill="#358888"/>
</svg>
