<svg width="24" height="24" viewBox="0 0 24 24" fill="none" xmlns="http://www.w3.org/2000/svg">
<path d="M14.0874 14.0269L13.4874 13.9069C13.3374 14.5969 12.7374 15.1069 12.0174 15.1069C11.2974 15.1069 10.6974 14.5969 10.5474 13.9069L9.94739 14.0269C10.1574 14.9869 10.9974 15.707 12.0174 15.707C13.0374 15.707 13.8774 15.0169 14.0874 14.0269Z" fill="black"/>
<path d="M18.1972 9.10697H17.4772C16.9372 6.58697 14.6872 4.69714 12.0172 4.69714C9.34717 4.69714 7.09717 6.58714 6.55717 9.10697H5.83717C4.93716 9.10697 4.21716 9.82697 4.21716 10.727V12.947C4.21716 13.847 4.93716 14.567 5.83717 14.567H7.00717V11.147C7.57717 10.937 9.13717 10.247 10.2772 8.56697C11.0272 9.31697 13.2772 11.147 16.9972 11.027V12.917C16.9972 14.897 15.8272 16.6671 14.0272 17.477C13.8172 17.147 13.4572 16.967 13.0372 16.967C12.3772 16.967 11.8672 17.507 11.8672 18.137C11.8672 18.767 12.4072 19.307 13.0372 19.307C13.6672 19.307 14.2072 18.767 14.2072 18.137V18.047C15.7372 17.387 16.8472 16.097 17.3272 14.5368H18.1672C19.0672 14.5368 19.7872 13.8168 19.7872 12.9168V10.6968C19.8172 9.8268 19.0972 9.1068 18.1972 9.1068V9.10697Z" fill="black"/>
</svg>
