<svg width="24" height="24" viewBox="0 0 24 24" fill="none" xmlns="http://www.w3.org/2000/svg">
<path fill-rule="evenodd" clip-rule="evenodd" d="M14.0995 5.65108L13.2215 6.53824C12.7844 6.97985 12.0721 6.98354 11.6305 6.54648C11.1889 6.10943 11.1852 5.39712 11.6222 4.95551L12.5222 4.04614C12.5358 4.03242 12.5498 4.01905 12.564 4.00605C13.5638 3.09481 14.8762 2.60383 16.2286 2.63514C17.581 2.66645 18.8693 3.21764 19.8258 4.17416C20.7823 5.13069 21.3335 6.419 21.3648 7.77138C21.3961 9.12375 20.9052 10.4362 19.9939 11.436C19.9818 11.4492 19.9694 11.4622 19.9567 11.4749L17.1188 14.3034C17.1183 14.3039 17.1178 14.3044 17.1173 14.3049C16.6308 14.7929 16.0527 15.1801 15.4163 15.4445C14.7792 15.7091 14.0961 15.8453 13.4062 15.8453C12.7164 15.8453 12.0333 15.7091 11.3962 15.4445C10.7591 15.1799 10.1805 14.7921 9.69362 14.3034C9.2551 13.8632 9.25643 13.1509 9.69659 12.7124C10.1368 12.2739 10.8491 12.2752 11.2876 12.7154C11.5654 12.9943 11.8956 13.2156 12.2592 13.3665C12.6227 13.5175 13.0125 13.5953 13.4062 13.5953C13.7999 13.5953 14.1897 13.5175 14.5533 13.3665C14.9168 13.2156 15.247 12.9943 15.5249 12.7154L15.5277 12.7126L15.5277 12.7126L18.3477 9.90187C18.8584 9.33216 19.1332 8.58899 19.1154 7.82345C19.0975 7.04963 18.7821 6.31247 18.2348 5.76516C17.6875 5.21784 16.9503 4.90245 16.1765 4.88454C15.4116 4.86683 14.669 5.14114 14.0995 5.65108Z" fill="black"/>
<path fill-rule="evenodd" clip-rule="evenodd" d="M10.5937 10.4047C10.2 10.4047 9.81021 10.4825 9.44665 10.6334C9.08308 10.7844 8.7529 11.0057 8.47505 11.2846L8.47225 11.2874L8.47225 11.2874L5.65224 14.0981C5.14152 14.6678 4.86675 15.411 4.88447 16.1765C4.90239 16.9504 5.21778 17.6875 5.76509 18.2348C6.31241 18.7822 7.04957 19.0975 7.82339 19.1155C8.58832 19.1332 9.33092 18.8589 9.90045 18.3489L10.7785 17.4617C11.2155 17.0201 11.9278 17.0164 12.3694 17.4535C12.811 17.8906 12.8147 18.6029 12.3777 19.0445L11.4777 19.9538C11.4641 19.9676 11.4502 19.9809 11.4359 19.9939C10.4361 20.9052 9.12369 21.3962 7.77132 21.3649C6.41894 21.3335 5.13063 20.7824 4.1741 19.8258C3.21758 18.8693 2.66639 17.581 2.63508 16.2286C2.60377 14.8762 3.09475 13.5638 4.00599 12.564C4.0181 12.5507 4.03053 12.5377 4.04326 12.5251L6.88254 9.69514C7.36913 9.20712 7.9472 8.81985 8.58366 8.55552C9.22076 8.29093 9.90383 8.15472 10.5937 8.15472C11.2836 8.15472 11.9666 8.29093 12.6037 8.55552C13.2408 8.82011 13.8194 9.20789 14.3063 9.69661C14.7448 10.1368 14.7435 10.8491 14.3033 11.2876C13.8632 11.7261 13.1509 11.7248 12.7123 11.2846C12.4345 11.0057 12.1043 10.7844 11.7407 10.6334C11.3772 10.4825 10.9874 10.4047 10.5937 10.4047Z" fill="black"/>
</svg>
