<svg width="24" height="24" viewBox="0 0 24 24" fill="none" xmlns="http://www.w3.org/2000/svg">
<path d="M20.7943 18.806C19.6613 21.5227 17.0051 21.9989 16.1372 21.9989C15.8824 21.9989 11.9127 22.2095 6.20678 16.7952C1.61477 12.4381 1.05367 7.75275 1.00486 6.86244C0.957274 5.99539 1.20544 3.82018 4.19692 2.20409C4.56755 2.00376 5.30243 1.91507 5.49219 2.10501C5.57636 2.1892 8.08731 6.32197 8.15322 6.45891C8.21926 6.59567 8.25227 6.73025 8.25227 6.86235C8.25227 7.05105 8.11788 7.28719 7.84879 7.57031C7.57985 7.85344 7.28749 8.11315 6.9713 8.34897C6.65508 8.58496 6.36258 8.83505 6.09349 9.0994C5.82455 9.36345 5.69016 9.58084 5.69016 9.7506C5.70846 10.1914 6.06947 11.7703 8.8204 14.1879C11.5718 16.6062 12.8969 17.2875 13.0247 17.3346C13.1523 17.3817 13.2583 17.405 13.3431 17.405C13.5131 17.405 13.7302 17.2707 13.9944 17.0017C14.2584 16.7325 15.1466 15.5149 15.4298 15.2458C15.7129 14.9771 15.9489 14.8425 16.1377 14.8425C16.2698 14.8425 16.4042 14.8754 16.5409 14.9414C16.6778 15.0075 20.8147 17.4289 20.894 17.5098C21.1086 17.7301 20.957 18.417 20.7948 18.8059" fill="black"/>
</svg>
