<svg width="24" height="24" viewBox="0 0 24 24" fill="none" xmlns="http://www.w3.org/2000/svg">
<path d="M5.31734 13.7254L5.35861 13.7851C5.409 13.8607 5.46178 13.9342 5.51457 14.0145L11.4908 22.5999C11.6653 22.8506 11.9513 23 12.2566 23C12.562 23 12.848 22.8506 13.0225 22.5999L18.9848 14.021C19.042 13.9407 19.0971 13.8628 19.1522 13.7916L19.1889 13.7366V13.7368C20.2681 12.0668 20.7085 10.0635 20.4289 8.09472C20.1493 6.12611 19.1686 4.32449 17.6669 3.02107C16.1653 1.71772 14.2437 1 12.2554 1C10.2669 1 8.34551 1.71772 6.84389 3.02107C5.34235 4.32441 4.36165 6.12603 4.08204 8.09472C3.80244 10.0634 4.2428 12.0667 5.32204 13.7368L5.31734 13.7254ZM12.2567 5.82091C13.1689 5.82091 14.0439 6.18322 14.689 6.82835C15.3339 7.47347 15.6964 8.34844 15.6964 9.26067C15.6964 10.1729 15.334 11.0479 14.689 11.6929C14.0439 12.338 13.1689 12.7004 12.2567 12.7004C11.3444 12.7004 10.4694 12.338 9.82433 11.6929C9.17938 11.0479 8.81689 10.1729 8.81689 9.26067C8.81689 8.34844 9.17936 7.47343 9.82433 6.82835C10.4695 6.18323 11.3444 5.82091 12.2567 5.82091Z" fill="black"/>
</svg>
