<svg width="24" height="24" viewBox="0 0 24 24" fill="none" xmlns="http://www.w3.org/2000/svg">
<path d="M20.9146 10.6046H13.3953V3.08527C13.3953 2.74273 12.9302 2 12 2C11.0697 2 10.6046 2.74278 10.6046 3.08527V10.6047H3.08527C2.74277 10.6046 2 11.0698 2 12C2 12.9301 2.74277 13.3953 3.08527 13.3953H10.6046V20.9147C10.6046 21.2572 11.0697 22 12 22C12.9303 22 13.3954 21.2572 13.3954 20.9147V13.3953H20.9147C21.2572 13.3953 22 12.9302 22 12C22 11.0697 21.2571 10.6046 20.9146 10.6046Z" fill="#2A2536"/>
<mask id="mask0_35_4055" style="mask-type:luminance" maskUnits="userSpaceOnUse" x="2" y="2" width="20" height="20">
<path d="M20.9146 10.6046H13.3953V3.08527C13.3953 2.74273 12.9302 2 12 2C11.0697 2 10.6046 2.74278 10.6046 3.08527V10.6047H3.08527C2.74277 10.6046 2 11.0698 2 12C2 12.9301 2.74277 13.3953 3.08527 13.3953H10.6046V20.9147C10.6046 21.2572 11.0697 22 12 22C12.9303 22 13.3954 21.2572 13.3954 20.9147V13.3953H20.9147C21.2572 13.3953 22 12.9302 22 12C22 11.0697 21.2571 10.6046 20.9146 10.6046Z" fill="white"/>
</mask>
<g mask="url(#mask0_35_4055)">
<rect width="24" height="24" fill="#2A2536"/>
</g>
</svg>
