<svg width="24" height="24" viewBox="0 0 24 24" fill="none" xmlns="http://www.w3.org/2000/svg">
<path d="M16.5 15C15.9997 14.9992 15.5045 15.0992 15.0438 15.2941C14.5831 15.489 14.1665 15.7748 13.8187 16.1344L9.49684 13.3594C9.8342 12.4845 9.8342 11.5155 9.49684 10.6406L13.8187 7.86562C14.4267 8.48742 15.2319 8.87858 16.0965 8.97214C16.9611 9.0657 17.8314 8.85585 18.5583 8.3785C19.2852 7.90116 19.8237 7.186 20.0814 6.35543C20.3392 5.52486 20.3003 4.63052 19.9714 3.82548C19.6424 3.02044 19.0439 2.35476 18.2782 1.94236C17.5126 1.52996 16.6274 1.39649 15.7742 1.5648C14.921 1.73311 14.1528 2.19272 13.6011 2.86498C13.0494 3.53724 12.7485 4.38035 12.75 5.25C12.7515 5.7147 12.8372 6.17528 13.0031 6.60937L8.68121 9.38437C8.16088 8.84981 7.49294 8.48258 6.7628 8.32965C6.03265 8.17671 5.27348 8.24503 4.58237 8.52585C3.89125 8.80667 3.29959 9.28724 2.88305 9.9061C2.46651 10.525 2.24402 11.254 2.24402 12C2.24402 12.746 2.46651 13.475 2.88305 14.0939C3.29959 14.7128 3.89125 15.1933 4.58237 15.4742C5.27348 15.755 6.03265 15.8233 6.7628 15.6704C7.49294 15.5174 8.16088 15.1502 8.68121 14.6156L13.0031 17.3906C12.8372 17.8247 12.7515 18.2853 12.75 18.75C12.75 19.4917 12.9699 20.2167 13.382 20.8334C13.794 21.4501 14.3797 21.9307 15.0649 22.2145C15.7501 22.4984 16.5041 22.5726 17.2316 22.4279C17.959 22.2832 18.6272 21.9261 19.1516 21.4016C19.6761 20.8772 20.0332 20.209 20.1779 19.4816C20.3226 18.7542 20.2483 18.0002 19.9645 17.3149C19.6807 16.6297 19.2 16.044 18.5833 15.632C17.9667 15.2199 17.2416 15 16.5 15Z" fill="black"/>
</svg>
